<svg xmlns="http://www.w3.org/2000/svg" xmlns:xlink="http://www.w3.org/1999/xlink" width="1366" zoomAndPan="magnify" viewBox="0 0 1024.5 576" height="768" preserveAspectRatio="xMidYMid meet" version="1.0"><defs><g/><clipPath id="c7b5f43c9d"><path d="M 152 232 L 226 232 L 226 331 L 152 331 Z M 152 232 " clip-rule="nonzero"/></clipPath><clipPath id="7b2ca5ebb7"><path d="M 200.386719 225.515625 L 232.125 244.195312 L 177.535156 336.9375 L 145.796875 318.253906 Z M 200.386719 225.515625 " clip-rule="nonzero"/></clipPath><clipPath id="0a3b906071"><path d="M 216.257812 234.855469 C 220.464844 237.332031 223.515625 241.382812 224.742188 246.109375 C 225.964844 250.835938 225.261719 255.859375 222.785156 260.066406 L 186.902344 321.027344 C 184.421875 325.234375 180.375 328.289062 175.648438 329.511719 C 170.917969 330.738281 165.898438 330.03125 161.6875 327.554688 C 157.480469 325.078125 154.429688 321.03125 153.203125 316.300781 C 151.980469 311.574219 152.683594 306.554688 155.160156 302.34375 L 191.042969 241.382812 C 193.523438 237.175781 197.570312 234.121094 202.296875 232.898438 C 207.027344 231.675781 212.046875 232.378906 216.257812 234.855469 Z M 216.257812 234.855469 " clip-rule="nonzero"/></clipPath><clipPath id="8548c091f8"><path d="M 0 0 L 73.96875 0 L 73.96875 98.9375 L 0 98.9375 Z M 0 0 " clip-rule="nonzero"/></clipPath><clipPath id="1798bdd8e3"><path d="M 48.386719 -6.484375 L 80.125 12.195312 L 25.535156 104.9375 L -6.203125 86.253906 Z M 48.386719 -6.484375 " clip-rule="nonzero"/></clipPath><clipPath id="2ef482dd4b"><path d="M 64.257812 2.855469 C 68.464844 5.332031 71.515625 9.382812 72.742188 14.109375 C 73.964844 18.835938 73.261719 23.859375 70.785156 28.066406 L 34.902344 89.027344 C 32.421875 93.234375 28.375 96.289062 23.648438 97.511719 C 18.917969 98.738281 13.898438 98.03125 9.6875 95.554688 C 5.480469 93.078125 2.429688 89.03125 1.203125 84.300781 C -0.0195312 79.574219 0.683594 74.554688 3.160156 70.34375 L 39.042969 9.382812 C 41.523438 5.175781 45.570312 2.121094 50.296875 0.898438 C 55.027344 -0.324219 60.046875 0.378906 64.257812 2.855469 Z M 64.257812 2.855469 " clip-rule="nonzero"/></clipPath><clipPath id="5cbe213fb6"><rect x="0" width="74" y="0" height="99"/></clipPath><clipPath id="6abb94f26c"><path d="M 115.332031 232.21875 L 153.277344 232.21875 L 153.277344 270.164062 L 115.332031 270.164062 Z M 115.332031 232.21875 " clip-rule="nonzero"/></clipPath><clipPath id="ea5c3be257"><path d="M 134.304688 232.21875 C 123.828125 232.21875 115.332031 240.714844 115.332031 251.191406 C 115.332031 261.667969 123.828125 270.164062 134.304688 270.164062 C 144.78125 270.164062 153.277344 261.667969 153.277344 251.191406 C 153.277344 240.714844 144.78125 232.21875 134.304688 232.21875 Z M 134.304688 232.21875 " clip-rule="nonzero"/></clipPath><clipPath id="92562fa875"><path d="M 0.332031 0.21875 L 38.277344 0.21875 L 38.277344 38.164062 L 0.332031 38.164062 Z M 0.332031 0.21875 " clip-rule="nonzero"/></clipPath><clipPath id="dd1b28002c"><path d="M 19.304688 0.21875 C 8.828125 0.21875 0.332031 8.714844 0.332031 19.191406 C 0.332031 29.667969 8.828125 38.164062 19.304688 38.164062 C 29.78125 38.164062 38.277344 29.667969 38.277344 19.191406 C 38.277344 8.714844 29.78125 0.21875 19.304688 0.21875 Z M 19.304688 0.21875 " clip-rule="nonzero"/></clipPath><clipPath id="a09310ddac"><rect x="0" width="39" y="0" height="39"/></clipPath></defs><g clip-path="url(#c7b5f43c9d)"><g clip-path="url(#7b2ca5ebb7)"><g clip-path="url(#0a3b906071)"><g transform="matrix(1, 0, 0, 1, 152, 232)"><g clip-path="url(#5cbe213fb6)"><g clip-path="url(#8548c091f8)"><g clip-path="url(#1798bdd8e3)"><g clip-path="url(#2ef482dd4b)"><path fill="#1b17ff" d="M 48.386719 -6.484375 L 80.125 12.195312 L 25.535156 104.9375 L -6.203125 86.253906 Z M 48.386719 -6.484375 " fill-opacity="1" fill-rule="nonzero"/></g></g></g></g></g></g></g></g><g clip-path="url(#6abb94f26c)"><g clip-path="url(#ea5c3be257)"><g transform="matrix(1, 0, 0, 1, 115, 232)"><g clip-path="url(#a09310ddac)"><g clip-path="url(#92562fa875)"><g clip-path="url(#dd1b28002c)"><path fill="#1b17ff" d="M 0.332031 0.21875 L 38.277344 0.21875 L 38.277344 38.164062 L 0.332031 38.164062 Z M 0.332031 0.21875 " fill-opacity="1" fill-rule="nonzero"/></g></g></g></g></g></g><g fill="#022179" fill-opacity="1"><g transform="translate(232.128039, 320.333675)"><g><path d="M 84.984375 0 L 68.75 0 L 62.078125 -16.234375 L 23.453125 -16.234375 L 16.78125 0 L 0.5625 0 L 35.484375 -84 L 50.046875 -84 Z M 42.21875 -62.140625 L 28.703125 -29.0625 L 56.84375 -29.0625 L 43.265625 -62.140625 L 42.890625 -64.1875 L 42.703125 -64.1875 Z M 42.21875 -62.140625 "/></g></g></g><g fill="#022179" fill-opacity="1"><g transform="translate(310.397672, 320.333675)"><g><path d="M 37.28125 1.90625 C 33.039062 1.90625 29.109375 1.316406 25.484375 0.140625 C 21.867188 -1.023438 18.703125 -2.863281 15.984375 -5.375 C 13.265625 -7.882812 11.15625 -11.132812 9.65625 -15.125 C 8.15625 -19.113281 7.40625 -23.925781 7.40625 -29.5625 L 7.40625 -63.4375 L 22.21875 -63.4375 L 22.21875 -30 C 22.21875 -24.15625 23.472656 -19.6875 25.984375 -16.59375 C 28.492188 -13.507812 32.238281 -11.96875 37.21875 -11.96875 C 42.238281 -11.96875 45.984375 -13.519531 48.453125 -16.625 C 50.921875 -19.738281 52.15625 -24.195312 52.15625 -30 L 52.15625 -63.4375 L 67.015625 -63.4375 L 67.015625 -29.5625 C 67.015625 -23.925781 66.265625 -19.113281 64.765625 -15.125 C 63.265625 -11.132812 61.15625 -7.882812 58.4375 -5.375 C 55.726562 -2.863281 52.570312 -1.023438 48.96875 0.140625 C 45.363281 1.316406 41.46875 1.90625 37.28125 1.90625 Z M 37.28125 1.90625 "/></g></g></g><g fill="#022179" fill-opacity="1"><g transform="translate(377.496616, 320.333675)"><g><path d="M 47.765625 0 L 34.875 0 C 32.976562 0 31.03125 -0.171875 29.03125 -0.515625 C 27.039062 -0.867188 25.140625 -1.519531 23.328125 -2.46875 C 21.515625 -3.414062 19.898438 -4.78125 18.484375 -6.5625 C 17.066406 -8.351562 15.9375 -10.675781 15.09375 -13.53125 C 14.25 -16.394531 13.828125 -19.925781 13.828125 -24.125 L 13.828125 -50.609375 L 0.671875 -50.609375 L 0.671875 -63.4375 L 13.828125 -63.4375 L 13.828125 -82.015625 L 28.765625 -82.140625 L 28.765625 -63.4375 L 47.765625 -63.4375 L 47.765625 -50.609375 L 28.765625 -50.609375 L 28.765625 -23.453125 C 28.765625 -20.492188 29.191406 -18.207031 30.046875 -16.59375 C 30.910156 -14.988281 32.050781 -13.890625 33.46875 -13.296875 C 34.894531 -12.703125 36.390625 -12.40625 37.953125 -12.40625 L 47.765625 -12.40625 Z M 47.765625 0 "/></g></g></g><g fill="#022179" fill-opacity="1"><g transform="translate(421.266734, 320.333675)"><g><path d="M 37.578125 1.90625 C 32.765625 1.90625 28.320312 1.046875 24.25 -0.671875 C 20.175781 -2.398438 16.648438 -4.804688 13.671875 -7.890625 C 10.691406 -10.984375 8.378906 -14.566406 6.734375 -18.640625 C 5.085938 -22.710938 4.265625 -27.070312 4.265625 -31.71875 C 4.265625 -36.363281 5.085938 -40.710938 6.734375 -44.765625 C 8.378906 -48.828125 10.691406 -52.398438 13.671875 -55.484375 C 16.648438 -58.566406 20.175781 -60.984375 24.25 -62.734375 C 28.320312 -64.484375 32.785156 -65.359375 37.640625 -65.359375 C 42.535156 -65.359375 47.019531 -64.484375 51.09375 -62.734375 C 55.164062 -60.984375 58.703125 -58.566406 61.703125 -55.484375 C 64.710938 -52.398438 67.039062 -48.828125 68.6875 -44.765625 C 70.332031 -40.710938 71.15625 -36.363281 71.15625 -31.71875 C 71.15625 -27.03125 70.332031 -22.660156 68.6875 -18.609375 C 67.039062 -14.554688 64.710938 -10.984375 61.703125 -7.890625 C 58.703125 -4.804688 55.15625 -2.398438 51.0625 -0.671875 C 46.96875 1.046875 42.472656 1.90625 37.578125 1.90625 Z M 37.703125 -11.96875 C 41.285156 -11.96875 44.472656 -12.820312 47.265625 -14.53125 C 50.066406 -16.238281 52.28125 -18.570312 53.90625 -21.53125 C 55.53125 -24.5 56.34375 -27.894531 56.34375 -31.71875 C 56.34375 -35.539062 55.53125 -38.941406 53.90625 -41.921875 C 52.28125 -44.910156 50.066406 -47.257812 47.265625 -48.96875 C 44.472656 -50.675781 41.285156 -51.53125 37.703125 -51.53125 C 34.171875 -51.53125 30.992188 -50.675781 28.171875 -48.96875 C 25.347656 -47.257812 23.125 -44.910156 21.5 -41.921875 C 19.875 -38.941406 19.0625 -35.539062 19.0625 -31.71875 C 19.0625 -27.894531 19.875 -24.5 21.5 -21.53125 C 23.125 -18.570312 25.347656 -16.238281 28.171875 -14.53125 C 30.992188 -12.820312 34.171875 -11.96875 37.703125 -11.96875 Z M 37.703125 -11.96875 "/></g></g></g><g fill="#022179" fill-opacity="1"><g transform="translate(489.353153, 320.333675)"><g><path d="M 23.703125 21.65625 L 8.765625 21.65625 L 8.765625 -63.4375 L 22.953125 -63.4375 L 22.953125 -52.765625 C 25.253906 -56.585938 28.316406 -59.628906 32.140625 -61.890625 C 35.972656 -64.160156 40.175781 -65.296875 44.75 -65.296875 C 49.269531 -65.296875 53.410156 -64.421875 57.171875 -62.671875 C 60.941406 -60.921875 64.203125 -58.515625 66.953125 -55.453125 C 69.710938 -52.390625 71.851562 -48.828125 73.375 -44.765625 C 74.894531 -40.710938 75.65625 -36.363281 75.65625 -31.71875 C 75.65625 -27.070312 74.894531 -22.710938 73.375 -18.640625 C 71.851562 -14.566406 69.703125 -10.984375 66.921875 -7.890625 C 64.148438 -4.804688 60.898438 -2.398438 57.171875 -0.671875 C 53.453125 1.046875 49.367188 1.90625 44.921875 1.90625 C 41.835938 1.90625 38.914062 1.398438 36.15625 0.390625 C 33.40625 -0.609375 30.9375 -2.023438 28.75 -3.859375 C 26.570312 -5.691406 24.785156 -7.820312 23.390625 -10.25 L 23.703125 -2.90625 Z M 42.21875 -11.84375 C 45.582031 -11.84375 48.675781 -12.644531 51.5 -14.25 C 54.320312 -15.851562 56.582031 -18.144531 58.28125 -21.125 C 59.988281 -24.113281 60.84375 -27.644531 60.84375 -31.71875 C 60.84375 -35.707031 60 -39.179688 58.3125 -42.140625 C 56.632812 -45.109375 54.382812 -47.414062 51.5625 -49.0625 C 48.738281 -50.707031 45.601562 -51.53125 42.15625 -51.53125 C 39.5625 -51.53125 37.140625 -51.023438 34.890625 -50.015625 C 32.648438 -49.003906 30.675781 -47.59375 28.96875 -45.78125 C 27.257812 -43.976562 25.921875 -41.882812 24.953125 -39.5 C 23.992188 -37.113281 23.515625 -34.519531 23.515625 -31.71875 C 23.515625 -28.84375 24.003906 -26.191406 24.984375 -23.765625 C 25.972656 -21.335938 27.332031 -19.226562 29.0625 -17.4375 C 30.789062 -15.644531 32.785156 -14.265625 35.046875 -13.296875 C 37.316406 -12.328125 39.707031 -11.84375 42.21875 -11.84375 Z M 42.21875 -11.84375 "/></g></g></g><g fill="#022179" fill-opacity="1"><g transform="translate(561.944859, 320.333675)"><g><path d="M 16.109375 -73.3125 C 13.222656 -73.3125 10.96875 -74.144531 9.34375 -75.8125 C 7.71875 -77.476562 6.90625 -79.503906 6.90625 -81.890625 C 6.90625 -84.191406 7.71875 -86.1875 9.34375 -87.875 C 10.96875 -89.5625 13.242188 -90.40625 16.171875 -90.40625 C 19.171875 -90.40625 21.484375 -89.5625 23.109375 -87.875 C 24.734375 -86.1875 25.546875 -84.191406 25.546875 -81.890625 C 25.546875 -79.503906 24.734375 -77.476562 23.109375 -75.8125 C 21.484375 -74.144531 19.148438 -73.3125 16.109375 -73.3125 Z M 23.703125 0 L 8.765625 0 L 8.765625 -63.4375 L 23.703125 -63.4375 Z M 23.703125 0 "/></g></g></g><g fill="#022179" fill-opacity="1"><g transform="translate(587.01489, 320.333675)"><g><path d="M 23.703125 0 L 8.765625 0 L 8.765625 -86.953125 L 23.703125 -86.953125 Z M 23.703125 0 "/></g></g></g><g fill="#022179" fill-opacity="1"><g transform="translate(612.084922, 320.333675)"><g><path d="M 37.578125 1.90625 C 32.765625 1.90625 28.320312 1.046875 24.25 -0.671875 C 20.175781 -2.398438 16.648438 -4.804688 13.671875 -7.890625 C 10.691406 -10.984375 8.378906 -14.566406 6.734375 -18.640625 C 5.085938 -22.710938 4.265625 -27.070312 4.265625 -31.71875 C 4.265625 -36.363281 5.085938 -40.710938 6.734375 -44.765625 C 8.378906 -48.828125 10.691406 -52.398438 13.671875 -55.484375 C 16.648438 -58.566406 20.175781 -60.984375 24.25 -62.734375 C 28.320312 -64.484375 32.785156 -65.359375 37.640625 -65.359375 C 42.535156 -65.359375 47.019531 -64.484375 51.09375 -62.734375 C 55.164062 -60.984375 58.703125 -58.566406 61.703125 -55.484375 C 64.710938 -52.398438 67.039062 -48.828125 68.6875 -44.765625 C 70.332031 -40.710938 71.15625 -36.363281 71.15625 -31.71875 C 71.15625 -27.03125 70.332031 -22.660156 68.6875 -18.609375 C 67.039062 -14.554688 64.710938 -10.984375 61.703125 -7.890625 C 58.703125 -4.804688 55.15625 -2.398438 51.0625 -0.671875 C 46.96875 1.046875 42.472656 1.90625 37.578125 1.90625 Z M 37.703125 -11.96875 C 41.285156 -11.96875 44.472656 -12.820312 47.265625 -14.53125 C 50.066406 -16.238281 52.28125 -18.570312 53.90625 -21.53125 C 55.53125 -24.5 56.34375 -27.894531 56.34375 -31.71875 C 56.34375 -35.539062 55.53125 -38.941406 53.90625 -41.921875 C 52.28125 -44.910156 50.066406 -47.257812 47.265625 -48.96875 C 44.472656 -50.675781 41.285156 -51.53125 37.703125 -51.53125 C 34.171875 -51.53125 30.992188 -50.675781 28.171875 -48.96875 C 25.347656 -47.257812 23.125 -44.910156 21.5 -41.921875 C 19.875 -38.941406 19.0625 -35.539062 19.0625 -31.71875 C 19.0625 -27.894531 19.875 -24.5 21.5 -21.53125 C 23.125 -18.570312 25.347656 -16.238281 28.171875 -14.53125 C 30.992188 -12.820312 34.171875 -11.96875 37.703125 -11.96875 Z M 37.703125 -11.96875 "/></g></g></g><g fill="#022179" fill-opacity="1"><g transform="translate(680.171319, 320.333675)"><g><path d="M 47.765625 0 L 34.875 0 C 32.976562 0 31.03125 -0.171875 29.03125 -0.515625 C 27.039062 -0.867188 25.140625 -1.519531 23.328125 -2.46875 C 21.515625 -3.414062 19.898438 -4.78125 18.484375 -6.5625 C 17.066406 -8.351562 15.9375 -10.675781 15.09375 -13.53125 C 14.25 -16.394531 13.828125 -19.925781 13.828125 -24.125 L 13.828125 -50.609375 L 0.671875 -50.609375 L 0.671875 -63.4375 L 13.828125 -63.4375 L 13.828125 -82.015625 L 28.765625 -82.140625 L 28.765625 -63.4375 L 47.765625 -63.4375 L 47.765625 -50.609375 L 28.765625 -50.609375 L 28.765625 -23.453125 C 28.765625 -20.492188 29.191406 -18.207031 30.046875 -16.59375 C 30.910156 -14.988281 32.050781 -13.890625 33.46875 -13.296875 C 34.894531 -12.703125 36.390625 -12.40625 37.953125 -12.40625 L 47.765625 -12.40625 Z M 47.765625 0 "/></g></g></g><g fill="#000000" fill-opacity="1"><g transform="translate(723.946588, 320.333675)"><g/></g></g><g fill="#ff3131" fill-opacity="1"><g transform="translate(747.852885, 320.333675)"><g><path d="M 33.8125 1.796875 C 30.976562 1.796875 28.148438 1.460938 25.328125 0.796875 C 22.515625 0.140625 19.84375 -0.882812 17.3125 -2.28125 C 14.78125 -3.675781 12.523438 -5.503906 10.546875 -7.765625 C 8.578125 -10.035156 7.015625 -12.753906 5.859375 -15.921875 C 4.710938 -19.085938 4.117188 -22.769531 4.078125 -26.96875 L 14.9375 -26.96875 C 15.019531 -23.382812 15.65625 -20.398438 16.84375 -18.015625 C 18.039062 -15.628906 19.59375 -13.71875 21.5 -12.28125 C 23.414062 -10.84375 25.472656 -9.8125 27.671875 -9.1875 C 29.878906 -8.570312 32.007812 -8.265625 34.0625 -8.265625 C 36.570312 -8.265625 38.945312 -8.726562 41.1875 -9.65625 C 43.4375 -10.582031 45.429688 -11.878906 47.171875 -13.546875 C 48.921875 -15.210938 50.289062 -17.175781 51.28125 -19.4375 C 52.269531 -21.695312 52.765625 -24.144531 52.765625 -26.78125 C 52.765625 -30.195312 51.910156 -33.222656 50.203125 -35.859375 C 48.492188 -38.492188 46.085938 -40.5625 42.984375 -42.0625 C 39.878906 -43.5625 36.207031 -44.3125 31.96875 -44.3125 L 23.203125 -44.3125 L 23.203125 -49.921875 L 42.828125 -74.546875 L 43.078125 -74.921875 L 8.265625 -74.921875 L 8.265625 -83.9375 L 56.34375 -83.9375 L 56.34375 -77.9375 L 35.921875 -53.203125 L 35.171875 -52.265625 C 40.972656 -51.984375 46.015625 -50.851562 50.296875 -48.875 C 54.578125 -46.90625 57.890625 -44.066406 60.234375 -40.359375 C 62.578125 -36.660156 63.75 -32.050781 63.75 -26.53125 C 63.75 -22.582031 63.007812 -18.890625 61.53125 -15.453125 C 60.050781 -12.023438 57.960938 -9.015625 55.265625 -6.421875 C 52.566406 -3.828125 49.394531 -1.804688 45.75 -0.359375 C 42.113281 1.078125 38.132812 1.796875 33.8125 1.796875 Z M 33.8125 1.796875 "/></g></g></g><g fill="#ff3131" fill-opacity="1"><g transform="translate(807.669285, 320.333675)"><g><path d="M 34.875 1.671875 C 30.550781 1.671875 26.597656 0.953125 23.015625 -0.484375 C 19.441406 -1.929688 16.335938 -3.929688 13.703125 -6.484375 C 11.066406 -9.035156 9.03125 -11.992188 7.59375 -15.359375 C 6.15625 -18.734375 5.4375 -22.378906 5.4375 -26.296875 C 5.4375 -28.390625 5.640625 -30.398438 6.046875 -32.328125 C 6.460938 -34.265625 7.117188 -36.25 8.015625 -38.28125 C 8.921875 -40.320312 10.082031 -42.546875 11.5 -44.953125 C 12.925781 -47.359375 14.625 -50.109375 16.59375 -53.203125 L 36.34375 -83.9375 L 48.9375 -83.9375 L 26.84375 -50.296875 C 28.40625 -51.285156 30.101562 -52.066406 31.9375 -52.640625 C 33.769531 -53.210938 35.628906 -53.5 37.515625 -53.5 C 41.097656 -53.5 44.492188 -52.820312 47.703125 -51.46875 C 50.910156 -50.113281 53.769531 -48.203125 56.28125 -45.734375 C 58.789062 -43.265625 60.753906 -40.382812 62.171875 -37.09375 C 63.597656 -33.800781 64.3125 -30.203125 64.3125 -26.296875 C 64.3125 -22.378906 63.585938 -18.734375 62.140625 -15.359375 C 60.703125 -11.992188 58.664062 -9.035156 56.03125 -6.484375 C 53.40625 -3.929688 50.300781 -1.929688 46.71875 -0.484375 C 43.132812 0.953125 39.1875 1.671875 34.875 1.671875 Z M 34.9375 -8.390625 C 38.300781 -8.390625 41.320312 -9.160156 44 -10.703125 C 46.675781 -12.242188 48.796875 -14.351562 50.359375 -17.03125 C 51.921875 -19.707031 52.703125 -22.753906 52.703125 -26.171875 C 52.703125 -29.585938 51.921875 -32.640625 50.359375 -35.328125 C 48.796875 -38.023438 46.675781 -40.164062 44 -41.75 C 41.320312 -43.332031 38.300781 -44.125 34.9375 -44.125 C 31.96875 -44.125 29.363281 -43.554688 27.125 -42.421875 C 24.882812 -41.296875 23.007812 -39.816406 21.5 -37.984375 C 20 -36.148438 18.867188 -34.191406 18.109375 -32.109375 C 17.347656 -30.035156 16.96875 -28.054688 16.96875 -26.171875 C 16.96875 -22.753906 17.75 -19.707031 19.3125 -17.03125 C 20.875 -14.351562 23.015625 -12.242188 25.734375 -10.703125 C 28.453125 -9.160156 31.519531 -8.390625 34.9375 -8.390625 Z M 34.9375 -8.390625 "/></g></g></g><g fill="#ff3131" fill-opacity="1"><g transform="translate(869.028604, 320.333675)"><g><path d="M 40.046875 1.796875 C 34.242188 1.796875 29.148438 0.65625 24.765625 -1.625 C 20.390625 -3.914062 16.738281 -7.066406 13.8125 -11.078125 C 10.894531 -15.085938 8.695312 -19.703125 7.21875 -24.921875 C 5.738281 -30.148438 5 -35.707031 5 -41.59375 C 5 -47.726562 5.78125 -53.457031 7.34375 -58.78125 C 8.90625 -64.113281 11.1875 -68.796875 14.1875 -72.828125 C 17.195312 -76.859375 20.859375 -80.015625 25.171875 -82.296875 C 29.492188 -84.578125 34.429688 -85.71875 39.984375 -85.71875 C 44.921875 -85.71875 49.289062 -84.9375 53.09375 -83.375 C 56.90625 -81.8125 60.195312 -79.640625 62.96875 -76.859375 C 65.75 -74.085938 68.035156 -70.847656 69.828125 -67.140625 C 71.617188 -63.441406 72.945312 -59.441406 73.8125 -55.140625 C 74.675781 -50.835938 75.109375 -46.425781 75.109375 -41.90625 C 75.109375 -35.9375 74.351562 -30.316406 72.84375 -25.046875 C 71.34375 -19.785156 69.113281 -15.140625 66.15625 -11.109375 C 63.195312 -7.078125 59.535156 -3.914062 55.171875 -1.625 C 50.804688 0.65625 45.765625 1.796875 40.046875 1.796875 Z M 40.046875 -8.390625 C 43.835938 -8.390625 47.222656 -9.222656 50.203125 -10.890625 C 53.179688 -12.554688 55.707031 -14.898438 57.78125 -17.921875 C 59.863281 -20.953125 61.453125 -24.503906 62.546875 -28.578125 C 63.640625 -32.648438 64.1875 -37.09375 64.1875 -41.90625 C 64.1875 -46.550781 63.671875 -50.910156 62.640625 -54.984375 C 61.609375 -59.054688 60.070312 -62.632812 58.03125 -65.71875 C 56 -68.8125 53.472656 -71.226562 50.453125 -72.96875 C 47.429688 -74.71875 43.921875 -75.59375 39.921875 -75.59375 C 36.304688 -75.59375 33.023438 -74.757812 30.078125 -73.09375 C 27.140625 -71.425781 24.609375 -69.070312 22.484375 -66.03125 C 20.367188 -62.988281 18.742188 -59.398438 17.609375 -55.265625 C 16.484375 -51.128906 15.921875 -46.59375 15.921875 -41.65625 C 15.921875 -36.925781 16.460938 -32.535156 17.546875 -28.484375 C 18.640625 -24.429688 20.222656 -20.898438 22.296875 -17.890625 C 24.378906 -14.890625 26.910156 -12.554688 29.890625 -10.890625 C 32.878906 -9.222656 36.265625 -8.390625 40.046875 -8.390625 Z M 40.046875 -8.390625 "/></g></g></g><g fill="#1800ad" fill-opacity="1"><g transform="translate(211.89477, 372.115953)"><g><path d="M 11.359375 -7.890625 L 11.359375 0 L 7.34375 0 L 7.34375 -7.890625 L 0.484375 -19.25 L 4.703125 -19.25 L 9.3125 -11.109375 L 14 -19.25 L 18.21875 -19.25 Z M 11.359375 -7.890625 "/></g></g></g><g fill="#1800ad" fill-opacity="1"><g transform="translate(228.481912, 372.115953)"><g><path d="M 16 -7.40625 C 16 -5.007812 15.332031 -3.128906 14 -1.765625 C 12.675781 -0.410156 10.835938 0.265625 8.484375 0.265625 C 6.179688 0.265625 4.375 -0.414062 3.0625 -1.78125 C 1.75 -3.144531 1.09375 -5.019531 1.09375 -7.40625 C 1.09375 -9.78125 1.75 -11.648438 3.0625 -13.015625 C 4.375 -14.378906 6.207031 -15.0625 8.5625 -15.0625 C 10.976562 -15.0625 12.820312 -14.398438 14.09375 -13.078125 C 15.363281 -11.765625 16 -9.875 16 -7.40625 Z M 11.984375 -7.40625 C 11.984375 -9.164062 11.695312 -10.441406 11.125 -11.234375 C 10.550781 -12.023438 9.71875 -12.421875 8.625 -12.421875 C 6.289062 -12.421875 5.125 -10.75 5.125 -7.40625 C 5.125 -5.757812 5.40625 -4.503906 5.96875 -3.640625 C 6.539062 -2.773438 7.363281 -2.34375 8.4375 -2.34375 C 10.800781 -2.34375 11.984375 -4.03125 11.984375 -7.40625 Z M 11.984375 -7.40625 "/></g></g></g><g fill="#1800ad" fill-opacity="1"><g transform="translate(245.574705, 372.115953)"><g><path d="M 5.578125 -14.78125 L 5.578125 -6.484375 C 5.578125 -3.890625 6.453125 -2.59375 8.203125 -2.59375 C 9.128906 -2.59375 9.875 -2.988281 10.4375 -3.78125 C 11.007812 -4.582031 11.296875 -5.609375 11.296875 -6.859375 L 11.296875 -14.78125 L 15.140625 -14.78125 L 15.140625 -3.3125 C 15.140625 -2.050781 15.175781 -0.945312 15.25 0 L 11.59375 0 C 11.476562 -1.3125 11.421875 -2.289062 11.421875 -2.9375 L 11.359375 -2.9375 C 10.847656 -1.8125 10.195312 -0.992188 9.40625 -0.484375 C 8.613281 0.015625 7.675781 0.265625 6.59375 0.265625 C 5.03125 0.265625 3.828125 -0.210938 2.984375 -1.171875 C 2.148438 -2.128906 1.734375 -3.535156 1.734375 -5.390625 L 1.734375 -14.78125 Z M 5.578125 -14.78125 "/></g></g></g><g fill="#1800ad" fill-opacity="1"><g transform="translate(262.667498, 372.115953)"><g><path d="M 1.953125 0 L 1.953125 -11.3125 C 1.953125 -12.125 1.941406 -12.800781 1.921875 -13.34375 C 1.898438 -13.882812 1.875 -14.363281 1.84375 -14.78125 L 5.5 -14.78125 C 5.53125 -14.613281 5.566406 -14.113281 5.609375 -13.28125 C 5.660156 -12.445312 5.6875 -11.894531 5.6875 -11.625 L 5.734375 -11.625 C 6.109375 -12.664062 6.441406 -13.394531 6.734375 -13.8125 C 7.023438 -14.238281 7.367188 -14.554688 7.765625 -14.765625 C 8.171875 -14.972656 8.675781 -15.078125 9.28125 -15.078125 C 9.769531 -15.078125 10.164062 -15.003906 10.46875 -14.859375 L 10.46875 -11.65625 C 9.84375 -11.789062 9.296875 -11.859375 8.828125 -11.859375 C 7.867188 -11.859375 7.125 -11.46875 6.59375 -10.6875 C 6.0625 -9.914062 5.796875 -8.769531 5.796875 -7.25 L 5.796875 0 Z M 1.953125 0 "/></g></g></g><g fill="#1800ad" fill-opacity="1"><g transform="translate(273.557153, 372.115953)"><g/></g></g><g fill="#1800ad" fill-opacity="1"><g transform="translate(281.331575, 372.115953)"><g><path d="M 5.734375 0.25 C 4.609375 0.25 3.738281 -0.0546875 3.125 -0.671875 C 2.519531 -1.285156 2.21875 -2.21875 2.21875 -3.46875 L 2.21875 -12.1875 L 0.34375 -12.1875 L 0.34375 -14.78125 L 2.40625 -14.78125 L 3.609375 -18.25 L 6.015625 -18.25 L 6.015625 -14.78125 L 8.8125 -14.78125 L 8.8125 -12.1875 L 6.015625 -12.1875 L 6.015625 -4.515625 C 6.015625 -3.796875 6.148438 -3.265625 6.421875 -2.921875 C 6.691406 -2.578125 7.113281 -2.40625 7.6875 -2.40625 C 7.988281 -2.40625 8.421875 -2.46875 8.984375 -2.59375 L 8.984375 -0.21875 C 8.035156 0.09375 6.953125 0.25 5.734375 0.25 Z M 5.734375 0.25 "/></g></g></g><g fill="#1800ad" fill-opacity="1"><g transform="translate(290.649945, 372.115953)"><g><path d="M 1.953125 0 L 1.953125 -11.3125 C 1.953125 -12.125 1.941406 -12.800781 1.921875 -13.34375 C 1.898438 -13.882812 1.875 -14.363281 1.84375 -14.78125 L 5.5 -14.78125 C 5.53125 -14.613281 5.566406 -14.113281 5.609375 -13.28125 C 5.660156 -12.445312 5.6875 -11.894531 5.6875 -11.625 L 5.734375 -11.625 C 6.109375 -12.664062 6.441406 -13.394531 6.734375 -13.8125 C 7.023438 -14.238281 7.367188 -14.554688 7.765625 -14.765625 C 8.171875 -14.972656 8.675781 -15.078125 9.28125 -15.078125 C 9.769531 -15.078125 10.164062 -15.003906 10.46875 -14.859375 L 10.46875 -11.65625 C 9.84375 -11.789062 9.296875 -11.859375 8.828125 -11.859375 C 7.867188 -11.859375 7.125 -11.46875 6.59375 -10.6875 C 6.0625 -9.914062 5.796875 -8.769531 5.796875 -7.25 L 5.796875 0 Z M 1.953125 0 "/></g></g></g><g fill="#1800ad" fill-opacity="1"><g transform="translate(301.5396, 372.115953)"><g><path d="M 5.578125 -14.78125 L 5.578125 -6.484375 C 5.578125 -3.890625 6.453125 -2.59375 8.203125 -2.59375 C 9.128906 -2.59375 9.875 -2.988281 10.4375 -3.78125 C 11.007812 -4.582031 11.296875 -5.609375 11.296875 -6.859375 L 11.296875 -14.78125 L 15.140625 -14.78125 L 15.140625 -3.3125 C 15.140625 -2.050781 15.175781 -0.945312 15.25 0 L 11.59375 0 C 11.476562 -1.3125 11.421875 -2.289062 11.421875 -2.9375 L 11.359375 -2.9375 C 10.847656 -1.8125 10.195312 -0.992188 9.40625 -0.484375 C 8.613281 0.015625 7.675781 0.265625 6.59375 0.265625 C 5.03125 0.265625 3.828125 -0.210938 2.984375 -1.171875 C 2.148438 -2.128906 1.734375 -3.535156 1.734375 -5.390625 L 1.734375 -14.78125 Z M 5.578125 -14.78125 "/></g></g></g><g fill="#1800ad" fill-opacity="1"><g transform="translate(318.632393, 372.115953)"><g><path d="M 14.421875 -4.3125 C 14.421875 -2.882812 13.832031 -1.765625 12.65625 -0.953125 C 11.488281 -0.140625 9.867188 0.265625 7.796875 0.265625 C 5.765625 0.265625 4.207031 -0.0507812 3.125 -0.6875 C 2.050781 -1.332031 1.335938 -2.332031 0.984375 -3.6875 L 4.359375 -4.1875 C 4.546875 -3.488281 4.875 -2.992188 5.34375 -2.703125 C 5.8125 -2.410156 6.628906 -2.265625 7.796875 -2.265625 C 8.878906 -2.265625 9.664062 -2.398438 10.15625 -2.671875 C 10.644531 -2.953125 10.890625 -3.382812 10.890625 -3.96875 C 10.890625 -4.4375 10.691406 -4.804688 10.296875 -5.078125 C 9.898438 -5.359375 9.226562 -5.597656 8.28125 -5.796875 C 6.113281 -6.222656 4.648438 -6.617188 3.890625 -6.984375 C 3.140625 -7.359375 2.566406 -7.835938 2.171875 -8.421875 C 1.773438 -9.015625 1.578125 -9.738281 1.578125 -10.59375 C 1.578125 -12 2.117188 -13.097656 3.203125 -13.890625 C 4.296875 -14.679688 5.835938 -15.078125 7.828125 -15.078125 C 9.585938 -15.078125 11 -14.734375 12.0625 -14.046875 C 13.132812 -13.359375 13.804688 -12.367188 14.078125 -11.078125 L 10.671875 -10.71875 C 10.554688 -11.320312 10.285156 -11.769531 9.859375 -12.0625 C 9.429688 -12.363281 8.753906 -12.515625 7.828125 -12.515625 C 6.921875 -12.515625 6.238281 -12.394531 5.78125 -12.15625 C 5.320312 -11.925781 5.09375 -11.539062 5.09375 -11 C 5.09375 -10.570312 5.269531 -10.234375 5.625 -9.984375 C 5.976562 -9.734375 6.566406 -9.523438 7.390625 -9.359375 C 8.546875 -9.117188 9.570312 -8.875 10.46875 -8.625 C 11.363281 -8.375 12.082031 -8.078125 12.625 -7.734375 C 13.175781 -7.390625 13.613281 -6.945312 13.9375 -6.40625 C 14.257812 -5.863281 14.421875 -5.164062 14.421875 -4.3125 Z M 14.421875 -4.3125 "/></g></g></g><g fill="#1800ad" fill-opacity="1"><g transform="translate(334.194896, 372.115953)"><g><path d="M 5.734375 0.25 C 4.609375 0.25 3.738281 -0.0546875 3.125 -0.671875 C 2.519531 -1.285156 2.21875 -2.21875 2.21875 -3.46875 L 2.21875 -12.1875 L 0.34375 -12.1875 L 0.34375 -14.78125 L 2.40625 -14.78125 L 3.609375 -18.25 L 6.015625 -18.25 L 6.015625 -14.78125 L 8.8125 -14.78125 L 8.8125 -12.1875 L 6.015625 -12.1875 L 6.015625 -4.515625 C 6.015625 -3.796875 6.148438 -3.265625 6.421875 -2.921875 C 6.691406 -2.578125 7.113281 -2.40625 7.6875 -2.40625 C 7.988281 -2.40625 8.421875 -2.46875 8.984375 -2.59375 L 8.984375 -0.21875 C 8.035156 0.09375 6.953125 0.25 5.734375 0.25 Z M 5.734375 0.25 "/></g></g></g><g fill="#1800ad" fill-opacity="1"><g transform="translate(343.513266, 372.115953)"><g><path d="M 8 0.265625 C 5.78125 0.265625 4.070312 -0.390625 2.875 -1.703125 C 1.6875 -3.015625 1.09375 -4.929688 1.09375 -7.453125 C 1.09375 -9.898438 1.695312 -11.78125 2.90625 -13.09375 C 4.125 -14.40625 5.84375 -15.0625 8.0625 -15.0625 C 10.1875 -15.0625 11.804688 -14.351562 12.921875 -12.9375 C 14.046875 -11.53125 14.609375 -9.472656 14.609375 -6.765625 L 14.609375 -6.65625 L 5.125 -6.65625 C 5.125 -5.21875 5.390625 -4.128906 5.921875 -3.390625 C 6.453125 -2.660156 7.210938 -2.296875 8.203125 -2.296875 C 9.554688 -2.296875 10.410156 -2.882812 10.765625 -4.0625 L 14.390625 -3.75 C 13.335938 -1.070312 11.207031 0.265625 8 0.265625 Z M 8 -12.640625 C 7.101562 -12.640625 6.410156 -12.320312 5.921875 -11.6875 C 5.429688 -11.0625 5.175781 -10.1875 5.15625 -9.0625 L 10.890625 -9.0625 C 10.816406 -10.25 10.53125 -11.140625 10.03125 -11.734375 C 9.53125 -12.335938 8.851562 -12.640625 8 -12.640625 Z M 8 -12.640625 "/></g></g></g><g fill="#1800ad" fill-opacity="1"><g transform="translate(359.075769, 372.115953)"><g><path d="M 11.53125 0 C 11.5 -0.132812 11.457031 -0.476562 11.40625 -1.03125 C 11.351562 -1.582031 11.328125 -2.039062 11.328125 -2.40625 L 11.265625 -2.40625 C 10.441406 -0.625 8.867188 0.265625 6.546875 0.265625 C 4.828125 0.265625 3.492188 -0.398438 2.546875 -1.734375 C 1.609375 -3.078125 1.140625 -4.957031 1.140625 -7.375 C 1.140625 -9.820312 1.632812 -11.710938 2.625 -13.046875 C 3.613281 -14.390625 5.015625 -15.0625 6.828125 -15.0625 C 7.878906 -15.0625 8.785156 -14.84375 9.546875 -14.40625 C 10.304688 -13.96875 10.890625 -13.316406 11.296875 -12.453125 L 11.328125 -12.453125 L 11.296875 -14.875 L 11.296875 -20.28125 L 15.140625 -20.28125 L 15.140625 -3.21875 C 15.140625 -2.3125 15.175781 -1.238281 15.25 0 Z M 11.359375 -7.46875 C 11.359375 -9.0625 11.085938 -10.289062 10.546875 -11.15625 C 10.015625 -12.019531 9.234375 -12.453125 8.203125 -12.453125 C 7.171875 -12.453125 6.40625 -12.035156 5.90625 -11.203125 C 5.40625 -10.367188 5.15625 -9.09375 5.15625 -7.375 C 5.15625 -4.019531 6.160156 -2.34375 8.171875 -2.34375 C 9.179688 -2.34375 9.960938 -2.785156 10.515625 -3.671875 C 11.078125 -4.566406 11.359375 -5.832031 11.359375 -7.46875 Z M 11.359375 -7.46875 "/></g></g></g><g fill="#1800ad" fill-opacity="1"><g transform="translate(376.168562, 372.115953)"><g/></g></g><g fill="#1800ad" fill-opacity="1"><g transform="translate(383.942984, 372.115953)"><g><path d="M 15.953125 -7.453125 C 15.953125 -4.984375 15.457031 -3.078125 14.46875 -1.734375 C 13.476562 -0.398438 12.082031 0.265625 10.28125 0.265625 C 9.238281 0.265625 8.332031 0.0390625 7.5625 -0.40625 C 6.789062 -0.851562 6.203125 -1.5 5.796875 -2.34375 L 5.71875 -2.34375 C 5.769531 -2.070312 5.796875 -1.242188 5.796875 0.140625 L 5.796875 5.8125 L 1.953125 5.8125 L 1.953125 -11.375 C 1.953125 -12.769531 1.914062 -13.90625 1.84375 -14.78125 L 5.578125 -14.78125 C 5.617188 -14.613281 5.65625 -14.289062 5.6875 -13.8125 C 5.71875 -13.332031 5.734375 -12.851562 5.734375 -12.375 L 5.796875 -12.375 C 6.660156 -14.1875 8.234375 -15.09375 10.515625 -15.09375 C 12.242188 -15.09375 13.582031 -14.429688 14.53125 -13.109375 C 15.476562 -11.785156 15.953125 -9.898438 15.953125 -7.453125 Z M 11.9375 -7.453125 C 11.9375 -10.773438 10.921875 -12.4375 8.890625 -12.4375 C 7.867188 -12.4375 7.085938 -11.988281 6.546875 -11.09375 C 6.003906 -10.195312 5.734375 -8.945312 5.734375 -7.34375 C 5.734375 -5.75 6.003906 -4.515625 6.546875 -3.640625 C 7.085938 -2.773438 7.863281 -2.34375 8.875 -2.34375 C 10.914062 -2.34375 11.9375 -4.046875 11.9375 -7.453125 Z M 11.9375 -7.453125 "/></g></g></g><g fill="#1800ad" fill-opacity="1"><g transform="translate(401.035777, 372.115953)"><g><path d="M 5.375 0.265625 C 3.9375 0.265625 2.816406 -0.117188 2.015625 -0.890625 C 1.210938 -1.671875 0.8125 -2.769531 0.8125 -4.1875 C 0.8125 -5.71875 1.3125 -6.878906 2.3125 -7.671875 C 3.3125 -8.472656 4.757812 -8.882812 6.65625 -8.90625 L 9.84375 -8.96875 L 9.84375 -9.71875 C 9.84375 -10.675781 9.671875 -11.390625 9.328125 -11.859375 C 8.992188 -12.335938 8.441406 -12.578125 7.671875 -12.578125 C 6.960938 -12.578125 6.441406 -12.410156 6.109375 -12.078125 C 5.773438 -11.753906 5.570312 -11.222656 5.5 -10.484375 L 1.484375 -10.671875 C 1.734375 -12.109375 2.390625 -13.195312 3.453125 -13.9375 C 4.523438 -14.6875 5.988281 -15.0625 7.84375 -15.0625 C 9.707031 -15.0625 11.144531 -14.597656 12.15625 -13.671875 C 13.164062 -12.753906 13.671875 -11.445312 13.671875 -9.75 L 13.671875 -4.375 C 13.671875 -3.539062 13.765625 -2.96875 13.953125 -2.65625 C 14.140625 -2.34375 14.453125 -2.1875 14.890625 -2.1875 C 15.179688 -2.1875 15.460938 -2.210938 15.734375 -2.265625 L 15.734375 -0.1875 C 15.515625 -0.132812 15.3125 -0.0820312 15.125 -0.03125 C 14.945312 0.0078125 14.765625 0.0390625 14.578125 0.0625 C 14.398438 0.09375 14.207031 0.113281 14 0.125 C 13.789062 0.144531 13.550781 0.15625 13.28125 0.15625 C 12.3125 0.15625 11.597656 -0.078125 11.140625 -0.546875 C 10.679688 -1.015625 10.40625 -1.710938 10.3125 -2.640625 L 10.234375 -2.640625 C 9.160156 -0.703125 7.539062 0.265625 5.375 0.265625 Z M 9.84375 -6.84375 L 7.875 -6.8125 C 6.976562 -6.78125 6.34375 -6.679688 5.96875 -6.515625 C 5.59375 -6.359375 5.304688 -6.113281 5.109375 -5.78125 C 4.921875 -5.457031 4.828125 -5.023438 4.828125 -4.484375 C 4.828125 -3.785156 4.988281 -3.265625 5.3125 -2.921875 C 5.632812 -2.578125 6.0625 -2.40625 6.59375 -2.40625 C 7.195312 -2.40625 7.742188 -2.566406 8.234375 -2.890625 C 8.734375 -3.222656 9.125 -3.675781 9.40625 -4.25 C 9.695312 -4.832031 9.84375 -5.445312 9.84375 -6.09375 Z M 9.84375 -6.84375 "/></g></g></g><g fill="#1800ad" fill-opacity="1"><g transform="translate(416.59828, 372.115953)"><g><path d="M 1.953125 0 L 1.953125 -11.3125 C 1.953125 -12.125 1.941406 -12.800781 1.921875 -13.34375 C 1.898438 -13.882812 1.875 -14.363281 1.84375 -14.78125 L 5.5 -14.78125 C 5.53125 -14.613281 5.566406 -14.113281 5.609375 -13.28125 C 5.660156 -12.445312 5.6875 -11.894531 5.6875 -11.625 L 5.734375 -11.625 C 6.109375 -12.664062 6.441406 -13.394531 6.734375 -13.8125 C 7.023438 -14.238281 7.367188 -14.554688 7.765625 -14.765625 C 8.171875 -14.972656 8.675781 -15.078125 9.28125 -15.078125 C 9.769531 -15.078125 10.164062 -15.003906 10.46875 -14.859375 L 10.46875 -11.65625 C 9.84375 -11.789062 9.296875 -11.859375 8.828125 -11.859375 C 7.867188 -11.859375 7.125 -11.46875 6.59375 -10.6875 C 6.0625 -9.914062 5.796875 -8.769531 5.796875 -7.25 L 5.796875 0 Z M 1.953125 0 "/></g></g></g><g fill="#1800ad" fill-opacity="1"><g transform="translate(427.487924, 372.115953)"><g><path d="M 5.734375 0.25 C 4.609375 0.25 3.738281 -0.0546875 3.125 -0.671875 C 2.519531 -1.285156 2.21875 -2.21875 2.21875 -3.46875 L 2.21875 -12.1875 L 0.34375 -12.1875 L 0.34375 -14.78125 L 2.40625 -14.78125 L 3.609375 -18.25 L 6.015625 -18.25 L 6.015625 -14.78125 L 8.8125 -14.78125 L 8.8125 -12.1875 L 6.015625 -12.1875 L 6.015625 -4.515625 C 6.015625 -3.796875 6.148438 -3.265625 6.421875 -2.921875 C 6.691406 -2.578125 7.113281 -2.40625 7.6875 -2.40625 C 7.988281 -2.40625 8.421875 -2.46875 8.984375 -2.59375 L 8.984375 -0.21875 C 8.035156 0.09375 6.953125 0.25 5.734375 0.25 Z M 5.734375 0.25 "/></g></g></g><g fill="#1800ad" fill-opacity="1"><g transform="translate(436.806305, 372.115953)"><g><path d="M 11.53125 0 L 11.53125 -8.296875 C 11.53125 -10.890625 10.648438 -12.1875 8.890625 -12.1875 C 7.960938 -12.1875 7.210938 -11.785156 6.640625 -10.984375 C 6.078125 -10.191406 5.796875 -9.171875 5.796875 -7.921875 L 5.796875 0 L 1.953125 0 L 1.953125 -11.484375 C 1.953125 -12.273438 1.941406 -12.921875 1.921875 -13.421875 C 1.898438 -13.929688 1.875 -14.382812 1.84375 -14.78125 L 5.5 -14.78125 C 5.53125 -14.613281 5.566406 -14.148438 5.609375 -13.390625 C 5.660156 -12.640625 5.6875 -12.125 5.6875 -11.84375 L 5.734375 -11.84375 C 6.253906 -12.976562 6.90625 -13.800781 7.6875 -14.3125 C 8.476562 -14.820312 9.414062 -15.078125 10.5 -15.078125 C 12.0625 -15.078125 13.257812 -14.59375 14.09375 -13.625 C 14.9375 -12.65625 15.359375 -11.242188 15.359375 -9.390625 L 15.359375 0 Z M 11.53125 0 "/></g></g></g><g fill="#1800ad" fill-opacity="1"><g transform="translate(453.899098, 372.115953)"><g><path d="M 8 0.265625 C 5.78125 0.265625 4.070312 -0.390625 2.875 -1.703125 C 1.6875 -3.015625 1.09375 -4.929688 1.09375 -7.453125 C 1.09375 -9.898438 1.695312 -11.78125 2.90625 -13.09375 C 4.125 -14.40625 5.84375 -15.0625 8.0625 -15.0625 C 10.1875 -15.0625 11.804688 -14.351562 12.921875 -12.9375 C 14.046875 -11.53125 14.609375 -9.472656 14.609375 -6.765625 L 14.609375 -6.65625 L 5.125 -6.65625 C 5.125 -5.21875 5.390625 -4.128906 5.921875 -3.390625 C 6.453125 -2.660156 7.210938 -2.296875 8.203125 -2.296875 C 9.554688 -2.296875 10.410156 -2.882812 10.765625 -4.0625 L 14.390625 -3.75 C 13.335938 -1.070312 11.207031 0.265625 8 0.265625 Z M 8 -12.640625 C 7.101562 -12.640625 6.410156 -12.320312 5.921875 -11.6875 C 5.429688 -11.0625 5.175781 -10.1875 5.15625 -9.0625 L 10.890625 -9.0625 C 10.816406 -10.25 10.53125 -11.140625 10.03125 -11.734375 C 9.53125 -12.335938 8.851562 -12.640625 8 -12.640625 Z M 8 -12.640625 "/></g></g></g><g fill="#1800ad" fill-opacity="1"><g transform="translate(469.461601, 372.115953)"><g><path d="M 1.953125 0 L 1.953125 -11.3125 C 1.953125 -12.125 1.941406 -12.800781 1.921875 -13.34375 C 1.898438 -13.882812 1.875 -14.363281 1.84375 -14.78125 L 5.5 -14.78125 C 5.53125 -14.613281 5.566406 -14.113281 5.609375 -13.28125 C 5.660156 -12.445312 5.6875 -11.894531 5.6875 -11.625 L 5.734375 -11.625 C 6.109375 -12.664062 6.441406 -13.394531 6.734375 -13.8125 C 7.023438 -14.238281 7.367188 -14.554688 7.765625 -14.765625 C 8.171875 -14.972656 8.675781 -15.078125 9.28125 -15.078125 C 9.769531 -15.078125 10.164062 -15.003906 10.46875 -14.859375 L 10.46875 -11.65625 C 9.84375 -11.789062 9.296875 -11.859375 8.828125 -11.859375 C 7.867188 -11.859375 7.125 -11.46875 6.59375 -10.6875 C 6.0625 -9.914062 5.796875 -8.769531 5.796875 -7.25 L 5.796875 0 Z M 1.953125 0 "/></g></g></g><g fill="#1800ad" fill-opacity="1"><g transform="translate(480.351267, 372.115953)"><g/></g></g><g fill="#1800ad" fill-opacity="1"><g transform="translate(488.125679, 372.115953)"><g><path d="M 6.46875 -12.1875 L 6.46875 0 L 2.640625 0 L 2.640625 -12.1875 L 0.484375 -12.1875 L 0.484375 -14.78125 L 2.640625 -14.78125 L 2.640625 -16.328125 C 2.640625 -17.671875 2.992188 -18.664062 3.703125 -19.3125 C 4.410156 -19.957031 5.488281 -20.28125 6.9375 -20.28125 C 7.65625 -20.28125 8.46875 -20.207031 9.375 -20.0625 L 9.375 -17.578125 C 9 -17.660156 8.625 -17.703125 8.25 -17.703125 C 7.59375 -17.703125 7.128906 -17.570312 6.859375 -17.3125 C 6.597656 -17.0625 6.46875 -16.609375 6.46875 -15.953125 L 6.46875 -14.78125 L 9.375 -14.78125 L 9.375 -12.1875 Z M 6.46875 -12.1875 "/></g></g></g><g fill="#1800ad" fill-opacity="1"><g transform="translate(497.44406, 372.115953)"><g><path d="M 16 -7.40625 C 16 -5.007812 15.332031 -3.128906 14 -1.765625 C 12.675781 -0.410156 10.835938 0.265625 8.484375 0.265625 C 6.179688 0.265625 4.375 -0.414062 3.0625 -1.78125 C 1.75 -3.144531 1.09375 -5.019531 1.09375 -7.40625 C 1.09375 -9.78125 1.75 -11.648438 3.0625 -13.015625 C 4.375 -14.378906 6.207031 -15.0625 8.5625 -15.0625 C 10.976562 -15.0625 12.820312 -14.398438 14.09375 -13.078125 C 15.363281 -11.765625 16 -9.875 16 -7.40625 Z M 11.984375 -7.40625 C 11.984375 -9.164062 11.695312 -10.441406 11.125 -11.234375 C 10.550781 -12.023438 9.71875 -12.421875 8.625 -12.421875 C 6.289062 -12.421875 5.125 -10.75 5.125 -7.40625 C 5.125 -5.757812 5.40625 -4.503906 5.96875 -3.640625 C 6.539062 -2.773438 7.363281 -2.34375 8.4375 -2.34375 C 10.800781 -2.34375 11.984375 -4.03125 11.984375 -7.40625 Z M 11.984375 -7.40625 "/></g></g></g><g fill="#1800ad" fill-opacity="1"><g transform="translate(514.536852, 372.115953)"><g><path d="M 1.953125 0 L 1.953125 -11.3125 C 1.953125 -12.125 1.941406 -12.800781 1.921875 -13.34375 C 1.898438 -13.882812 1.875 -14.363281 1.84375 -14.78125 L 5.5 -14.78125 C 5.53125 -14.613281 5.566406 -14.113281 5.609375 -13.28125 C 5.660156 -12.445312 5.6875 -11.894531 5.6875 -11.625 L 5.734375 -11.625 C 6.109375 -12.664062 6.441406 -13.394531 6.734375 -13.8125 C 7.023438 -14.238281 7.367188 -14.554688 7.765625 -14.765625 C 8.171875 -14.972656 8.675781 -15.078125 9.28125 -15.078125 C 9.769531 -15.078125 10.164062 -15.003906 10.46875 -14.859375 L 10.46875 -11.65625 C 9.84375 -11.789062 9.296875 -11.859375 8.828125 -11.859375 C 7.867188 -11.859375 7.125 -11.46875 6.59375 -10.6875 C 6.0625 -9.914062 5.796875 -8.769531 5.796875 -7.25 L 5.796875 0 Z M 1.953125 0 "/></g></g></g><g fill="#1800ad" fill-opacity="1"><g transform="translate(525.426496, 372.115953)"><g/></g></g><g fill="#1800ad" fill-opacity="1"><g transform="translate(533.20093, 372.115953)"><g><path d="M 1.953125 -17.453125 L 1.953125 -20.28125 L 5.796875 -20.28125 L 5.796875 -17.453125 Z M 1.953125 0 L 1.953125 -14.78125 L 5.796875 -14.78125 L 5.796875 0 Z M 1.953125 0 "/></g></g></g><g fill="#1800ad" fill-opacity="1"><g transform="translate(540.975341, 372.115953)"><g><path d="M 11.53125 0 L 11.53125 -8.296875 C 11.53125 -10.890625 10.648438 -12.1875 8.890625 -12.1875 C 7.960938 -12.1875 7.210938 -11.785156 6.640625 -10.984375 C 6.078125 -10.191406 5.796875 -9.171875 5.796875 -7.921875 L 5.796875 0 L 1.953125 0 L 1.953125 -11.484375 C 1.953125 -12.273438 1.941406 -12.921875 1.921875 -13.421875 C 1.898438 -13.929688 1.875 -14.382812 1.84375 -14.78125 L 5.5 -14.78125 C 5.53125 -14.613281 5.566406 -14.148438 5.609375 -13.390625 C 5.660156 -12.640625 5.6875 -12.125 5.6875 -11.84375 L 5.734375 -11.84375 C 6.253906 -12.976562 6.90625 -13.800781 7.6875 -14.3125 C 8.476562 -14.820312 9.414062 -15.078125 10.5 -15.078125 C 12.0625 -15.078125 13.257812 -14.59375 14.09375 -13.625 C 14.9375 -12.65625 15.359375 -11.242188 15.359375 -9.390625 L 15.359375 0 Z M 11.53125 0 "/></g></g></g><g fill="#1800ad" fill-opacity="1"><g transform="translate(558.068134, 372.115953)"><g><path d="M 5.734375 0.25 C 4.609375 0.25 3.738281 -0.0546875 3.125 -0.671875 C 2.519531 -1.285156 2.21875 -2.21875 2.21875 -3.46875 L 2.21875 -12.1875 L 0.34375 -12.1875 L 0.34375 -14.78125 L 2.40625 -14.78125 L 3.609375 -18.25 L 6.015625 -18.25 L 6.015625 -14.78125 L 8.8125 -14.78125 L 8.8125 -12.1875 L 6.015625 -12.1875 L 6.015625 -4.515625 C 6.015625 -3.796875 6.148438 -3.265625 6.421875 -2.921875 C 6.691406 -2.578125 7.113281 -2.40625 7.6875 -2.40625 C 7.988281 -2.40625 8.421875 -2.46875 8.984375 -2.59375 L 8.984375 -0.21875 C 8.035156 0.09375 6.953125 0.25 5.734375 0.25 Z M 5.734375 0.25 "/></g></g></g><g fill="#1800ad" fill-opacity="1"><g transform="translate(567.386515, 372.115953)"><g><path d="M 8 0.265625 C 5.78125 0.265625 4.070312 -0.390625 2.875 -1.703125 C 1.6875 -3.015625 1.09375 -4.929688 1.09375 -7.453125 C 1.09375 -9.898438 1.695312 -11.78125 2.90625 -13.09375 C 4.125 -14.40625 5.84375 -15.0625 8.0625 -15.0625 C 10.1875 -15.0625 11.804688 -14.351562 12.921875 -12.9375 C 14.046875 -11.53125 14.609375 -9.472656 14.609375 -6.765625 L 14.609375 -6.65625 L 5.125 -6.65625 C 5.125 -5.21875 5.390625 -4.128906 5.921875 -3.390625 C 6.453125 -2.660156 7.210938 -2.296875 8.203125 -2.296875 C 9.554688 -2.296875 10.410156 -2.882812 10.765625 -4.0625 L 14.390625 -3.75 C 13.335938 -1.070312 11.207031 0.265625 8 0.265625 Z M 8 -12.640625 C 7.101562 -12.640625 6.410156 -12.320312 5.921875 -11.6875 C 5.429688 -11.0625 5.175781 -10.1875 5.15625 -9.0625 L 10.890625 -9.0625 C 10.816406 -10.25 10.53125 -11.140625 10.03125 -11.734375 C 9.53125 -12.335938 8.851562 -12.640625 8 -12.640625 Z M 8 -12.640625 "/></g></g></g><g fill="#1800ad" fill-opacity="1"><g transform="translate(582.949019, 372.115953)"><g><path d="M 1.953125 0 L 1.953125 -20.28125 L 5.796875 -20.28125 L 5.796875 0 Z M 1.953125 0 "/></g></g></g><g fill="#1800ad" fill-opacity="1"><g transform="translate(590.72343, 372.115953)"><g><path d="M 1.953125 0 L 1.953125 -20.28125 L 5.796875 -20.28125 L 5.796875 0 Z M 1.953125 0 "/></g></g></g><g fill="#1800ad" fill-opacity="1"><g transform="translate(598.497841, 372.115953)"><g><path d="M 1.953125 -17.453125 L 1.953125 -20.28125 L 5.796875 -20.28125 L 5.796875 -17.453125 Z M 1.953125 0 L 1.953125 -14.78125 L 5.796875 -14.78125 L 5.796875 0 Z M 1.953125 0 "/></g></g></g><g fill="#1800ad" fill-opacity="1"><g transform="translate(606.272275, 372.115953)"><g><path d="M 8.140625 5.9375 C 6.335938 5.9375 4.882812 5.585938 3.78125 4.890625 C 2.6875 4.203125 2.015625 3.222656 1.765625 1.953125 L 5.609375 1.5 C 5.742188 2.09375 6.035156 2.554688 6.484375 2.890625 C 6.929688 3.234375 7.519531 3.40625 8.25 3.40625 C 9.320312 3.40625 10.101562 3.078125 10.59375 2.421875 C 11.082031 1.765625 11.328125 0.789062 11.328125 -0.5 L 11.328125 -1.28125 L 11.359375 -2.75 L 11.328125 -2.75 C 10.484375 -0.9375 8.898438 -0.03125 6.578125 -0.03125 C 4.847656 -0.03125 3.507812 -0.675781 2.5625 -1.96875 C 1.613281 -3.257812 1.140625 -5.109375 1.140625 -7.515625 C 1.140625 -9.929688 1.628906 -11.796875 2.609375 -13.109375 C 3.585938 -14.421875 5.003906 -15.078125 6.859375 -15.078125 C 9.003906 -15.078125 10.492188 -14.1875 11.328125 -12.40625 L 11.390625 -12.40625 C 11.390625 -12.726562 11.410156 -13.160156 11.453125 -13.703125 C 11.492188 -14.253906 11.539062 -14.613281 11.59375 -14.78125 L 15.21875 -14.78125 C 15.164062 -13.800781 15.140625 -12.664062 15.140625 -11.375 L 15.140625 -0.453125 C 15.140625 1.648438 14.539062 3.238281 13.34375 4.3125 C 12.15625 5.394531 10.421875 5.9375 8.140625 5.9375 Z M 11.359375 -7.59375 C 11.359375 -9.113281 11.085938 -10.300781 10.546875 -11.15625 C 10.003906 -12.007812 9.226562 -12.4375 8.21875 -12.4375 C 6.175781 -12.4375 5.15625 -10.796875 5.15625 -7.515625 C 5.15625 -4.296875 6.171875 -2.6875 8.203125 -2.6875 C 9.222656 -2.6875 10.003906 -3.113281 10.546875 -3.96875 C 11.085938 -4.820312 11.359375 -6.03125 11.359375 -7.59375 Z M 11.359375 -7.59375 "/></g></g></g><g fill="#1800ad" fill-opacity="1"><g transform="translate(623.365068, 372.115953)"><g><path d="M 8 0.265625 C 5.78125 0.265625 4.070312 -0.390625 2.875 -1.703125 C 1.6875 -3.015625 1.09375 -4.929688 1.09375 -7.453125 C 1.09375 -9.898438 1.695312 -11.78125 2.90625 -13.09375 C 4.125 -14.40625 5.84375 -15.0625 8.0625 -15.0625 C 10.1875 -15.0625 11.804688 -14.351562 12.921875 -12.9375 C 14.046875 -11.53125 14.609375 -9.472656 14.609375 -6.765625 L 14.609375 -6.65625 L 5.125 -6.65625 C 5.125 -5.21875 5.390625 -4.128906 5.921875 -3.390625 C 6.453125 -2.660156 7.210938 -2.296875 8.203125 -2.296875 C 9.554688 -2.296875 10.410156 -2.882812 10.765625 -4.0625 L 14.390625 -3.75 C 13.335938 -1.070312 11.207031 0.265625 8 0.265625 Z M 8 -12.640625 C 7.101562 -12.640625 6.410156 -12.320312 5.921875 -11.6875 C 5.429688 -11.0625 5.175781 -10.1875 5.15625 -9.0625 L 10.890625 -9.0625 C 10.816406 -10.25 10.53125 -11.140625 10.03125 -11.734375 C 9.53125 -12.335938 8.851562 -12.640625 8 -12.640625 Z M 8 -12.640625 "/></g></g></g><g fill="#1800ad" fill-opacity="1"><g transform="translate(638.927571, 372.115953)"><g><path d="M 11.53125 0 L 11.53125 -8.296875 C 11.53125 -10.890625 10.648438 -12.1875 8.890625 -12.1875 C 7.960938 -12.1875 7.210938 -11.785156 6.640625 -10.984375 C 6.078125 -10.191406 5.796875 -9.171875 5.796875 -7.921875 L 5.796875 0 L 1.953125 0 L 1.953125 -11.484375 C 1.953125 -12.273438 1.941406 -12.921875 1.921875 -13.421875 C 1.898438 -13.929688 1.875 -14.382812 1.84375 -14.78125 L 5.5 -14.78125 C 5.53125 -14.613281 5.566406 -14.148438 5.609375 -13.390625 C 5.660156 -12.640625 5.6875 -12.125 5.6875 -11.84375 L 5.734375 -11.84375 C 6.253906 -12.976562 6.90625 -13.800781 7.6875 -14.3125 C 8.476562 -14.820312 9.414062 -15.078125 10.5 -15.078125 C 12.0625 -15.078125 13.257812 -14.59375 14.09375 -13.625 C 14.9375 -12.65625 15.359375 -11.242188 15.359375 -9.390625 L 15.359375 0 Z M 11.53125 0 "/></g></g></g><g fill="#1800ad" fill-opacity="1"><g transform="translate(656.020364, 372.115953)"><g><path d="M 5.734375 0.25 C 4.609375 0.25 3.738281 -0.0546875 3.125 -0.671875 C 2.519531 -1.285156 2.21875 -2.21875 2.21875 -3.46875 L 2.21875 -12.1875 L 0.34375 -12.1875 L 0.34375 -14.78125 L 2.40625 -14.78125 L 3.609375 -18.25 L 6.015625 -18.25 L 6.015625 -14.78125 L 8.8125 -14.78125 L 8.8125 -12.1875 L 6.015625 -12.1875 L 6.015625 -4.515625 C 6.015625 -3.796875 6.148438 -3.265625 6.421875 -2.921875 C 6.691406 -2.578125 7.113281 -2.40625 7.6875 -2.40625 C 7.988281 -2.40625 8.421875 -2.46875 8.984375 -2.59375 L 8.984375 -0.21875 C 8.035156 0.09375 6.953125 0.25 5.734375 0.25 Z M 5.734375 0.25 "/></g></g></g><g fill="#1800ad" fill-opacity="1"><g transform="translate(665.338723, 372.115953)"><g/></g></g><g fill="#1800ad" fill-opacity="1"><g transform="translate(673.113157, 372.115953)"><g><path d="M 1.875 0 L 1.875 -19.25 L 5.90625 -19.25 L 5.90625 0 Z M 1.875 0 "/></g></g></g><g fill="#1800ad" fill-opacity="1"><g transform="translate(680.887591, 372.115953)"><g><path d="M 10.5625 -16.140625 L 10.5625 0 L 6.53125 0 L 6.53125 -16.140625 L 0.3125 -16.140625 L 0.3125 -19.25 L 16.796875 -19.25 L 16.796875 -16.140625 Z M 10.5625 -16.140625 "/></g></g></g><g fill="#1800ad" fill-opacity="1"><g transform="translate(697.980384, 372.115953)"><g/></g></g><g fill="#1800ad" fill-opacity="1"><g transform="translate(705.754772, 372.115953)"><g><path d="M 5.375 0.265625 C 3.9375 0.265625 2.816406 -0.117188 2.015625 -0.890625 C 1.210938 -1.671875 0.8125 -2.769531 0.8125 -4.1875 C 0.8125 -5.71875 1.3125 -6.878906 2.3125 -7.671875 C 3.3125 -8.472656 4.757812 -8.882812 6.65625 -8.90625 L 9.84375 -8.96875 L 9.84375 -9.71875 C 9.84375 -10.675781 9.671875 -11.390625 9.328125 -11.859375 C 8.992188 -12.335938 8.441406 -12.578125 7.671875 -12.578125 C 6.960938 -12.578125 6.441406 -12.410156 6.109375 -12.078125 C 5.773438 -11.753906 5.570312 -11.222656 5.5 -10.484375 L 1.484375 -10.671875 C 1.734375 -12.109375 2.390625 -13.195312 3.453125 -13.9375 C 4.523438 -14.6875 5.988281 -15.0625 7.84375 -15.0625 C 9.707031 -15.0625 11.144531 -14.597656 12.15625 -13.671875 C 13.164062 -12.753906 13.671875 -11.445312 13.671875 -9.75 L 13.671875 -4.375 C 13.671875 -3.539062 13.765625 -2.96875 13.953125 -2.65625 C 14.140625 -2.34375 14.453125 -2.1875 14.890625 -2.1875 C 15.179688 -2.1875 15.460938 -2.210938 15.734375 -2.265625 L 15.734375 -0.1875 C 15.515625 -0.132812 15.3125 -0.0820312 15.125 -0.03125 C 14.945312 0.0078125 14.765625 0.0390625 14.578125 0.0625 C 14.398438 0.09375 14.207031 0.113281 14 0.125 C 13.789062 0.144531 13.550781 0.15625 13.28125 0.15625 C 12.3125 0.15625 11.597656 -0.078125 11.140625 -0.546875 C 10.679688 -1.015625 10.40625 -1.710938 10.3125 -2.640625 L 10.234375 -2.640625 C 9.160156 -0.703125 7.539062 0.265625 5.375 0.265625 Z M 9.84375 -6.84375 L 7.875 -6.8125 C 6.976562 -6.78125 6.34375 -6.679688 5.96875 -6.515625 C 5.59375 -6.359375 5.304688 -6.113281 5.109375 -5.78125 C 4.921875 -5.457031 4.828125 -5.023438 4.828125 -4.484375 C 4.828125 -3.785156 4.988281 -3.265625 5.3125 -2.921875 C 5.632812 -2.578125 6.0625 -2.40625 6.59375 -2.40625 C 7.195312 -2.40625 7.742188 -2.566406 8.234375 -2.890625 C 8.734375 -3.222656 9.125 -3.675781 9.40625 -4.25 C 9.695312 -4.832031 9.84375 -5.445312 9.84375 -6.09375 Z M 9.84375 -6.84375 "/></g></g></g><g fill="#1800ad" fill-opacity="1"><g transform="translate(721.317275, 372.115953)"><g><path d="M 11.53125 0 L 11.53125 -8.296875 C 11.53125 -10.890625 10.648438 -12.1875 8.890625 -12.1875 C 7.960938 -12.1875 7.210938 -11.785156 6.640625 -10.984375 C 6.078125 -10.191406 5.796875 -9.171875 5.796875 -7.921875 L 5.796875 0 L 1.953125 0 L 1.953125 -11.484375 C 1.953125 -12.273438 1.941406 -12.921875 1.921875 -13.421875 C 1.898438 -13.929688 1.875 -14.382812 1.84375 -14.78125 L 5.5 -14.78125 C 5.53125 -14.613281 5.566406 -14.148438 5.609375 -13.390625 C 5.660156 -12.640625 5.6875 -12.125 5.6875 -11.84375 L 5.734375 -11.84375 C 6.253906 -12.976562 6.90625 -13.800781 7.6875 -14.3125 C 8.476562 -14.820312 9.414062 -15.078125 10.5 -15.078125 C 12.0625 -15.078125 13.257812 -14.59375 14.09375 -13.625 C 14.9375 -12.65625 15.359375 -11.242188 15.359375 -9.390625 L 15.359375 0 Z M 11.53125 0 "/></g></g></g><g fill="#1800ad" fill-opacity="1"><g transform="translate(738.410068, 372.115953)"><g><path d="M 11.53125 0 C 11.5 -0.132812 11.457031 -0.476562 11.40625 -1.03125 C 11.351562 -1.582031 11.328125 -2.039062 11.328125 -2.40625 L 11.265625 -2.40625 C 10.441406 -0.625 8.867188 0.265625 6.546875 0.265625 C 4.828125 0.265625 3.492188 -0.398438 2.546875 -1.734375 C 1.609375 -3.078125 1.140625 -4.957031 1.140625 -7.375 C 1.140625 -9.820312 1.632812 -11.710938 2.625 -13.046875 C 3.613281 -14.390625 5.015625 -15.0625 6.828125 -15.0625 C 7.878906 -15.0625 8.785156 -14.84375 9.546875 -14.40625 C 10.304688 -13.96875 10.890625 -13.316406 11.296875 -12.453125 L 11.328125 -12.453125 L 11.296875 -14.875 L 11.296875 -20.28125 L 15.140625 -20.28125 L 15.140625 -3.21875 C 15.140625 -2.3125 15.175781 -1.238281 15.25 0 Z M 11.359375 -7.46875 C 11.359375 -9.0625 11.085938 -10.289062 10.546875 -11.15625 C 10.015625 -12.019531 9.234375 -12.453125 8.203125 -12.453125 C 7.171875 -12.453125 6.40625 -12.035156 5.90625 -11.203125 C 5.40625 -10.367188 5.15625 -9.09375 5.15625 -7.375 C 5.15625 -4.019531 6.160156 -2.34375 8.171875 -2.34375 C 9.179688 -2.34375 9.960938 -2.785156 10.515625 -3.671875 C 11.078125 -4.566406 11.359375 -5.832031 11.359375 -7.46875 Z M 11.359375 -7.46875 "/></g></g></g><g fill="#1800ad" fill-opacity="1"><g transform="translate(755.502861, 372.115953)"><g/></g></g><g fill="#1800ad" fill-opacity="1"><g transform="translate(763.277295, 372.115953)"><g><path d="M 11.53125 0 C 11.5 -0.132812 11.457031 -0.476562 11.40625 -1.03125 C 11.351562 -1.582031 11.328125 -2.039062 11.328125 -2.40625 L 11.265625 -2.40625 C 10.441406 -0.625 8.867188 0.265625 6.546875 0.265625 C 4.828125 0.265625 3.492188 -0.398438 2.546875 -1.734375 C 1.609375 -3.078125 1.140625 -4.957031 1.140625 -7.375 C 1.140625 -9.820312 1.632812 -11.710938 2.625 -13.046875 C 3.613281 -14.390625 5.015625 -15.0625 6.828125 -15.0625 C 7.878906 -15.0625 8.785156 -14.84375 9.546875 -14.40625 C 10.304688 -13.96875 10.890625 -13.316406 11.296875 -12.453125 L 11.328125 -12.453125 L 11.296875 -14.875 L 11.296875 -20.28125 L 15.140625 -20.28125 L 15.140625 -3.21875 C 15.140625 -2.3125 15.175781 -1.238281 15.25 0 Z M 11.359375 -7.46875 C 11.359375 -9.0625 11.085938 -10.289062 10.546875 -11.15625 C 10.015625 -12.019531 9.234375 -12.453125 8.203125 -12.453125 C 7.171875 -12.453125 6.40625 -12.035156 5.90625 -11.203125 C 5.40625 -10.367188 5.15625 -9.09375 5.15625 -7.375 C 5.15625 -4.019531 6.160156 -2.34375 8.171875 -2.34375 C 9.179688 -2.34375 9.960938 -2.785156 10.515625 -3.671875 C 11.078125 -4.566406 11.359375 -5.832031 11.359375 -7.46875 Z M 11.359375 -7.46875 "/></g></g></g><g fill="#1800ad" fill-opacity="1"><g transform="translate(780.370088, 372.115953)"><g><path d="M 1.953125 -17.453125 L 1.953125 -20.28125 L 5.796875 -20.28125 L 5.796875 -17.453125 Z M 1.953125 0 L 1.953125 -14.78125 L 5.796875 -14.78125 L 5.796875 0 Z M 1.953125 0 "/></g></g></g><g fill="#1800ad" fill-opacity="1"><g transform="translate(788.144522, 372.115953)"><g><path d="M 8.140625 5.9375 C 6.335938 5.9375 4.882812 5.585938 3.78125 4.890625 C 2.6875 4.203125 2.015625 3.222656 1.765625 1.953125 L 5.609375 1.5 C 5.742188 2.09375 6.035156 2.554688 6.484375 2.890625 C 6.929688 3.234375 7.519531 3.40625 8.25 3.40625 C 9.320312 3.40625 10.101562 3.078125 10.59375 2.421875 C 11.082031 1.765625 11.328125 0.789062 11.328125 -0.5 L 11.328125 -1.28125 L 11.359375 -2.75 L 11.328125 -2.75 C 10.484375 -0.9375 8.898438 -0.03125 6.578125 -0.03125 C 4.847656 -0.03125 3.507812 -0.675781 2.5625 -1.96875 C 1.613281 -3.257812 1.140625 -5.109375 1.140625 -7.515625 C 1.140625 -9.929688 1.628906 -11.796875 2.609375 -13.109375 C 3.585938 -14.421875 5.003906 -15.078125 6.859375 -15.078125 C 9.003906 -15.078125 10.492188 -14.1875 11.328125 -12.40625 L 11.390625 -12.40625 C 11.390625 -12.726562 11.410156 -13.160156 11.453125 -13.703125 C 11.492188 -14.253906 11.539062 -14.613281 11.59375 -14.78125 L 15.21875 -14.78125 C 15.164062 -13.800781 15.140625 -12.664062 15.140625 -11.375 L 15.140625 -0.453125 C 15.140625 1.648438 14.539062 3.238281 13.34375 4.3125 C 12.15625 5.394531 10.421875 5.9375 8.140625 5.9375 Z M 11.359375 -7.59375 C 11.359375 -9.113281 11.085938 -10.300781 10.546875 -11.15625 C 10.003906 -12.007812 9.226562 -12.4375 8.21875 -12.4375 C 6.175781 -12.4375 5.15625 -10.796875 5.15625 -7.515625 C 5.15625 -4.296875 6.171875 -2.6875 8.203125 -2.6875 C 9.222656 -2.6875 10.003906 -3.113281 10.546875 -3.96875 C 11.085938 -4.820312 11.359375 -6.03125 11.359375 -7.59375 Z M 11.359375 -7.59375 "/></g></g></g><g fill="#1800ad" fill-opacity="1"><g transform="translate(805.237315, 372.115953)"><g><path d="M 1.953125 -17.453125 L 1.953125 -20.28125 L 5.796875 -20.28125 L 5.796875 -17.453125 Z M 1.953125 0 L 1.953125 -14.78125 L 5.796875 -14.78125 L 5.796875 0 Z M 1.953125 0 "/></g></g></g><g fill="#1800ad" fill-opacity="1"><g transform="translate(813.011749, 372.115953)"><g><path d="M 5.734375 0.25 C 4.609375 0.25 3.738281 -0.0546875 3.125 -0.671875 C 2.519531 -1.285156 2.21875 -2.21875 2.21875 -3.46875 L 2.21875 -12.1875 L 0.34375 -12.1875 L 0.34375 -14.78125 L 2.40625 -14.78125 L 3.609375 -18.25 L 6.015625 -18.25 L 6.015625 -14.78125 L 8.8125 -14.78125 L 8.8125 -12.1875 L 6.015625 -12.1875 L 6.015625 -4.515625 C 6.015625 -3.796875 6.148438 -3.265625 6.421875 -2.921875 C 6.691406 -2.578125 7.113281 -2.40625 7.6875 -2.40625 C 7.988281 -2.40625 8.421875 -2.46875 8.984375 -2.59375 L 8.984375 -0.21875 C 8.035156 0.09375 6.953125 0.25 5.734375 0.25 Z M 5.734375 0.25 "/></g></g></g><g fill="#1800ad" fill-opacity="1"><g transform="translate(822.330107, 372.115953)"><g><path d="M 5.375 0.265625 C 3.9375 0.265625 2.816406 -0.117188 2.015625 -0.890625 C 1.210938 -1.671875 0.8125 -2.769531 0.8125 -4.1875 C 0.8125 -5.71875 1.3125 -6.878906 2.3125 -7.671875 C 3.3125 -8.472656 4.757812 -8.882812 6.65625 -8.90625 L 9.84375 -8.96875 L 9.84375 -9.71875 C 9.84375 -10.675781 9.671875 -11.390625 9.328125 -11.859375 C 8.992188 -12.335938 8.441406 -12.578125 7.671875 -12.578125 C 6.960938 -12.578125 6.441406 -12.410156 6.109375 -12.078125 C 5.773438 -11.753906 5.570312 -11.222656 5.5 -10.484375 L 1.484375 -10.671875 C 1.734375 -12.109375 2.390625 -13.195312 3.453125 -13.9375 C 4.523438 -14.6875 5.988281 -15.0625 7.84375 -15.0625 C 9.707031 -15.0625 11.144531 -14.597656 12.15625 -13.671875 C 13.164062 -12.753906 13.671875 -11.445312 13.671875 -9.75 L 13.671875 -4.375 C 13.671875 -3.539062 13.765625 -2.96875 13.953125 -2.65625 C 14.140625 -2.34375 14.453125 -2.1875 14.890625 -2.1875 C 15.179688 -2.1875 15.460938 -2.210938 15.734375 -2.265625 L 15.734375 -0.1875 C 15.515625 -0.132812 15.3125 -0.0820312 15.125 -0.03125 C 14.945312 0.0078125 14.765625 0.0390625 14.578125 0.0625 C 14.398438 0.09375 14.207031 0.113281 14 0.125 C 13.789062 0.144531 13.550781 0.15625 13.28125 0.15625 C 12.3125 0.15625 11.597656 -0.078125 11.140625 -0.546875 C 10.679688 -1.015625 10.40625 -1.710938 10.3125 -2.640625 L 10.234375 -2.640625 C 9.160156 -0.703125 7.539062 0.265625 5.375 0.265625 Z M 9.84375 -6.84375 L 7.875 -6.8125 C 6.976562 -6.78125 6.34375 -6.679688 5.96875 -6.515625 C 5.59375 -6.359375 5.304688 -6.113281 5.109375 -5.78125 C 4.921875 -5.457031 4.828125 -5.023438 4.828125 -4.484375 C 4.828125 -3.785156 4.988281 -3.265625 5.3125 -2.921875 C 5.632812 -2.578125 6.0625 -2.40625 6.59375 -2.40625 C 7.195312 -2.40625 7.742188 -2.566406 8.234375 -2.890625 C 8.734375 -3.222656 9.125 -3.675781 9.40625 -4.25 C 9.695312 -4.832031 9.84375 -5.445312 9.84375 -6.09375 Z M 9.84375 -6.84375 "/></g></g></g><g fill="#1800ad" fill-opacity="1"><g transform="translate(837.89261, 372.115953)"><g><path d="M 1.953125 0 L 1.953125 -20.28125 L 5.796875 -20.28125 L 5.796875 0 Z M 1.953125 0 "/></g></g></g><g fill="#1800ad" fill-opacity="1"><g transform="translate(426.172997, 411.096927)"><g><path d="M 5.734375 0.25 C 4.609375 0.25 3.738281 -0.0546875 3.125 -0.671875 C 2.519531 -1.285156 2.21875 -2.21875 2.21875 -3.46875 L 2.21875 -12.1875 L 0.34375 -12.1875 L 0.34375 -14.78125 L 2.40625 -14.78125 L 3.609375 -18.25 L 6.015625 -18.25 L 6.015625 -14.78125 L 8.8125 -14.78125 L 8.8125 -12.1875 L 6.015625 -12.1875 L 6.015625 -4.515625 C 6.015625 -3.796875 6.148438 -3.265625 6.421875 -2.921875 C 6.691406 -2.578125 7.113281 -2.40625 7.6875 -2.40625 C 7.988281 -2.40625 8.421875 -2.46875 8.984375 -2.59375 L 8.984375 -0.21875 C 8.035156 0.09375 6.953125 0.25 5.734375 0.25 Z M 5.734375 0.25 "/></g></g></g><g fill="#1800ad" fill-opacity="1"><g transform="translate(435.491366, 411.096927)"><g><path d="M 1.953125 0 L 1.953125 -11.3125 C 1.953125 -12.125 1.941406 -12.800781 1.921875 -13.34375 C 1.898438 -13.882812 1.875 -14.363281 1.84375 -14.78125 L 5.5 -14.78125 C 5.53125 -14.613281 5.566406 -14.113281 5.609375 -13.28125 C 5.660156 -12.445312 5.6875 -11.894531 5.6875 -11.625 L 5.734375 -11.625 C 6.109375 -12.664062 6.441406 -13.394531 6.734375 -13.8125 C 7.023438 -14.238281 7.367188 -14.554688 7.765625 -14.765625 C 8.171875 -14.972656 8.675781 -15.078125 9.28125 -15.078125 C 9.769531 -15.078125 10.164062 -15.003906 10.46875 -14.859375 L 10.46875 -11.65625 C 9.84375 -11.789062 9.296875 -11.859375 8.828125 -11.859375 C 7.867188 -11.859375 7.125 -11.46875 6.59375 -10.6875 C 6.0625 -9.914062 5.796875 -8.769531 5.796875 -7.25 L 5.796875 0 Z M 1.953125 0 "/></g></g></g><g fill="#1800ad" fill-opacity="1"><g transform="translate(446.381021, 411.096927)"><g><path d="M 5.375 0.265625 C 3.9375 0.265625 2.816406 -0.117188 2.015625 -0.890625 C 1.210938 -1.671875 0.8125 -2.769531 0.8125 -4.1875 C 0.8125 -5.71875 1.3125 -6.878906 2.3125 -7.671875 C 3.3125 -8.472656 4.757812 -8.882812 6.65625 -8.90625 L 9.84375 -8.96875 L 9.84375 -9.71875 C 9.84375 -10.675781 9.671875 -11.390625 9.328125 -11.859375 C 8.992188 -12.335938 8.441406 -12.578125 7.671875 -12.578125 C 6.960938 -12.578125 6.441406 -12.410156 6.109375 -12.078125 C 5.773438 -11.753906 5.570312 -11.222656 5.5 -10.484375 L 1.484375 -10.671875 C 1.734375 -12.109375 2.390625 -13.195312 3.453125 -13.9375 C 4.523438 -14.6875 5.988281 -15.0625 7.84375 -15.0625 C 9.707031 -15.0625 11.144531 -14.597656 12.15625 -13.671875 C 13.164062 -12.753906 13.671875 -11.445312 13.671875 -9.75 L 13.671875 -4.375 C 13.671875 -3.539062 13.765625 -2.96875 13.953125 -2.65625 C 14.140625 -2.34375 14.453125 -2.1875 14.890625 -2.1875 C 15.179688 -2.1875 15.460938 -2.210938 15.734375 -2.265625 L 15.734375 -0.1875 C 15.515625 -0.132812 15.3125 -0.0820312 15.125 -0.03125 C 14.945312 0.0078125 14.765625 0.0390625 14.578125 0.0625 C 14.398438 0.09375 14.207031 0.113281 14 0.125 C 13.789062 0.144531 13.550781 0.15625 13.28125 0.15625 C 12.3125 0.15625 11.597656 -0.078125 11.140625 -0.546875 C 10.679688 -1.015625 10.40625 -1.710938 10.3125 -2.640625 L 10.234375 -2.640625 C 9.160156 -0.703125 7.539062 0.265625 5.375 0.265625 Z M 9.84375 -6.84375 L 7.875 -6.8125 C 6.976562 -6.78125 6.34375 -6.679688 5.96875 -6.515625 C 5.59375 -6.359375 5.304688 -6.113281 5.109375 -5.78125 C 4.921875 -5.457031 4.828125 -5.023438 4.828125 -4.484375 C 4.828125 -3.785156 4.988281 -3.265625 5.3125 -2.921875 C 5.632812 -2.578125 6.0625 -2.40625 6.59375 -2.40625 C 7.195312 -2.40625 7.742188 -2.566406 8.234375 -2.890625 C 8.734375 -3.222656 9.125 -3.675781 9.40625 -4.25 C 9.695312 -4.832031 9.84375 -5.445312 9.84375 -6.09375 Z M 9.84375 -6.84375 "/></g></g></g><g fill="#1800ad" fill-opacity="1"><g transform="translate(461.943524, 411.096927)"><g><path d="M 11.53125 0 L 11.53125 -8.296875 C 11.53125 -10.890625 10.648438 -12.1875 8.890625 -12.1875 C 7.960938 -12.1875 7.210938 -11.785156 6.640625 -10.984375 C 6.078125 -10.191406 5.796875 -9.171875 5.796875 -7.921875 L 5.796875 0 L 1.953125 0 L 1.953125 -11.484375 C 1.953125 -12.273438 1.941406 -12.921875 1.921875 -13.421875 C 1.898438 -13.929688 1.875 -14.382812 1.84375 -14.78125 L 5.5 -14.78125 C 5.53125 -14.613281 5.566406 -14.148438 5.609375 -13.390625 C 5.660156 -12.640625 5.6875 -12.125 5.6875 -11.84375 L 5.734375 -11.84375 C 6.253906 -12.976562 6.90625 -13.800781 7.6875 -14.3125 C 8.476562 -14.820312 9.414062 -15.078125 10.5 -15.078125 C 12.0625 -15.078125 13.257812 -14.59375 14.09375 -13.625 C 14.9375 -12.65625 15.359375 -11.242188 15.359375 -9.390625 L 15.359375 0 Z M 11.53125 0 "/></g></g></g><g fill="#1800ad" fill-opacity="1"><g transform="translate(479.036317, 411.096927)"><g><path d="M 14.421875 -4.3125 C 14.421875 -2.882812 13.832031 -1.765625 12.65625 -0.953125 C 11.488281 -0.140625 9.867188 0.265625 7.796875 0.265625 C 5.765625 0.265625 4.207031 -0.0507812 3.125 -0.6875 C 2.050781 -1.332031 1.335938 -2.332031 0.984375 -3.6875 L 4.359375 -4.1875 C 4.546875 -3.488281 4.875 -2.992188 5.34375 -2.703125 C 5.8125 -2.410156 6.628906 -2.265625 7.796875 -2.265625 C 8.878906 -2.265625 9.664062 -2.398438 10.15625 -2.671875 C 10.644531 -2.953125 10.890625 -3.382812 10.890625 -3.96875 C 10.890625 -4.4375 10.691406 -4.804688 10.296875 -5.078125 C 9.898438 -5.359375 9.226562 -5.597656 8.28125 -5.796875 C 6.113281 -6.222656 4.648438 -6.617188 3.890625 -6.984375 C 3.140625 -7.359375 2.566406 -7.835938 2.171875 -8.421875 C 1.773438 -9.015625 1.578125 -9.738281 1.578125 -10.59375 C 1.578125 -12 2.117188 -13.097656 3.203125 -13.890625 C 4.296875 -14.679688 5.835938 -15.078125 7.828125 -15.078125 C 9.585938 -15.078125 11 -14.734375 12.0625 -14.046875 C 13.132812 -13.359375 13.804688 -12.367188 14.078125 -11.078125 L 10.671875 -10.71875 C 10.554688 -11.320312 10.285156 -11.769531 9.859375 -12.0625 C 9.429688 -12.363281 8.753906 -12.515625 7.828125 -12.515625 C 6.921875 -12.515625 6.238281 -12.394531 5.78125 -12.15625 C 5.320312 -11.925781 5.09375 -11.539062 5.09375 -11 C 5.09375 -10.570312 5.269531 -10.234375 5.625 -9.984375 C 5.976562 -9.734375 6.566406 -9.523438 7.390625 -9.359375 C 8.546875 -9.117188 9.570312 -8.875 10.46875 -8.625 C 11.363281 -8.375 12.082031 -8.078125 12.625 -7.734375 C 13.175781 -7.390625 13.613281 -6.945312 13.9375 -6.40625 C 14.257812 -5.863281 14.421875 -5.164062 14.421875 -4.3125 Z M 14.421875 -4.3125 "/></g></g></g><g fill="#1800ad" fill-opacity="1"><g transform="translate(494.59882, 411.096927)"><g><path d="M 6.46875 -12.1875 L 6.46875 0 L 2.640625 0 L 2.640625 -12.1875 L 0.484375 -12.1875 L 0.484375 -14.78125 L 2.640625 -14.78125 L 2.640625 -16.328125 C 2.640625 -17.671875 2.992188 -18.664062 3.703125 -19.3125 C 4.410156 -19.957031 5.488281 -20.28125 6.9375 -20.28125 C 7.65625 -20.28125 8.46875 -20.207031 9.375 -20.0625 L 9.375 -17.578125 C 9 -17.660156 8.625 -17.703125 8.25 -17.703125 C 7.59375 -17.703125 7.128906 -17.570312 6.859375 -17.3125 C 6.597656 -17.0625 6.46875 -16.609375 6.46875 -15.953125 L 6.46875 -14.78125 L 9.375 -14.78125 L 9.375 -12.1875 Z M 6.46875 -12.1875 "/></g></g></g><g fill="#1800ad" fill-opacity="1"><g transform="translate(503.91719, 411.096927)"><g><path d="M 16 -7.40625 C 16 -5.007812 15.332031 -3.128906 14 -1.765625 C 12.675781 -0.410156 10.835938 0.265625 8.484375 0.265625 C 6.179688 0.265625 4.375 -0.414062 3.0625 -1.78125 C 1.75 -3.144531 1.09375 -5.019531 1.09375 -7.40625 C 1.09375 -9.78125 1.75 -11.648438 3.0625 -13.015625 C 4.375 -14.378906 6.207031 -15.0625 8.5625 -15.0625 C 10.976562 -15.0625 12.820312 -14.398438 14.09375 -13.078125 C 15.363281 -11.765625 16 -9.875 16 -7.40625 Z M 11.984375 -7.40625 C 11.984375 -9.164062 11.695312 -10.441406 11.125 -11.234375 C 10.550781 -12.023438 9.71875 -12.421875 8.625 -12.421875 C 6.289062 -12.421875 5.125 -10.75 5.125 -7.40625 C 5.125 -5.757812 5.40625 -4.503906 5.96875 -3.640625 C 6.539062 -2.773438 7.363281 -2.34375 8.4375 -2.34375 C 10.800781 -2.34375 11.984375 -4.03125 11.984375 -7.40625 Z M 11.984375 -7.40625 "/></g></g></g><g fill="#1800ad" fill-opacity="1"><g transform="translate(521.009983, 411.096927)"><g><path d="M 1.953125 0 L 1.953125 -11.3125 C 1.953125 -12.125 1.941406 -12.800781 1.921875 -13.34375 C 1.898438 -13.882812 1.875 -14.363281 1.84375 -14.78125 L 5.5 -14.78125 C 5.53125 -14.613281 5.566406 -14.113281 5.609375 -13.28125 C 5.660156 -12.445312 5.6875 -11.894531 5.6875 -11.625 L 5.734375 -11.625 C 6.109375 -12.664062 6.441406 -13.394531 6.734375 -13.8125 C 7.023438 -14.238281 7.367188 -14.554688 7.765625 -14.765625 C 8.171875 -14.972656 8.675781 -15.078125 9.28125 -15.078125 C 9.769531 -15.078125 10.164062 -15.003906 10.46875 -14.859375 L 10.46875 -11.65625 C 9.84375 -11.789062 9.296875 -11.859375 8.828125 -11.859375 C 7.867188 -11.859375 7.125 -11.46875 6.59375 -10.6875 C 6.0625 -9.914062 5.796875 -8.769531 5.796875 -7.25 L 5.796875 0 Z M 1.953125 0 "/></g></g></g><g fill="#1800ad" fill-opacity="1"><g transform="translate(531.899638, 411.096927)"><g><path d="M 10.65625 0 L 10.65625 -8.296875 C 10.65625 -10.890625 9.910156 -12.1875 8.421875 -12.1875 C 7.640625 -12.1875 7.003906 -11.789062 6.515625 -11 C 6.035156 -10.207031 5.796875 -9.179688 5.796875 -7.921875 L 5.796875 0 L 1.953125 0 L 1.953125 -11.484375 C 1.953125 -12.273438 1.941406 -12.921875 1.921875 -13.421875 C 1.898438 -13.929688 1.875 -14.382812 1.84375 -14.78125 L 5.5 -14.78125 C 5.53125 -14.613281 5.566406 -14.148438 5.609375 -13.390625 C 5.660156 -12.640625 5.6875 -12.125 5.6875 -11.84375 L 5.734375 -11.84375 C 6.210938 -12.976562 6.800781 -13.800781 7.5 -14.3125 C 8.207031 -14.820312 9.054688 -15.078125 10.046875 -15.078125 C 12.304688 -15.078125 13.675781 -14 14.15625 -11.84375 L 14.234375 -11.84375 C 14.734375 -12.988281 15.332031 -13.8125 16.03125 -14.3125 C 16.738281 -14.820312 17.632812 -15.078125 18.71875 -15.078125 C 20.15625 -15.078125 21.25 -14.585938 22 -13.609375 C 22.757812 -12.628906 23.140625 -11.222656 23.140625 -9.390625 L 23.140625 0 L 19.328125 0 L 19.328125 -8.296875 C 19.328125 -10.890625 18.582031 -12.1875 17.09375 -12.1875 C 16.34375 -12.1875 15.726562 -11.820312 15.25 -11.09375 C 14.769531 -10.375 14.507812 -9.378906 14.46875 -8.109375 L 14.46875 0 Z M 10.65625 0 "/></g></g></g><g fill="#1800ad" fill-opacity="1"><g transform="translate(556.780511, 411.096927)"><g><path d="M 5.375 0.265625 C 3.9375 0.265625 2.816406 -0.117188 2.015625 -0.890625 C 1.210938 -1.671875 0.8125 -2.769531 0.8125 -4.1875 C 0.8125 -5.71875 1.3125 -6.878906 2.3125 -7.671875 C 3.3125 -8.472656 4.757812 -8.882812 6.65625 -8.90625 L 9.84375 -8.96875 L 9.84375 -9.71875 C 9.84375 -10.675781 9.671875 -11.390625 9.328125 -11.859375 C 8.992188 -12.335938 8.441406 -12.578125 7.671875 -12.578125 C 6.960938 -12.578125 6.441406 -12.410156 6.109375 -12.078125 C 5.773438 -11.753906 5.570312 -11.222656 5.5 -10.484375 L 1.484375 -10.671875 C 1.734375 -12.109375 2.390625 -13.195312 3.453125 -13.9375 C 4.523438 -14.6875 5.988281 -15.0625 7.84375 -15.0625 C 9.707031 -15.0625 11.144531 -14.597656 12.15625 -13.671875 C 13.164062 -12.753906 13.671875 -11.445312 13.671875 -9.75 L 13.671875 -4.375 C 13.671875 -3.539062 13.765625 -2.96875 13.953125 -2.65625 C 14.140625 -2.34375 14.453125 -2.1875 14.890625 -2.1875 C 15.179688 -2.1875 15.460938 -2.210938 15.734375 -2.265625 L 15.734375 -0.1875 C 15.515625 -0.132812 15.3125 -0.0820312 15.125 -0.03125 C 14.945312 0.0078125 14.765625 0.0390625 14.578125 0.0625 C 14.398438 0.09375 14.207031 0.113281 14 0.125 C 13.789062 0.144531 13.550781 0.15625 13.28125 0.15625 C 12.3125 0.15625 11.597656 -0.078125 11.140625 -0.546875 C 10.679688 -1.015625 10.40625 -1.710938 10.3125 -2.640625 L 10.234375 -2.640625 C 9.160156 -0.703125 7.539062 0.265625 5.375 0.265625 Z M 9.84375 -6.84375 L 7.875 -6.8125 C 6.976562 -6.78125 6.34375 -6.679688 5.96875 -6.515625 C 5.59375 -6.359375 5.304688 -6.113281 5.109375 -5.78125 C 4.921875 -5.457031 4.828125 -5.023438 4.828125 -4.484375 C 4.828125 -3.785156 4.988281 -3.265625 5.3125 -2.921875 C 5.632812 -2.578125 6.0625 -2.40625 6.59375 -2.40625 C 7.195312 -2.40625 7.742188 -2.566406 8.234375 -2.890625 C 8.734375 -3.222656 9.125 -3.675781 9.40625 -4.25 C 9.695312 -4.832031 9.84375 -5.445312 9.84375 -6.09375 Z M 9.84375 -6.84375 "/></g></g></g><g fill="#1800ad" fill-opacity="1"><g transform="translate(572.343014, 411.096927)"><g><path d="M 5.734375 0.25 C 4.609375 0.25 3.738281 -0.0546875 3.125 -0.671875 C 2.519531 -1.285156 2.21875 -2.21875 2.21875 -3.46875 L 2.21875 -12.1875 L 0.34375 -12.1875 L 0.34375 -14.78125 L 2.40625 -14.78125 L 3.609375 -18.25 L 6.015625 -18.25 L 6.015625 -14.78125 L 8.8125 -14.78125 L 8.8125 -12.1875 L 6.015625 -12.1875 L 6.015625 -4.515625 C 6.015625 -3.796875 6.148438 -3.265625 6.421875 -2.921875 C 6.691406 -2.578125 7.113281 -2.40625 7.6875 -2.40625 C 7.988281 -2.40625 8.421875 -2.46875 8.984375 -2.59375 L 8.984375 -0.21875 C 8.035156 0.09375 6.953125 0.25 5.734375 0.25 Z M 5.734375 0.25 "/></g></g></g><g fill="#1800ad" fill-opacity="1"><g transform="translate(581.661384, 411.096927)"><g><path d="M 1.953125 -17.453125 L 1.953125 -20.28125 L 5.796875 -20.28125 L 5.796875 -17.453125 Z M 1.953125 0 L 1.953125 -14.78125 L 5.796875 -14.78125 L 5.796875 0 Z M 1.953125 0 "/></g></g></g><g fill="#1800ad" fill-opacity="1"><g transform="translate(589.435806, 411.096927)"><g><path d="M 16 -7.40625 C 16 -5.007812 15.332031 -3.128906 14 -1.765625 C 12.675781 -0.410156 10.835938 0.265625 8.484375 0.265625 C 6.179688 0.265625 4.375 -0.414062 3.0625 -1.78125 C 1.75 -3.144531 1.09375 -5.019531 1.09375 -7.40625 C 1.09375 -9.78125 1.75 -11.648438 3.0625 -13.015625 C 4.375 -14.378906 6.207031 -15.0625 8.5625 -15.0625 C 10.976562 -15.0625 12.820312 -14.398438 14.09375 -13.078125 C 15.363281 -11.765625 16 -9.875 16 -7.40625 Z M 11.984375 -7.40625 C 11.984375 -9.164062 11.695312 -10.441406 11.125 -11.234375 C 10.550781 -12.023438 9.71875 -12.421875 8.625 -12.421875 C 6.289062 -12.421875 5.125 -10.75 5.125 -7.40625 C 5.125 -5.757812 5.40625 -4.503906 5.96875 -3.640625 C 6.539062 -2.773438 7.363281 -2.34375 8.4375 -2.34375 C 10.800781 -2.34375 11.984375 -4.03125 11.984375 -7.40625 Z M 11.984375 -7.40625 "/></g></g></g><g fill="#1800ad" fill-opacity="1"><g transform="translate(606.528599, 411.096927)"><g><path d="M 11.53125 0 L 11.53125 -8.296875 C 11.53125 -10.890625 10.648438 -12.1875 8.890625 -12.1875 C 7.960938 -12.1875 7.210938 -11.785156 6.640625 -10.984375 C 6.078125 -10.191406 5.796875 -9.171875 5.796875 -7.921875 L 5.796875 0 L 1.953125 0 L 1.953125 -11.484375 C 1.953125 -12.273438 1.941406 -12.921875 1.921875 -13.421875 C 1.898438 -13.929688 1.875 -14.382812 1.84375 -14.78125 L 5.5 -14.78125 C 5.53125 -14.613281 5.566406 -14.148438 5.609375 -13.390625 C 5.660156 -12.640625 5.6875 -12.125 5.6875 -11.84375 L 5.734375 -11.84375 C 6.253906 -12.976562 6.90625 -13.800781 7.6875 -14.3125 C 8.476562 -14.820312 9.414062 -15.078125 10.5 -15.078125 C 12.0625 -15.078125 13.257812 -14.59375 14.09375 -13.625 C 14.9375 -12.65625 15.359375 -11.242188 15.359375 -9.390625 L 15.359375 0 Z M 11.53125 0 "/></g></g></g><g fill="#1800ad" fill-opacity="1"><g transform="translate(623.62138, 411.096927)"><g><path d="M 1.90625 0 L 1.90625 -4.171875 L 5.84375 -4.171875 L 5.84375 0 Z M 1.90625 0 "/></g></g></g></svg>