<svg xmlns="http://www.w3.org/2000/svg" xmlns:xlink="http://www.w3.org/1999/xlink" width="1366" zoomAndPan="magnify" viewBox="0 0 1024.5 576" height="768" preserveAspectRatio="xMidYMid meet" version="1.0"><defs><g/><clipPath id="b373c1901f"><path d="M 152 232 L 226 232 L 226 331 L 152 331 Z M 152 232 " clip-rule="nonzero"/></clipPath><clipPath id="af43474629"><path d="M 200.386719 225.515625 L 232.125 244.195312 L 177.535156 336.9375 L 145.796875 318.253906 Z M 200.386719 225.515625 " clip-rule="nonzero"/></clipPath><clipPath id="1114137aa7"><path d="M 216.257812 234.855469 C 220.464844 237.332031 223.515625 241.382812 224.742188 246.109375 C 225.964844 250.835938 225.261719 255.859375 222.785156 260.066406 L 186.902344 321.027344 C 184.421875 325.234375 180.375 328.289062 175.648438 329.511719 C 170.917969 330.738281 165.898438 330.03125 161.6875 327.554688 C 157.480469 325.078125 154.429688 321.03125 153.203125 316.300781 C 151.980469 311.574219 152.683594 306.554688 155.160156 302.34375 L 191.042969 241.382812 C 193.523438 237.175781 197.570312 234.121094 202.296875 232.898438 C 207.027344 231.675781 212.046875 232.378906 216.257812 234.855469 Z M 216.257812 234.855469 " clip-rule="nonzero"/></clipPath><clipPath id="5ff3a161d4"><path d="M 0 0 L 73.96875 0 L 73.96875 98.9375 L 0 98.9375 Z M 0 0 " clip-rule="nonzero"/></clipPath><clipPath id="a12b99db3c"><path d="M 48.386719 -6.484375 L 80.125 12.195312 L 25.535156 104.9375 L -6.203125 86.253906 Z M 48.386719 -6.484375 " clip-rule="nonzero"/></clipPath><clipPath id="c171520783"><path d="M 64.257812 2.855469 C 68.464844 5.332031 71.515625 9.382812 72.742188 14.109375 C 73.964844 18.835938 73.261719 23.859375 70.785156 28.066406 L 34.902344 89.027344 C 32.421875 93.234375 28.375 96.289062 23.648438 97.511719 C 18.917969 98.738281 13.898438 98.03125 9.6875 95.554688 C 5.480469 93.078125 2.429688 89.03125 1.203125 84.300781 C -0.0195312 79.574219 0.683594 74.554688 3.160156 70.34375 L 39.042969 9.382812 C 41.523438 5.175781 45.570312 2.121094 50.296875 0.898438 C 55.027344 -0.324219 60.046875 0.378906 64.257812 2.855469 Z M 64.257812 2.855469 " clip-rule="nonzero"/></clipPath><clipPath id="1ad8ef072a"><rect x="0" width="74" y="0" height="99"/></clipPath><clipPath id="97c120c0f5"><path d="M 115.332031 232.21875 L 153.277344 232.21875 L 153.277344 270.164062 L 115.332031 270.164062 Z M 115.332031 232.21875 " clip-rule="nonzero"/></clipPath><clipPath id="43abaa2499"><path d="M 134.304688 232.21875 C 123.828125 232.21875 115.332031 240.714844 115.332031 251.191406 C 115.332031 261.667969 123.828125 270.164062 134.304688 270.164062 C 144.78125 270.164062 153.277344 261.667969 153.277344 251.191406 C 153.277344 240.714844 144.78125 232.21875 134.304688 232.21875 Z M 134.304688 232.21875 " clip-rule="nonzero"/></clipPath><clipPath id="5cb51e15bc"><path d="M 0.332031 0.21875 L 38.277344 0.21875 L 38.277344 38.164062 L 0.332031 38.164062 Z M 0.332031 0.21875 " clip-rule="nonzero"/></clipPath><clipPath id="6c66f16c81"><path d="M 19.304688 0.21875 C 8.828125 0.21875 0.332031 8.714844 0.332031 19.191406 C 0.332031 29.667969 8.828125 38.164062 19.304688 38.164062 C 29.78125 38.164062 38.277344 29.667969 38.277344 19.191406 C 38.277344 8.714844 29.78125 0.21875 19.304688 0.21875 Z M 19.304688 0.21875 " clip-rule="nonzero"/></clipPath><clipPath id="9ab1cba74a"><rect x="0" width="39" y="0" height="39"/></clipPath></defs><g clip-path="url(#b373c1901f)"><g clip-path="url(#af43474629)"><g clip-path="url(#1114137aa7)"><g transform="matrix(1, 0, 0, 1, 152, 232)"><g clip-path="url(#1ad8ef072a)"><g clip-path="url(#5ff3a161d4)"><g clip-path="url(#a12b99db3c)"><g clip-path="url(#c171520783)"><path fill="#a60e0e" d="M 48.386719 -6.484375 L 80.125 12.195312 L 25.535156 104.9375 L -6.203125 86.253906 Z M 48.386719 -6.484375 " fill-opacity="1" fill-rule="nonzero"/></g></g></g></g></g></g></g></g><g clip-path="url(#97c120c0f5)"><g clip-path="url(#43abaa2499)"><g transform="matrix(1, 0, 0, 1, 115, 232)"><g clip-path="url(#9ab1cba74a)"><g clip-path="url(#5cb51e15bc)"><g clip-path="url(#6c66f16c81)"><path fill="#022179" d="M 0.332031 0.21875 L 38.277344 0.21875 L 38.277344 38.164062 L 0.332031 38.164062 Z M 0.332031 0.21875 " fill-opacity="1" fill-rule="nonzero"/></g></g></g></g></g></g><g fill="#022179" fill-opacity="1"><g transform="translate(232.128039, 320.333675)"><g><path d="M 84.984375 0 L 68.75 0 L 62.078125 -16.234375 L 23.453125 -16.234375 L 16.78125 0 L 0.5625 0 L 35.484375 -84 L 50.046875 -84 Z M 42.21875 -62.140625 L 28.703125 -29.0625 L 56.84375 -29.0625 L 43.265625 -62.140625 L 42.890625 -64.1875 L 42.703125 -64.1875 Z M 42.21875 -62.140625 "/></g></g></g><g fill="#022179" fill-opacity="1"><g transform="translate(310.397672, 320.333675)"><g><path d="M 37.28125 1.90625 C 33.039062 1.90625 29.109375 1.316406 25.484375 0.140625 C 21.867188 -1.023438 18.703125 -2.863281 15.984375 -5.375 C 13.265625 -7.882812 11.15625 -11.132812 9.65625 -15.125 C 8.15625 -19.113281 7.40625 -23.925781 7.40625 -29.5625 L 7.40625 -63.4375 L 22.21875 -63.4375 L 22.21875 -30 C 22.21875 -24.15625 23.472656 -19.6875 25.984375 -16.59375 C 28.492188 -13.507812 32.238281 -11.96875 37.21875 -11.96875 C 42.238281 -11.96875 45.984375 -13.519531 48.453125 -16.625 C 50.921875 -19.738281 52.15625 -24.195312 52.15625 -30 L 52.15625 -63.4375 L 67.015625 -63.4375 L 67.015625 -29.5625 C 67.015625 -23.925781 66.265625 -19.113281 64.765625 -15.125 C 63.265625 -11.132812 61.15625 -7.882812 58.4375 -5.375 C 55.726562 -2.863281 52.570312 -1.023438 48.96875 0.140625 C 45.363281 1.316406 41.46875 1.90625 37.28125 1.90625 Z M 37.28125 1.90625 "/></g></g></g><g fill="#022179" fill-opacity="1"><g transform="translate(377.496616, 320.333675)"><g><path d="M 47.765625 0 L 34.875 0 C 32.976562 0 31.03125 -0.171875 29.03125 -0.515625 C 27.039062 -0.867188 25.140625 -1.519531 23.328125 -2.46875 C 21.515625 -3.414062 19.898438 -4.78125 18.484375 -6.5625 C 17.066406 -8.351562 15.9375 -10.675781 15.09375 -13.53125 C 14.25 -16.394531 13.828125 -19.925781 13.828125 -24.125 L 13.828125 -50.609375 L 0.671875 -50.609375 L 0.671875 -63.4375 L 13.828125 -63.4375 L 13.828125 -82.015625 L 28.765625 -82.140625 L 28.765625 -63.4375 L 47.765625 -63.4375 L 47.765625 -50.609375 L 28.765625 -50.609375 L 28.765625 -23.453125 C 28.765625 -20.492188 29.191406 -18.207031 30.046875 -16.59375 C 30.910156 -14.988281 32.050781 -13.890625 33.46875 -13.296875 C 34.894531 -12.703125 36.390625 -12.40625 37.953125 -12.40625 L 47.765625 -12.40625 Z M 47.765625 0 "/></g></g></g><g fill="#022179" fill-opacity="1"><g transform="translate(421.266734, 320.333675)"><g><path d="M 37.578125 1.90625 C 32.765625 1.90625 28.320312 1.046875 24.25 -0.671875 C 20.175781 -2.398438 16.648438 -4.804688 13.671875 -7.890625 C 10.691406 -10.984375 8.378906 -14.566406 6.734375 -18.640625 C 5.085938 -22.710938 4.265625 -27.070312 4.265625 -31.71875 C 4.265625 -36.363281 5.085938 -40.710938 6.734375 -44.765625 C 8.378906 -48.828125 10.691406 -52.398438 13.671875 -55.484375 C 16.648438 -58.566406 20.175781 -60.984375 24.25 -62.734375 C 28.320312 -64.484375 32.785156 -65.359375 37.640625 -65.359375 C 42.535156 -65.359375 47.019531 -64.484375 51.09375 -62.734375 C 55.164062 -60.984375 58.703125 -58.566406 61.703125 -55.484375 C 64.710938 -52.398438 67.039062 -48.828125 68.6875 -44.765625 C 70.332031 -40.710938 71.15625 -36.363281 71.15625 -31.71875 C 71.15625 -27.03125 70.332031 -22.660156 68.6875 -18.609375 C 67.039062 -14.554688 64.710938 -10.984375 61.703125 -7.890625 C 58.703125 -4.804688 55.15625 -2.398438 51.0625 -0.671875 C 46.96875 1.046875 42.472656 1.90625 37.578125 1.90625 Z M 37.703125 -11.96875 C 41.285156 -11.96875 44.472656 -12.820312 47.265625 -14.53125 C 50.066406 -16.238281 52.28125 -18.570312 53.90625 -21.53125 C 55.53125 -24.5 56.34375 -27.894531 56.34375 -31.71875 C 56.34375 -35.539062 55.53125 -38.941406 53.90625 -41.921875 C 52.28125 -44.910156 50.066406 -47.257812 47.265625 -48.96875 C 44.472656 -50.675781 41.285156 -51.53125 37.703125 -51.53125 C 34.171875 -51.53125 30.992188 -50.675781 28.171875 -48.96875 C 25.347656 -47.257812 23.125 -44.910156 21.5 -41.921875 C 19.875 -38.941406 19.0625 -35.539062 19.0625 -31.71875 C 19.0625 -27.894531 19.875 -24.5 21.5 -21.53125 C 23.125 -18.570312 25.347656 -16.238281 28.171875 -14.53125 C 30.992188 -12.820312 34.171875 -11.96875 37.703125 -11.96875 Z M 37.703125 -11.96875 "/></g></g></g><g fill="#022179" fill-opacity="1"><g transform="translate(489.353153, 320.333675)"><g><path d="M 23.703125 21.65625 L 8.765625 21.65625 L 8.765625 -63.4375 L 22.953125 -63.4375 L 22.953125 -52.765625 C 25.253906 -56.585938 28.316406 -59.628906 32.140625 -61.890625 C 35.972656 -64.160156 40.175781 -65.296875 44.75 -65.296875 C 49.269531 -65.296875 53.410156 -64.421875 57.171875 -62.671875 C 60.941406 -60.921875 64.203125 -58.515625 66.953125 -55.453125 C 69.710938 -52.390625 71.851562 -48.828125 73.375 -44.765625 C 74.894531 -40.710938 75.65625 -36.363281 75.65625 -31.71875 C 75.65625 -27.070312 74.894531 -22.710938 73.375 -18.640625 C 71.851562 -14.566406 69.703125 -10.984375 66.921875 -7.890625 C 64.148438 -4.804688 60.898438 -2.398438 57.171875 -0.671875 C 53.453125 1.046875 49.367188 1.90625 44.921875 1.90625 C 41.835938 1.90625 38.914062 1.398438 36.15625 0.390625 C 33.40625 -0.609375 30.9375 -2.023438 28.75 -3.859375 C 26.570312 -5.691406 24.785156 -7.820312 23.390625 -10.25 L 23.703125 -2.90625 Z M 42.21875 -11.84375 C 45.582031 -11.84375 48.675781 -12.644531 51.5 -14.25 C 54.320312 -15.851562 56.582031 -18.144531 58.28125 -21.125 C 59.988281 -24.113281 60.84375 -27.644531 60.84375 -31.71875 C 60.84375 -35.707031 60 -39.179688 58.3125 -42.140625 C 56.632812 -45.109375 54.382812 -47.414062 51.5625 -49.0625 C 48.738281 -50.707031 45.601562 -51.53125 42.15625 -51.53125 C 39.5625 -51.53125 37.140625 -51.023438 34.890625 -50.015625 C 32.648438 -49.003906 30.675781 -47.59375 28.96875 -45.78125 C 27.257812 -43.976562 25.921875 -41.882812 24.953125 -39.5 C 23.992188 -37.113281 23.515625 -34.519531 23.515625 -31.71875 C 23.515625 -28.84375 24.003906 -26.191406 24.984375 -23.765625 C 25.972656 -21.335938 27.332031 -19.226562 29.0625 -17.4375 C 30.789062 -15.644531 32.785156 -14.265625 35.046875 -13.296875 C 37.316406 -12.328125 39.707031 -11.84375 42.21875 -11.84375 Z M 42.21875 -11.84375 "/></g></g></g><g fill="#022179" fill-opacity="1"><g transform="translate(561.944859, 320.333675)"><g><path d="M 16.109375 -73.3125 C 13.222656 -73.3125 10.96875 -74.144531 9.34375 -75.8125 C 7.71875 -77.476562 6.90625 -79.503906 6.90625 -81.890625 C 6.90625 -84.191406 7.71875 -86.1875 9.34375 -87.875 C 10.96875 -89.5625 13.242188 -90.40625 16.171875 -90.40625 C 19.171875 -90.40625 21.484375 -89.5625 23.109375 -87.875 C 24.734375 -86.1875 25.546875 -84.191406 25.546875 -81.890625 C 25.546875 -79.503906 24.734375 -77.476562 23.109375 -75.8125 C 21.484375 -74.144531 19.148438 -73.3125 16.109375 -73.3125 Z M 23.703125 0 L 8.765625 0 L 8.765625 -63.4375 L 23.703125 -63.4375 Z M 23.703125 0 "/></g></g></g><g fill="#022179" fill-opacity="1"><g transform="translate(587.01489, 320.333675)"><g><path d="M 23.703125 0 L 8.765625 0 L 8.765625 -86.953125 L 23.703125 -86.953125 Z M 23.703125 0 "/></g></g></g><g fill="#022179" fill-opacity="1"><g transform="translate(612.084922, 320.333675)"><g><path d="M 37.578125 1.90625 C 32.765625 1.90625 28.320312 1.046875 24.25 -0.671875 C 20.175781 -2.398438 16.648438 -4.804688 13.671875 -7.890625 C 10.691406 -10.984375 8.378906 -14.566406 6.734375 -18.640625 C 5.085938 -22.710938 4.265625 -27.070312 4.265625 -31.71875 C 4.265625 -36.363281 5.085938 -40.710938 6.734375 -44.765625 C 8.378906 -48.828125 10.691406 -52.398438 13.671875 -55.484375 C 16.648438 -58.566406 20.175781 -60.984375 24.25 -62.734375 C 28.320312 -64.484375 32.785156 -65.359375 37.640625 -65.359375 C 42.535156 -65.359375 47.019531 -64.484375 51.09375 -62.734375 C 55.164062 -60.984375 58.703125 -58.566406 61.703125 -55.484375 C 64.710938 -52.398438 67.039062 -48.828125 68.6875 -44.765625 C 70.332031 -40.710938 71.15625 -36.363281 71.15625 -31.71875 C 71.15625 -27.03125 70.332031 -22.660156 68.6875 -18.609375 C 67.039062 -14.554688 64.710938 -10.984375 61.703125 -7.890625 C 58.703125 -4.804688 55.15625 -2.398438 51.0625 -0.671875 C 46.96875 1.046875 42.472656 1.90625 37.578125 1.90625 Z M 37.703125 -11.96875 C 41.285156 -11.96875 44.472656 -12.820312 47.265625 -14.53125 C 50.066406 -16.238281 52.28125 -18.570312 53.90625 -21.53125 C 55.53125 -24.5 56.34375 -27.894531 56.34375 -31.71875 C 56.34375 -35.539062 55.53125 -38.941406 53.90625 -41.921875 C 52.28125 -44.910156 50.066406 -47.257812 47.265625 -48.96875 C 44.472656 -50.675781 41.285156 -51.53125 37.703125 -51.53125 C 34.171875 -51.53125 30.992188 -50.675781 28.171875 -48.96875 C 25.347656 -47.257812 23.125 -44.910156 21.5 -41.921875 C 19.875 -38.941406 19.0625 -35.539062 19.0625 -31.71875 C 19.0625 -27.894531 19.875 -24.5 21.5 -21.53125 C 23.125 -18.570312 25.347656 -16.238281 28.171875 -14.53125 C 30.992188 -12.820312 34.171875 -11.96875 37.703125 -11.96875 Z M 37.703125 -11.96875 "/></g></g></g><g fill="#022179" fill-opacity="1"><g transform="translate(680.171319, 320.333675)"><g><path d="M 47.765625 0 L 34.875 0 C 32.976562 0 31.03125 -0.171875 29.03125 -0.515625 C 27.039062 -0.867188 25.140625 -1.519531 23.328125 -2.46875 C 21.515625 -3.414062 19.898438 -4.78125 18.484375 -6.5625 C 17.066406 -8.351562 15.9375 -10.675781 15.09375 -13.53125 C 14.25 -16.394531 13.828125 -19.925781 13.828125 -24.125 L 13.828125 -50.609375 L 0.671875 -50.609375 L 0.671875 -63.4375 L 13.828125 -63.4375 L 13.828125 -82.015625 L 28.765625 -82.140625 L 28.765625 -63.4375 L 47.765625 -63.4375 L 47.765625 -50.609375 L 28.765625 -50.609375 L 28.765625 -23.453125 C 28.765625 -20.492188 29.191406 -18.207031 30.046875 -16.59375 C 30.910156 -14.988281 32.050781 -13.890625 33.46875 -13.296875 C 34.894531 -12.703125 36.390625 -12.40625 37.953125 -12.40625 L 47.765625 -12.40625 Z M 47.765625 0 "/></g></g></g><g fill="#000000" fill-opacity="1"><g transform="translate(723.946588, 320.333675)"><g/></g></g><g fill="#a60e0e" fill-opacity="1"><g transform="translate(747.852885, 320.333675)"><g><path d="M 33.8125 1.796875 C 30.976562 1.796875 28.148438 1.460938 25.328125 0.796875 C 22.515625 0.140625 19.84375 -0.882812 17.3125 -2.28125 C 14.78125 -3.675781 12.523438 -5.503906 10.546875 -7.765625 C 8.578125 -10.035156 7.015625 -12.753906 5.859375 -15.921875 C 4.710938 -19.085938 4.117188 -22.769531 4.078125 -26.96875 L 14.9375 -26.96875 C 15.019531 -23.382812 15.65625 -20.398438 16.84375 -18.015625 C 18.039062 -15.628906 19.59375 -13.71875 21.5 -12.28125 C 23.414062 -10.84375 25.472656 -9.8125 27.671875 -9.1875 C 29.878906 -8.570312 32.007812 -8.265625 34.0625 -8.265625 C 36.570312 -8.265625 38.945312 -8.726562 41.1875 -9.65625 C 43.4375 -10.582031 45.429688 -11.878906 47.171875 -13.546875 C 48.921875 -15.210938 50.289062 -17.175781 51.28125 -19.4375 C 52.269531 -21.695312 52.765625 -24.144531 52.765625 -26.78125 C 52.765625 -30.195312 51.910156 -33.222656 50.203125 -35.859375 C 48.492188 -38.492188 46.085938 -40.5625 42.984375 -42.0625 C 39.878906 -43.5625 36.207031 -44.3125 31.96875 -44.3125 L 23.203125 -44.3125 L 23.203125 -49.921875 L 42.828125 -74.546875 L 43.078125 -74.921875 L 8.265625 -74.921875 L 8.265625 -83.9375 L 56.34375 -83.9375 L 56.34375 -77.9375 L 35.921875 -53.203125 L 35.171875 -52.265625 C 40.972656 -51.984375 46.015625 -50.851562 50.296875 -48.875 C 54.578125 -46.90625 57.890625 -44.066406 60.234375 -40.359375 C 62.578125 -36.660156 63.75 -32.050781 63.75 -26.53125 C 63.75 -22.582031 63.007812 -18.890625 61.53125 -15.453125 C 60.050781 -12.023438 57.960938 -9.015625 55.265625 -6.421875 C 52.566406 -3.828125 49.394531 -1.804688 45.75 -0.359375 C 42.113281 1.078125 38.132812 1.796875 33.8125 1.796875 Z M 33.8125 1.796875 "/></g></g></g><g fill="#a60e0e" fill-opacity="1"><g transform="translate(807.669285, 320.333675)"><g><path d="M 34.875 1.671875 C 30.550781 1.671875 26.597656 0.953125 23.015625 -0.484375 C 19.441406 -1.929688 16.335938 -3.929688 13.703125 -6.484375 C 11.066406 -9.035156 9.03125 -11.992188 7.59375 -15.359375 C 6.15625 -18.734375 5.4375 -22.378906 5.4375 -26.296875 C 5.4375 -28.390625 5.640625 -30.398438 6.046875 -32.328125 C 6.460938 -34.265625 7.117188 -36.25 8.015625 -38.28125 C 8.921875 -40.320312 10.082031 -42.546875 11.5 -44.953125 C 12.925781 -47.359375 14.625 -50.109375 16.59375 -53.203125 L 36.34375 -83.9375 L 48.9375 -83.9375 L 26.84375 -50.296875 C 28.40625 -51.285156 30.101562 -52.066406 31.9375 -52.640625 C 33.769531 -53.210938 35.628906 -53.5 37.515625 -53.5 C 41.097656 -53.5 44.492188 -52.820312 47.703125 -51.46875 C 50.910156 -50.113281 53.769531 -48.203125 56.28125 -45.734375 C 58.789062 -43.265625 60.753906 -40.382812 62.171875 -37.09375 C 63.597656 -33.800781 64.3125 -30.203125 64.3125 -26.296875 C 64.3125 -22.378906 63.585938 -18.734375 62.140625 -15.359375 C 60.703125 -11.992188 58.664062 -9.035156 56.03125 -6.484375 C 53.40625 -3.929688 50.300781 -1.929688 46.71875 -0.484375 C 43.132812 0.953125 39.1875 1.671875 34.875 1.671875 Z M 34.9375 -8.390625 C 38.300781 -8.390625 41.320312 -9.160156 44 -10.703125 C 46.675781 -12.242188 48.796875 -14.351562 50.359375 -17.03125 C 51.921875 -19.707031 52.703125 -22.753906 52.703125 -26.171875 C 52.703125 -29.585938 51.921875 -32.640625 50.359375 -35.328125 C 48.796875 -38.023438 46.675781 -40.164062 44 -41.75 C 41.320312 -43.332031 38.300781 -44.125 34.9375 -44.125 C 31.96875 -44.125 29.363281 -43.554688 27.125 -42.421875 C 24.882812 -41.296875 23.007812 -39.816406 21.5 -37.984375 C 20 -36.148438 18.867188 -34.191406 18.109375 -32.109375 C 17.347656 -30.035156 16.96875 -28.054688 16.96875 -26.171875 C 16.96875 -22.753906 17.75 -19.707031 19.3125 -17.03125 C 20.875 -14.351562 23.015625 -12.242188 25.734375 -10.703125 C 28.453125 -9.160156 31.519531 -8.390625 34.9375 -8.390625 Z M 34.9375 -8.390625 "/></g></g></g><g fill="#a60e0e" fill-opacity="1"><g transform="translate(869.028604, 320.333675)"><g><path d="M 40.046875 1.796875 C 34.242188 1.796875 29.148438 0.65625 24.765625 -1.625 C 20.390625 -3.914062 16.738281 -7.066406 13.8125 -11.078125 C 10.894531 -15.085938 8.695312 -19.703125 7.21875 -24.921875 C 5.738281 -30.148438 5 -35.707031 5 -41.59375 C 5 -47.726562 5.78125 -53.457031 7.34375 -58.78125 C 8.90625 -64.113281 11.1875 -68.796875 14.1875 -72.828125 C 17.195312 -76.859375 20.859375 -80.015625 25.171875 -82.296875 C 29.492188 -84.578125 34.429688 -85.71875 39.984375 -85.71875 C 44.921875 -85.71875 49.289062 -84.9375 53.09375 -83.375 C 56.90625 -81.8125 60.195312 -79.640625 62.96875 -76.859375 C 65.75 -74.085938 68.035156 -70.847656 69.828125 -67.140625 C 71.617188 -63.441406 72.945312 -59.441406 73.8125 -55.140625 C 74.675781 -50.835938 75.109375 -46.425781 75.109375 -41.90625 C 75.109375 -35.9375 74.351562 -30.316406 72.84375 -25.046875 C 71.34375 -19.785156 69.113281 -15.140625 66.15625 -11.109375 C 63.195312 -7.078125 59.535156 -3.914062 55.171875 -1.625 C 50.804688 0.65625 45.765625 1.796875 40.046875 1.796875 Z M 40.046875 -8.390625 C 43.835938 -8.390625 47.222656 -9.222656 50.203125 -10.890625 C 53.179688 -12.554688 55.707031 -14.898438 57.78125 -17.921875 C 59.863281 -20.953125 61.453125 -24.503906 62.546875 -28.578125 C 63.640625 -32.648438 64.1875 -37.09375 64.1875 -41.90625 C 64.1875 -46.550781 63.671875 -50.910156 62.640625 -54.984375 C 61.609375 -59.054688 60.070312 -62.632812 58.03125 -65.71875 C 56 -68.8125 53.472656 -71.226562 50.453125 -72.96875 C 47.429688 -74.71875 43.921875 -75.59375 39.921875 -75.59375 C 36.304688 -75.59375 33.023438 -74.757812 30.078125 -73.09375 C 27.140625 -71.425781 24.609375 -69.070312 22.484375 -66.03125 C 20.367188 -62.988281 18.742188 -59.398438 17.609375 -55.265625 C 16.484375 -51.128906 15.921875 -46.59375 15.921875 -41.65625 C 15.921875 -36.925781 16.460938 -32.535156 17.546875 -28.484375 C 18.640625 -24.429688 20.222656 -20.898438 22.296875 -17.890625 C 24.378906 -14.890625 26.910156 -12.554688 29.890625 -10.890625 C 32.878906 -9.222656 36.265625 -8.390625 40.046875 -8.390625 Z M 40.046875 -8.390625 "/></g></g></g><g fill="#1800ad" fill-opacity="1"><g transform="translate(234.892315, 368.730857)"><g><path d="M 12.890625 -9.6875 L 12.890625 0 L 9.734375 0 L 9.734375 -9.6875 L 0.75 -23.375 L 4.234375 -23.375 L 11.34375 -12.25 L 18.4375 -23.375 L 21.921875 -23.375 Z M 12.890625 -9.6875 "/></g></g></g><g fill="#1800ad" fill-opacity="1"><g transform="translate(254.437044, 368.730857)"><g><path d="M 17.46875 -9 C 17.46875 -5.851562 16.773438 -3.507812 15.390625 -1.96875 C 14.015625 -0.4375 12.007812 0.328125 9.375 0.328125 C 6.75 0.328125 4.765625 -0.46875 3.421875 -2.0625 C 2.085938 -3.664062 1.421875 -5.976562 1.421875 -9 C 1.421875 -15.1875 4.101562 -18.28125 9.46875 -18.28125 C 12.21875 -18.28125 14.238281 -17.523438 15.53125 -16.015625 C 16.820312 -14.503906 17.46875 -12.164062 17.46875 -9 Z M 14.34375 -9 C 14.34375 -11.476562 13.972656 -13.273438 13.234375 -14.390625 C 12.492188 -15.515625 11.257812 -16.078125 9.53125 -16.078125 C 7.78125 -16.078125 6.515625 -15.503906 5.734375 -14.359375 C 4.953125 -13.210938 4.5625 -11.425781 4.5625 -9 C 4.5625 -6.625 4.945312 -4.84375 5.71875 -3.65625 C 6.488281 -2.46875 7.695312 -1.875 9.34375 -1.875 C 11.132812 -1.875 12.414062 -2.445312 13.1875 -3.59375 C 13.957031 -4.75 14.34375 -6.550781 14.34375 -9 Z M 14.34375 -9 "/></g></g></g><g fill="#1800ad" fill-opacity="1"><g transform="translate(273.334833, 368.730857)"><g><path d="M 5.203125 -17.953125 L 5.203125 -6.578125 C 5.203125 -5.390625 5.316406 -4.46875 5.546875 -3.8125 C 5.785156 -3.164062 6.160156 -2.695312 6.671875 -2.40625 C 7.179688 -2.113281 7.925781 -1.96875 8.90625 -1.96875 C 10.34375 -1.96875 11.476562 -2.457031 12.3125 -3.4375 C 13.144531 -4.425781 13.5625 -5.796875 13.5625 -7.546875 L 13.5625 -17.953125 L 16.546875 -17.953125 L 16.546875 -3.828125 C 16.546875 -1.742188 16.578125 -0.46875 16.640625 0 L 13.828125 0 C 13.816406 -0.0507812 13.800781 -0.195312 13.78125 -0.4375 C 13.769531 -0.6875 13.753906 -0.96875 13.734375 -1.28125 C 13.722656 -1.601562 13.707031 -2.195312 13.6875 -3.0625 L 13.640625 -3.0625 C 12.953125 -1.832031 12.15625 -0.957031 11.25 -0.4375 C 10.351562 0.0703125 9.238281 0.328125 7.90625 0.328125 C 5.925781 0.328125 4.476562 -0.160156 3.5625 -1.140625 C 2.65625 -2.117188 2.203125 -3.734375 2.203125 -5.984375 L 2.203125 -17.953125 Z M 5.203125 -17.953125 "/></g></g></g><g fill="#1800ad" fill-opacity="1"><g transform="translate(292.232623, 368.730857)"><g><path d="M 2.359375 0 L 2.359375 -13.765625 C 2.359375 -15.035156 2.320312 -16.429688 2.25 -17.953125 L 5.078125 -17.953125 C 5.160156 -15.921875 5.203125 -14.695312 5.203125 -14.28125 L 5.28125 -14.28125 C 5.75 -15.820312 6.289062 -16.875 6.90625 -17.4375 C 7.53125 -18 8.410156 -18.28125 9.546875 -18.28125 C 9.941406 -18.28125 10.34375 -18.226562 10.75 -18.125 L 10.75 -15.375 C 10.351562 -15.488281 9.820312 -15.546875 9.15625 -15.546875 C 7.914062 -15.546875 6.96875 -15.007812 6.3125 -13.9375 C 5.664062 -12.875 5.34375 -11.347656 5.34375 -9.359375 L 5.34375 0 Z M 2.359375 0 "/></g></g></g><g fill="#1800ad" fill-opacity="1"><g transform="translate(303.548065, 368.730857)"><g/></g></g><g fill="#1800ad" fill-opacity="1"><g transform="translate(312.988666, 368.730857)"><g><path d="M 9.1875 -0.125 C 8.207031 0.132812 7.203125 0.265625 6.171875 0.265625 C 3.785156 0.265625 2.59375 -1.085938 2.59375 -3.796875 L 2.59375 -15.78125 L 0.515625 -15.78125 L 0.515625 -17.953125 L 2.703125 -17.953125 L 3.578125 -21.96875 L 5.578125 -21.96875 L 5.578125 -17.953125 L 8.890625 -17.953125 L 8.890625 -15.78125 L 5.578125 -15.78125 L 5.578125 -4.453125 C 5.578125 -3.585938 5.71875 -2.976562 6 -2.625 C 6.28125 -2.28125 6.769531 -2.109375 7.46875 -2.109375 C 7.863281 -2.109375 8.4375 -2.1875 9.1875 -2.34375 Z M 9.1875 -0.125 "/></g></g></g><g fill="#1800ad" fill-opacity="1"><g transform="translate(322.429268, 368.730857)"><g><path d="M 2.359375 0 L 2.359375 -13.765625 C 2.359375 -15.035156 2.320312 -16.429688 2.25 -17.953125 L 5.078125 -17.953125 C 5.160156 -15.921875 5.203125 -14.695312 5.203125 -14.28125 L 5.28125 -14.28125 C 5.75 -15.820312 6.289062 -16.875 6.90625 -17.4375 C 7.53125 -18 8.410156 -18.28125 9.546875 -18.28125 C 9.941406 -18.28125 10.34375 -18.226562 10.75 -18.125 L 10.75 -15.375 C 10.351562 -15.488281 9.820312 -15.546875 9.15625 -15.546875 C 7.914062 -15.546875 6.96875 -15.007812 6.3125 -13.9375 C 5.664062 -12.875 5.34375 -11.347656 5.34375 -9.359375 L 5.34375 0 Z M 2.359375 0 "/></g></g></g><g fill="#1800ad" fill-opacity="1"><g transform="translate(333.74471, 368.730857)"><g><path d="M 5.203125 -17.953125 L 5.203125 -6.578125 C 5.203125 -5.390625 5.316406 -4.46875 5.546875 -3.8125 C 5.785156 -3.164062 6.160156 -2.695312 6.671875 -2.40625 C 7.179688 -2.113281 7.925781 -1.96875 8.90625 -1.96875 C 10.34375 -1.96875 11.476562 -2.457031 12.3125 -3.4375 C 13.144531 -4.425781 13.5625 -5.796875 13.5625 -7.546875 L 13.5625 -17.953125 L 16.546875 -17.953125 L 16.546875 -3.828125 C 16.546875 -1.742188 16.578125 -0.46875 16.640625 0 L 13.828125 0 C 13.816406 -0.0507812 13.800781 -0.195312 13.78125 -0.4375 C 13.769531 -0.6875 13.753906 -0.96875 13.734375 -1.28125 C 13.722656 -1.601562 13.707031 -2.195312 13.6875 -3.0625 L 13.640625 -3.0625 C 12.953125 -1.832031 12.15625 -0.957031 11.25 -0.4375 C 10.351562 0.0703125 9.238281 0.328125 7.90625 0.328125 C 5.925781 0.328125 4.476562 -0.160156 3.5625 -1.140625 C 2.65625 -2.117188 2.203125 -3.734375 2.203125 -5.984375 L 2.203125 -17.953125 Z M 5.203125 -17.953125 "/></g></g></g><g fill="#1800ad" fill-opacity="1"><g transform="translate(352.642499, 368.730857)"><g><path d="M 15.765625 -4.96875 C 15.765625 -3.269531 15.125 -1.960938 13.84375 -1.046875 C 12.570312 -0.128906 10.785156 0.328125 8.484375 0.328125 C 6.242188 0.328125 4.519531 -0.0351562 3.3125 -0.765625 C 2.101562 -1.503906 1.316406 -2.65625 0.953125 -4.21875 L 3.578125 -4.734375 C 3.835938 -3.765625 4.363281 -3.054688 5.15625 -2.609375 C 5.957031 -2.160156 7.066406 -1.9375 8.484375 -1.9375 C 9.992188 -1.9375 11.097656 -2.164062 11.796875 -2.625 C 12.503906 -3.09375 12.859375 -3.796875 12.859375 -4.734375 C 12.859375 -5.441406 12.613281 -6.015625 12.125 -6.453125 C 11.644531 -6.898438 10.863281 -7.265625 9.78125 -7.546875 L 7.640625 -8.109375 C 5.921875 -8.554688 4.695312 -8.992188 3.96875 -9.421875 C 3.25 -9.847656 2.679688 -10.363281 2.265625 -10.96875 C 1.859375 -11.570312 1.65625 -12.316406 1.65625 -13.203125 C 1.65625 -14.847656 2.238281 -16.097656 3.40625 -16.953125 C 4.570312 -17.804688 6.273438 -18.234375 8.515625 -18.234375 C 10.492188 -18.234375 12.066406 -17.882812 13.234375 -17.1875 C 14.398438 -16.488281 15.140625 -15.375 15.453125 -13.84375 L 12.765625 -13.5 C 12.597656 -14.300781 12.148438 -14.914062 11.421875 -15.34375 C 10.703125 -15.769531 9.734375 -15.984375 8.515625 -15.984375 C 7.160156 -15.984375 6.160156 -15.773438 5.515625 -15.359375 C 4.878906 -14.953125 4.5625 -14.332031 4.5625 -13.5 C 4.5625 -13 4.691406 -12.582031 4.953125 -12.25 C 5.222656 -11.914062 5.617188 -11.628906 6.140625 -11.390625 C 6.660156 -11.160156 7.753906 -10.84375 9.421875 -10.4375 C 11.003906 -10.039062 12.144531 -9.671875 12.84375 -9.328125 C 13.539062 -8.992188 14.085938 -8.617188 14.484375 -8.203125 C 14.890625 -7.796875 15.203125 -7.320312 15.421875 -6.78125 C 15.648438 -6.25 15.765625 -5.644531 15.765625 -4.96875 Z M 15.765625 -4.96875 "/></g></g></g><g fill="#1800ad" fill-opacity="1"><g transform="translate(369.632254, 368.730857)"><g><path d="M 9.1875 -0.125 C 8.207031 0.132812 7.203125 0.265625 6.171875 0.265625 C 3.785156 0.265625 2.59375 -1.085938 2.59375 -3.796875 L 2.59375 -15.78125 L 0.515625 -15.78125 L 0.515625 -17.953125 L 2.703125 -17.953125 L 3.578125 -21.96875 L 5.578125 -21.96875 L 5.578125 -17.953125 L 8.890625 -17.953125 L 8.890625 -15.78125 L 5.578125 -15.78125 L 5.578125 -4.453125 C 5.578125 -3.585938 5.71875 -2.976562 6 -2.625 C 6.28125 -2.28125 6.769531 -2.109375 7.46875 -2.109375 C 7.863281 -2.109375 8.4375 -2.1875 9.1875 -2.34375 Z M 9.1875 -0.125 "/></g></g></g><g fill="#1800ad" fill-opacity="1"><g transform="translate(379.072856, 368.730857)"><g><path d="M 4.578125 -8.34375 C 4.578125 -6.289062 5.003906 -4.703125 5.859375 -3.578125 C 6.710938 -2.460938 7.957031 -1.90625 9.59375 -1.90625 C 10.882812 -1.90625 11.921875 -2.164062 12.703125 -2.6875 C 13.484375 -3.207031 14.007812 -3.863281 14.28125 -4.65625 L 16.90625 -3.921875 C 15.832031 -1.085938 13.394531 0.328125 9.59375 0.328125 C 6.9375 0.328125 4.910156 -0.457031 3.515625 -2.03125 C 2.128906 -3.613281 1.4375 -5.96875 1.4375 -9.09375 C 1.4375 -12.0625 2.128906 -14.332031 3.515625 -15.90625 C 4.910156 -17.488281 6.894531 -18.28125 9.46875 -18.28125 C 14.75 -18.28125 17.390625 -15.101562 17.390625 -8.75 L 17.390625 -8.34375 Z M 14.296875 -10.640625 C 14.140625 -12.523438 13.660156 -13.898438 12.859375 -14.765625 C 12.066406 -15.640625 10.921875 -16.078125 9.421875 -16.078125 C 7.972656 -16.078125 6.828125 -15.59375 5.984375 -14.625 C 5.140625 -13.65625 4.679688 -12.328125 4.609375 -10.640625 Z M 14.296875 -10.640625 "/></g></g></g><g fill="#1800ad" fill-opacity="1"><g transform="translate(397.970646, 368.730857)"><g><path d="M 13.625 -2.890625 C 13.070312 -1.734375 12.335938 -0.90625 11.421875 -0.40625 C 10.515625 0.0820312 9.382812 0.328125 8.03125 0.328125 C 5.757812 0.328125 4.085938 -0.429688 3.015625 -1.953125 C 1.953125 -3.484375 1.421875 -5.796875 1.421875 -8.890625 C 1.421875 -15.148438 3.625 -18.28125 8.03125 -18.28125 C 9.394531 -18.28125 10.53125 -18.03125 11.4375 -17.53125 C 12.34375 -17.039062 13.070312 -16.253906 13.625 -15.171875 L 13.65625 -15.171875 L 13.625 -17.171875 L 13.625 -24.625 L 16.609375 -24.625 L 16.609375 -3.703125 C 16.609375 -1.828125 16.640625 -0.59375 16.703125 0 L 13.859375 0 C 13.828125 -0.175781 13.789062 -0.582031 13.75 -1.21875 C 13.707031 -1.863281 13.6875 -2.421875 13.6875 -2.890625 Z M 4.5625 -9 C 4.5625 -6.488281 4.890625 -4.6875 5.546875 -3.59375 C 6.210938 -2.507812 7.296875 -1.96875 8.796875 -1.96875 C 10.484375 -1.96875 11.707031 -2.554688 12.46875 -3.734375 C 13.238281 -4.910156 13.625 -6.726562 13.625 -9.1875 C 13.625 -11.570312 13.238281 -13.316406 12.46875 -14.421875 C 11.707031 -15.523438 10.492188 -16.078125 8.828125 -16.078125 C 7.328125 -16.078125 6.238281 -15.519531 5.5625 -14.40625 C 4.894531 -13.300781 4.5625 -11.5 4.5625 -9 Z M 4.5625 -9 "/></g></g></g><g fill="#1800ad" fill-opacity="1"><g transform="translate(416.868435, 368.730857)"><g/></g></g><g fill="#1800ad" fill-opacity="1"><g transform="translate(426.309037, 368.730857)"><g><path d="M 17.46875 -9.0625 C 17.46875 -2.800781 15.269531 0.328125 10.875 0.328125 C 8.101562 0.328125 6.242188 -0.707031 5.296875 -2.78125 L 5.203125 -2.78125 C 5.253906 -2.695312 5.28125 -1.757812 5.28125 0.03125 L 5.28125 7.046875 L 2.296875 7.046875 L 2.296875 -14.28125 C 2.296875 -16.132812 2.257812 -17.359375 2.1875 -17.953125 L 5.078125 -17.953125 C 5.085938 -17.910156 5.101562 -17.753906 5.125 -17.484375 C 5.144531 -17.210938 5.171875 -16.789062 5.203125 -16.21875 C 5.234375 -15.65625 5.25 -15.269531 5.25 -15.0625 L 5.3125 -15.0625 C 5.84375 -16.175781 6.546875 -16.988281 7.421875 -17.5 C 8.296875 -18.007812 9.445312 -18.265625 10.875 -18.265625 C 13.082031 -18.265625 14.734375 -17.523438 15.828125 -16.046875 C 16.921875 -14.566406 17.46875 -12.238281 17.46875 -9.0625 Z M 14.34375 -9 C 14.34375 -11.5 14.003906 -13.285156 13.328125 -14.359375 C 12.648438 -15.429688 11.578125 -15.96875 10.109375 -15.96875 C 8.921875 -15.96875 7.992188 -15.71875 7.328125 -15.21875 C 6.660156 -14.71875 6.148438 -13.9375 5.796875 -12.875 C 5.453125 -11.820312 5.28125 -10.453125 5.28125 -8.765625 C 5.28125 -6.410156 5.65625 -4.671875 6.40625 -3.546875 C 7.15625 -2.429688 8.378906 -1.875 10.078125 -1.875 C 11.554688 -1.875 12.632812 -2.414062 13.3125 -3.5 C 14 -4.59375 14.34375 -6.425781 14.34375 -9 Z M 14.34375 -9 "/></g></g></g><g fill="#1800ad" fill-opacity="1"><g transform="translate(445.206826, 368.730857)"><g><path d="M 6.875 0.328125 C 5.070312 0.328125 3.710938 -0.144531 2.796875 -1.09375 C 1.890625 -2.039062 1.4375 -3.347656 1.4375 -5.015625 C 1.4375 -6.867188 2.046875 -8.289062 3.265625 -9.28125 C 4.492188 -10.28125 6.46875 -10.816406 9.1875 -10.890625 L 13.21875 -10.953125 L 13.21875 -11.9375 C 13.21875 -13.394531 12.90625 -14.4375 12.28125 -15.0625 C 11.664062 -15.695312 10.695312 -16.015625 9.375 -16.015625 C 8.039062 -16.015625 7.066406 -15.785156 6.453125 -15.328125 C 5.847656 -14.878906 5.484375 -14.15625 5.359375 -13.15625 L 2.234375 -13.4375 C 2.742188 -16.664062 5.144531 -18.28125 9.4375 -18.28125 C 11.695312 -18.28125 13.394531 -17.765625 14.53125 -16.734375 C 15.675781 -15.703125 16.25 -14.207031 16.25 -12.25 L 16.25 -4.515625 C 16.25 -3.628906 16.363281 -2.960938 16.59375 -2.515625 C 16.820312 -2.066406 17.265625 -1.84375 17.921875 -1.84375 C 18.210938 -1.84375 18.539062 -1.878906 18.90625 -1.953125 L 18.90625 -0.09375 C 18.144531 0.0820312 17.375 0.171875 16.59375 0.171875 C 15.488281 0.171875 14.679688 -0.117188 14.171875 -0.703125 C 13.671875 -1.285156 13.390625 -2.195312 13.328125 -3.4375 L 13.21875 -3.4375 C 12.457031 -2.0625 11.570312 -1.085938 10.5625 -0.515625 C 9.550781 0.046875 8.320312 0.328125 6.875 0.328125 Z M 7.546875 -1.90625 C 8.640625 -1.90625 9.613281 -2.15625 10.46875 -2.65625 C 11.320312 -3.15625 11.992188 -3.835938 12.484375 -4.703125 C 12.972656 -5.566406 13.21875 -6.460938 13.21875 -7.390625 L 13.21875 -8.859375 L 9.953125 -8.796875 C 8.546875 -8.773438 7.476562 -8.628906 6.75 -8.359375 C 6.03125 -8.097656 5.476562 -7.691406 5.09375 -7.140625 C 4.707031 -6.585938 4.515625 -5.863281 4.515625 -4.96875 C 4.515625 -3.988281 4.773438 -3.234375 5.296875 -2.703125 C 5.828125 -2.171875 6.578125 -1.90625 7.546875 -1.90625 Z M 7.546875 -1.90625 "/></g></g></g><g fill="#1800ad" fill-opacity="1"><g transform="translate(464.104616, 368.730857)"><g><path d="M 2.359375 0 L 2.359375 -13.765625 C 2.359375 -15.035156 2.320312 -16.429688 2.25 -17.953125 L 5.078125 -17.953125 C 5.160156 -15.921875 5.203125 -14.695312 5.203125 -14.28125 L 5.28125 -14.28125 C 5.75 -15.820312 6.289062 -16.875 6.90625 -17.4375 C 7.53125 -18 8.410156 -18.28125 9.546875 -18.28125 C 9.941406 -18.28125 10.34375 -18.226562 10.75 -18.125 L 10.75 -15.375 C 10.351562 -15.488281 9.820312 -15.546875 9.15625 -15.546875 C 7.914062 -15.546875 6.96875 -15.007812 6.3125 -13.9375 C 5.664062 -12.875 5.34375 -11.347656 5.34375 -9.359375 L 5.34375 0 Z M 2.359375 0 "/></g></g></g><g fill="#1800ad" fill-opacity="1"><g transform="translate(475.420046, 368.730857)"><g><path d="M 9.1875 -0.125 C 8.207031 0.132812 7.203125 0.265625 6.171875 0.265625 C 3.785156 0.265625 2.59375 -1.085938 2.59375 -3.796875 L 2.59375 -15.78125 L 0.515625 -15.78125 L 0.515625 -17.953125 L 2.703125 -17.953125 L 3.578125 -21.96875 L 5.578125 -21.96875 L 5.578125 -17.953125 L 8.890625 -17.953125 L 8.890625 -15.78125 L 5.578125 -15.78125 L 5.578125 -4.453125 C 5.578125 -3.585938 5.71875 -2.976562 6 -2.625 C 6.28125 -2.28125 6.769531 -2.109375 7.46875 -2.109375 C 7.863281 -2.109375 8.4375 -2.1875 9.1875 -2.34375 Z M 9.1875 -0.125 "/></g></g></g><g fill="#1800ad" fill-opacity="1"><g transform="translate(484.860659, 368.730857)"><g><path d="M 13.6875 0 L 13.6875 -11.390625 C 13.6875 -12.566406 13.570312 -13.476562 13.34375 -14.125 C 13.113281 -14.78125 12.742188 -15.253906 12.234375 -15.546875 C 11.722656 -15.835938 10.972656 -15.984375 9.984375 -15.984375 C 8.546875 -15.984375 7.410156 -15.488281 6.578125 -14.5 C 5.753906 -13.519531 5.34375 -12.15625 5.34375 -10.40625 L 5.34375 0 L 2.359375 0 L 2.359375 -14.125 C 2.359375 -16.207031 2.320312 -17.484375 2.25 -17.953125 L 5.078125 -17.953125 C 5.085938 -17.898438 5.097656 -17.75 5.109375 -17.5 C 5.117188 -17.257812 5.128906 -16.984375 5.140625 -16.671875 C 5.160156 -16.359375 5.179688 -15.765625 5.203125 -14.890625 L 5.265625 -14.890625 C 5.953125 -16.128906 6.742188 -17.003906 7.640625 -17.515625 C 8.546875 -18.023438 9.664062 -18.28125 11 -18.28125 C 12.96875 -18.28125 14.40625 -17.789062 15.3125 -16.8125 C 16.226562 -15.832031 16.6875 -14.21875 16.6875 -11.96875 L 16.6875 0 Z M 13.6875 0 "/></g></g></g><g fill="#1800ad" fill-opacity="1"><g transform="translate(503.758449, 368.730857)"><g><path d="M 4.578125 -8.34375 C 4.578125 -6.289062 5.003906 -4.703125 5.859375 -3.578125 C 6.710938 -2.460938 7.957031 -1.90625 9.59375 -1.90625 C 10.882812 -1.90625 11.921875 -2.164062 12.703125 -2.6875 C 13.484375 -3.207031 14.007812 -3.863281 14.28125 -4.65625 L 16.90625 -3.921875 C 15.832031 -1.085938 13.394531 0.328125 9.59375 0.328125 C 6.9375 0.328125 4.910156 -0.457031 3.515625 -2.03125 C 2.128906 -3.613281 1.4375 -5.96875 1.4375 -9.09375 C 1.4375 -12.0625 2.128906 -14.332031 3.515625 -15.90625 C 4.910156 -17.488281 6.894531 -18.28125 9.46875 -18.28125 C 14.75 -18.28125 17.390625 -15.101562 17.390625 -8.75 L 17.390625 -8.34375 Z M 14.296875 -10.640625 C 14.140625 -12.523438 13.660156 -13.898438 12.859375 -14.765625 C 12.066406 -15.640625 10.921875 -16.078125 9.421875 -16.078125 C 7.972656 -16.078125 6.828125 -15.59375 5.984375 -14.625 C 5.140625 -13.65625 4.679688 -12.328125 4.609375 -10.640625 Z M 14.296875 -10.640625 "/></g></g></g><g fill="#1800ad" fill-opacity="1"><g transform="translate(522.656238, 368.730857)"><g><path d="M 2.359375 0 L 2.359375 -13.765625 C 2.359375 -15.035156 2.320312 -16.429688 2.25 -17.953125 L 5.078125 -17.953125 C 5.160156 -15.921875 5.203125 -14.695312 5.203125 -14.28125 L 5.28125 -14.28125 C 5.75 -15.820312 6.289062 -16.875 6.90625 -17.4375 C 7.53125 -18 8.410156 -18.28125 9.546875 -18.28125 C 9.941406 -18.28125 10.34375 -18.226562 10.75 -18.125 L 10.75 -15.375 C 10.351562 -15.488281 9.820312 -15.546875 9.15625 -15.546875 C 7.914062 -15.546875 6.96875 -15.007812 6.3125 -13.9375 C 5.664062 -12.875 5.34375 -11.347656 5.34375 -9.359375 L 5.34375 0 Z M 2.359375 0 "/></g></g></g><g fill="#1800ad" fill-opacity="1"><g transform="translate(533.971669, 368.730857)"><g/></g></g><g fill="#1800ad" fill-opacity="1"><g transform="translate(543.412282, 368.730857)"><g><path d="M 5.984375 -15.78125 L 5.984375 0 L 3 0 L 3 -15.78125 L 0.484375 -15.78125 L 0.484375 -17.953125 L 3 -17.953125 L 3 -19.984375 C 3 -21.617188 3.359375 -22.796875 4.078125 -23.515625 C 4.796875 -24.234375 5.898438 -24.59375 7.390625 -24.59375 C 8.210938 -24.59375 8.910156 -24.523438 9.484375 -24.390625 L 9.484375 -22.125 C 8.992188 -22.207031 8.554688 -22.25 8.171875 -22.25 C 7.398438 -22.25 6.84375 -22.054688 6.5 -21.671875 C 6.15625 -21.285156 5.984375 -20.582031 5.984375 -19.5625 L 5.984375 -17.953125 L 9.484375 -17.953125 L 9.484375 -15.78125 Z M 5.984375 -15.78125 "/></g></g></g><g fill="#1800ad" fill-opacity="1"><g transform="translate(552.852895, 368.730857)"><g><path d="M 17.46875 -9 C 17.46875 -5.851562 16.773438 -3.507812 15.390625 -1.96875 C 14.015625 -0.4375 12.007812 0.328125 9.375 0.328125 C 6.75 0.328125 4.765625 -0.46875 3.421875 -2.0625 C 2.085938 -3.664062 1.421875 -5.976562 1.421875 -9 C 1.421875 -15.1875 4.101562 -18.28125 9.46875 -18.28125 C 12.21875 -18.28125 14.238281 -17.523438 15.53125 -16.015625 C 16.820312 -14.503906 17.46875 -12.164062 17.46875 -9 Z M 14.34375 -9 C 14.34375 -11.476562 13.972656 -13.273438 13.234375 -14.390625 C 12.492188 -15.515625 11.257812 -16.078125 9.53125 -16.078125 C 7.78125 -16.078125 6.515625 -15.503906 5.734375 -14.359375 C 4.953125 -13.210938 4.5625 -11.425781 4.5625 -9 C 4.5625 -6.625 4.945312 -4.84375 5.71875 -3.65625 C 6.488281 -2.46875 7.695312 -1.875 9.34375 -1.875 C 11.132812 -1.875 12.414062 -2.445312 13.1875 -3.59375 C 13.957031 -4.75 14.34375 -6.550781 14.34375 -9 Z M 14.34375 -9 "/></g></g></g><g fill="#1800ad" fill-opacity="1"><g transform="translate(571.750685, 368.730857)"><g><path d="M 2.359375 0 L 2.359375 -13.765625 C 2.359375 -15.035156 2.320312 -16.429688 2.25 -17.953125 L 5.078125 -17.953125 C 5.160156 -15.921875 5.203125 -14.695312 5.203125 -14.28125 L 5.28125 -14.28125 C 5.75 -15.820312 6.289062 -16.875 6.90625 -17.4375 C 7.53125 -18 8.410156 -18.28125 9.546875 -18.28125 C 9.941406 -18.28125 10.34375 -18.226562 10.75 -18.125 L 10.75 -15.375 C 10.351562 -15.488281 9.820312 -15.546875 9.15625 -15.546875 C 7.914062 -15.546875 6.96875 -15.007812 6.3125 -13.9375 C 5.664062 -12.875 5.34375 -11.347656 5.34375 -9.359375 L 5.34375 0 Z M 2.359375 0 "/></g></g></g><g fill="#1800ad" fill-opacity="1"><g transform="translate(583.066115, 368.730857)"><g/></g></g><g fill="#1800ad" fill-opacity="1"><g transform="translate(592.506728, 368.730857)"><g><path d="M 2.265625 -21.765625 L 2.265625 -24.625 L 5.265625 -24.625 L 5.265625 -21.765625 Z M 2.265625 0 L 2.265625 -17.953125 L 5.265625 -17.953125 L 5.265625 0 Z M 2.265625 0 "/></g></g></g><g fill="#1800ad" fill-opacity="1"><g transform="translate(600.05587, 368.730857)"><g><path d="M 13.6875 0 L 13.6875 -11.390625 C 13.6875 -12.566406 13.570312 -13.476562 13.34375 -14.125 C 13.113281 -14.78125 12.742188 -15.253906 12.234375 -15.546875 C 11.722656 -15.835938 10.972656 -15.984375 9.984375 -15.984375 C 8.546875 -15.984375 7.410156 -15.488281 6.578125 -14.5 C 5.753906 -13.519531 5.34375 -12.15625 5.34375 -10.40625 L 5.34375 0 L 2.359375 0 L 2.359375 -14.125 C 2.359375 -16.207031 2.320312 -17.484375 2.25 -17.953125 L 5.078125 -17.953125 C 5.085938 -17.898438 5.097656 -17.75 5.109375 -17.5 C 5.117188 -17.257812 5.128906 -16.984375 5.140625 -16.671875 C 5.160156 -16.359375 5.179688 -15.765625 5.203125 -14.890625 L 5.265625 -14.890625 C 5.953125 -16.128906 6.742188 -17.003906 7.640625 -17.515625 C 8.546875 -18.023438 9.664062 -18.28125 11 -18.28125 C 12.96875 -18.28125 14.40625 -17.789062 15.3125 -16.8125 C 16.226562 -15.832031 16.6875 -14.21875 16.6875 -11.96875 L 16.6875 0 Z M 13.6875 0 "/></g></g></g><g fill="#1800ad" fill-opacity="1"><g transform="translate(618.953659, 368.730857)"><g><path d="M 9.1875 -0.125 C 8.207031 0.132812 7.203125 0.265625 6.171875 0.265625 C 3.785156 0.265625 2.59375 -1.085938 2.59375 -3.796875 L 2.59375 -15.78125 L 0.515625 -15.78125 L 0.515625 -17.953125 L 2.703125 -17.953125 L 3.578125 -21.96875 L 5.578125 -21.96875 L 5.578125 -17.953125 L 8.890625 -17.953125 L 8.890625 -15.78125 L 5.578125 -15.78125 L 5.578125 -4.453125 C 5.578125 -3.585938 5.71875 -2.976562 6 -2.625 C 6.28125 -2.28125 6.769531 -2.109375 7.46875 -2.109375 C 7.863281 -2.109375 8.4375 -2.1875 9.1875 -2.34375 Z M 9.1875 -0.125 "/></g></g></g><g fill="#1800ad" fill-opacity="1"><g transform="translate(628.394272, 368.730857)"><g><path d="M 4.578125 -8.34375 C 4.578125 -6.289062 5.003906 -4.703125 5.859375 -3.578125 C 6.710938 -2.460938 7.957031 -1.90625 9.59375 -1.90625 C 10.882812 -1.90625 11.921875 -2.164062 12.703125 -2.6875 C 13.484375 -3.207031 14.007812 -3.863281 14.28125 -4.65625 L 16.90625 -3.921875 C 15.832031 -1.085938 13.394531 0.328125 9.59375 0.328125 C 6.9375 0.328125 4.910156 -0.457031 3.515625 -2.03125 C 2.128906 -3.613281 1.4375 -5.96875 1.4375 -9.09375 C 1.4375 -12.0625 2.128906 -14.332031 3.515625 -15.90625 C 4.910156 -17.488281 6.894531 -18.28125 9.46875 -18.28125 C 14.75 -18.28125 17.390625 -15.101562 17.390625 -8.75 L 17.390625 -8.34375 Z M 14.296875 -10.640625 C 14.140625 -12.523438 13.660156 -13.898438 12.859375 -14.765625 C 12.066406 -15.640625 10.921875 -16.078125 9.421875 -16.078125 C 7.972656 -16.078125 6.828125 -15.59375 5.984375 -14.625 C 5.140625 -13.65625 4.679688 -12.328125 4.609375 -10.640625 Z M 14.296875 -10.640625 "/></g></g></g><g fill="#1800ad" fill-opacity="1"><g transform="translate(647.292062, 368.730857)"><g><path d="M 2.296875 0 L 2.296875 -24.625 L 5.28125 -24.625 L 5.28125 0 Z M 2.296875 0 "/></g></g></g><g fill="#1800ad" fill-opacity="1"><g transform="translate(654.841249, 368.730857)"><g><path d="M 2.296875 0 L 2.296875 -24.625 L 5.28125 -24.625 L 5.28125 0 Z M 2.296875 0 "/></g></g></g><g fill="#1800ad" fill-opacity="1"><g transform="translate(662.39039, 368.730857)"><g><path d="M 2.265625 -21.765625 L 2.265625 -24.625 L 5.265625 -24.625 L 5.265625 -21.765625 Z M 2.265625 0 L 2.265625 -17.953125 L 5.265625 -17.953125 L 5.265625 0 Z M 2.265625 0 "/></g></g></g><g fill="#1800ad" fill-opacity="1"><g transform="translate(669.939532, 368.730857)"><g><path d="M 9.09375 7.046875 C 7.132812 7.046875 5.570312 6.660156 4.40625 5.890625 C 3.25 5.128906 2.503906 4.039062 2.171875 2.625 L 5.171875 2.1875 C 5.367188 3.019531 5.804688 3.660156 6.484375 4.109375 C 7.171875 4.554688 8.066406 4.78125 9.171875 4.78125 C 12.148438 4.78125 13.640625 3.035156 13.640625 -0.453125 L 13.640625 -3.328125 L 13.609375 -3.328125 C 13.046875 -2.179688 12.269531 -1.316406 11.28125 -0.734375 C 10.300781 -0.160156 9.148438 0.125 7.828125 0.125 C 5.628906 0.125 4.007812 -0.601562 2.96875 -2.0625 C 1.9375 -3.519531 1.421875 -5.8125 1.421875 -8.9375 C 1.421875 -12.113281 1.976562 -14.457031 3.09375 -15.96875 C 4.207031 -17.476562 5.898438 -18.234375 8.171875 -18.234375 C 9.441406 -18.234375 10.539062 -17.941406 11.46875 -17.359375 C 12.40625 -16.785156 13.128906 -15.960938 13.640625 -14.890625 L 13.671875 -14.890625 C 13.671875 -15.210938 13.691406 -15.785156 13.734375 -16.609375 C 13.785156 -17.429688 13.832031 -17.878906 13.875 -17.953125 L 16.703125 -17.953125 C 16.640625 -17.359375 16.609375 -16.117188 16.609375 -14.234375 L 16.609375 -0.515625 C 16.609375 4.523438 14.101562 7.046875 9.09375 7.046875 Z M 13.640625 -8.984375 C 13.640625 -10.441406 13.441406 -11.695312 13.046875 -12.75 C 12.648438 -13.8125 12.085938 -14.617188 11.359375 -15.171875 C 10.628906 -15.734375 9.804688 -16.015625 8.890625 -16.015625 C 7.367188 -16.015625 6.257812 -15.457031 5.5625 -14.34375 C 4.863281 -13.238281 4.515625 -11.453125 4.515625 -8.984375 C 4.515625 -6.523438 4.835938 -4.757812 5.484375 -3.6875 C 6.140625 -2.613281 7.257812 -2.078125 8.84375 -2.078125 C 9.78125 -2.078125 10.613281 -2.351562 11.34375 -2.90625 C 12.082031 -3.457031 12.648438 -4.25 13.046875 -5.28125 C 13.441406 -6.320312 13.640625 -7.554688 13.640625 -8.984375 Z M 13.640625 -8.984375 "/></g></g></g><g fill="#1800ad" fill-opacity="1"><g transform="translate(688.837321, 368.730857)"><g><path d="M 4.578125 -8.34375 C 4.578125 -6.289062 5.003906 -4.703125 5.859375 -3.578125 C 6.710938 -2.460938 7.957031 -1.90625 9.59375 -1.90625 C 10.882812 -1.90625 11.921875 -2.164062 12.703125 -2.6875 C 13.484375 -3.207031 14.007812 -3.863281 14.28125 -4.65625 L 16.90625 -3.921875 C 15.832031 -1.085938 13.394531 0.328125 9.59375 0.328125 C 6.9375 0.328125 4.910156 -0.457031 3.515625 -2.03125 C 2.128906 -3.613281 1.4375 -5.96875 1.4375 -9.09375 C 1.4375 -12.0625 2.128906 -14.332031 3.515625 -15.90625 C 4.910156 -17.488281 6.894531 -18.28125 9.46875 -18.28125 C 14.75 -18.28125 17.390625 -15.101562 17.390625 -8.75 L 17.390625 -8.34375 Z M 14.296875 -10.640625 C 14.140625 -12.523438 13.660156 -13.898438 12.859375 -14.765625 C 12.066406 -15.640625 10.921875 -16.078125 9.421875 -16.078125 C 7.972656 -16.078125 6.828125 -15.59375 5.984375 -14.625 C 5.140625 -13.65625 4.679688 -12.328125 4.609375 -10.640625 Z M 14.296875 -10.640625 "/></g></g></g><g fill="#1800ad" fill-opacity="1"><g transform="translate(707.735111, 368.730857)"><g><path d="M 13.6875 0 L 13.6875 -11.390625 C 13.6875 -12.566406 13.570312 -13.476562 13.34375 -14.125 C 13.113281 -14.78125 12.742188 -15.253906 12.234375 -15.546875 C 11.722656 -15.835938 10.972656 -15.984375 9.984375 -15.984375 C 8.546875 -15.984375 7.410156 -15.488281 6.578125 -14.5 C 5.753906 -13.519531 5.34375 -12.15625 5.34375 -10.40625 L 5.34375 0 L 2.359375 0 L 2.359375 -14.125 C 2.359375 -16.207031 2.320312 -17.484375 2.25 -17.953125 L 5.078125 -17.953125 C 5.085938 -17.898438 5.097656 -17.75 5.109375 -17.5 C 5.117188 -17.257812 5.128906 -16.984375 5.140625 -16.671875 C 5.160156 -16.359375 5.179688 -15.765625 5.203125 -14.890625 L 5.265625 -14.890625 C 5.953125 -16.128906 6.742188 -17.003906 7.640625 -17.515625 C 8.546875 -18.023438 9.664062 -18.28125 11 -18.28125 C 12.96875 -18.28125 14.40625 -17.789062 15.3125 -16.8125 C 16.226562 -15.832031 16.6875 -14.21875 16.6875 -11.96875 L 16.6875 0 Z M 13.6875 0 "/></g></g></g><g fill="#1800ad" fill-opacity="1"><g transform="translate(726.6329, 368.730857)"><g><path d="M 9.1875 -0.125 C 8.207031 0.132812 7.203125 0.265625 6.171875 0.265625 C 3.785156 0.265625 2.59375 -1.085938 2.59375 -3.796875 L 2.59375 -15.78125 L 0.515625 -15.78125 L 0.515625 -17.953125 L 2.703125 -17.953125 L 3.578125 -21.96875 L 5.578125 -21.96875 L 5.578125 -17.953125 L 8.890625 -17.953125 L 8.890625 -15.78125 L 5.578125 -15.78125 L 5.578125 -4.453125 C 5.578125 -3.585938 5.71875 -2.976562 6 -2.625 C 6.28125 -2.28125 6.769531 -2.109375 7.46875 -2.109375 C 7.863281 -2.109375 8.4375 -2.1875 9.1875 -2.34375 Z M 9.1875 -0.125 "/></g></g></g><g fill="#1800ad" fill-opacity="1"><g transform="translate(736.073513, 368.730857)"><g/></g></g><g fill="#1800ad" fill-opacity="1"><g transform="translate(745.514126, 368.730857)"><g><path d="M 3.140625 0 L 3.140625 -23.375 L 6.3125 -23.375 L 6.3125 0 Z M 3.140625 0 "/></g></g></g><g fill="#1800ad" fill-opacity="1"><g transform="translate(754.954739, 368.730857)"><g><path d="M 11.953125 -20.796875 L 11.953125 0 L 8.796875 0 L 8.796875 -20.796875 L 0.765625 -20.796875 L 0.765625 -23.375 L 19.984375 -23.375 L 19.984375 -20.796875 Z M 11.953125 -20.796875 "/></g></g></g><g fill="#1800ad" fill-opacity="1"><g transform="translate(775.096856, 368.730857)"><g/></g></g><g fill="#1800ad" fill-opacity="1"><g transform="translate(784.537469, 368.730857)"><g><path d="M 6.875 0.328125 C 5.070312 0.328125 3.710938 -0.144531 2.796875 -1.09375 C 1.890625 -2.039062 1.4375 -3.347656 1.4375 -5.015625 C 1.4375 -6.867188 2.046875 -8.289062 3.265625 -9.28125 C 4.492188 -10.28125 6.46875 -10.816406 9.1875 -10.890625 L 13.21875 -10.953125 L 13.21875 -11.9375 C 13.21875 -13.394531 12.90625 -14.4375 12.28125 -15.0625 C 11.664062 -15.695312 10.695312 -16.015625 9.375 -16.015625 C 8.039062 -16.015625 7.066406 -15.785156 6.453125 -15.328125 C 5.847656 -14.878906 5.484375 -14.15625 5.359375 -13.15625 L 2.234375 -13.4375 C 2.742188 -16.664062 5.144531 -18.28125 9.4375 -18.28125 C 11.695312 -18.28125 13.394531 -17.765625 14.53125 -16.734375 C 15.675781 -15.703125 16.25 -14.207031 16.25 -12.25 L 16.25 -4.515625 C 16.25 -3.628906 16.363281 -2.960938 16.59375 -2.515625 C 16.820312 -2.066406 17.265625 -1.84375 17.921875 -1.84375 C 18.210938 -1.84375 18.539062 -1.878906 18.90625 -1.953125 L 18.90625 -0.09375 C 18.144531 0.0820312 17.375 0.171875 16.59375 0.171875 C 15.488281 0.171875 14.679688 -0.117188 14.171875 -0.703125 C 13.671875 -1.285156 13.390625 -2.195312 13.328125 -3.4375 L 13.21875 -3.4375 C 12.457031 -2.0625 11.570312 -1.085938 10.5625 -0.515625 C 9.550781 0.046875 8.320312 0.328125 6.875 0.328125 Z M 7.546875 -1.90625 C 8.640625 -1.90625 9.613281 -2.15625 10.46875 -2.65625 C 11.320312 -3.15625 11.992188 -3.835938 12.484375 -4.703125 C 12.972656 -5.566406 13.21875 -6.460938 13.21875 -7.390625 L 13.21875 -8.859375 L 9.953125 -8.796875 C 8.546875 -8.773438 7.476562 -8.628906 6.75 -8.359375 C 6.03125 -8.097656 5.476562 -7.691406 5.09375 -7.140625 C 4.707031 -6.585938 4.515625 -5.863281 4.515625 -4.96875 C 4.515625 -3.988281 4.773438 -3.234375 5.296875 -2.703125 C 5.828125 -2.171875 6.578125 -1.90625 7.546875 -1.90625 Z M 7.546875 -1.90625 "/></g></g></g><g fill="#1800ad" fill-opacity="1"><g transform="translate(803.435258, 368.730857)"><g><path d="M 13.6875 0 L 13.6875 -11.390625 C 13.6875 -12.566406 13.570312 -13.476562 13.34375 -14.125 C 13.113281 -14.78125 12.742188 -15.253906 12.234375 -15.546875 C 11.722656 -15.835938 10.972656 -15.984375 9.984375 -15.984375 C 8.546875 -15.984375 7.410156 -15.488281 6.578125 -14.5 C 5.753906 -13.519531 5.34375 -12.15625 5.34375 -10.40625 L 5.34375 0 L 2.359375 0 L 2.359375 -14.125 C 2.359375 -16.207031 2.320312 -17.484375 2.25 -17.953125 L 5.078125 -17.953125 C 5.085938 -17.898438 5.097656 -17.75 5.109375 -17.5 C 5.117188 -17.257812 5.128906 -16.984375 5.140625 -16.671875 C 5.160156 -16.359375 5.179688 -15.765625 5.203125 -14.890625 L 5.265625 -14.890625 C 5.953125 -16.128906 6.742188 -17.003906 7.640625 -17.515625 C 8.546875 -18.023438 9.664062 -18.28125 11 -18.28125 C 12.96875 -18.28125 14.40625 -17.789062 15.3125 -16.8125 C 16.226562 -15.832031 16.6875 -14.21875 16.6875 -11.96875 L 16.6875 0 Z M 13.6875 0 "/></g></g></g><g fill="#1800ad" fill-opacity="1"><g transform="translate(822.333048, 368.730857)"><g><path d="M 13.625 -2.890625 C 13.070312 -1.734375 12.335938 -0.90625 11.421875 -0.40625 C 10.515625 0.0820312 9.382812 0.328125 8.03125 0.328125 C 5.757812 0.328125 4.085938 -0.429688 3.015625 -1.953125 C 1.953125 -3.484375 1.421875 -5.796875 1.421875 -8.890625 C 1.421875 -15.148438 3.625 -18.28125 8.03125 -18.28125 C 9.394531 -18.28125 10.53125 -18.03125 11.4375 -17.53125 C 12.34375 -17.039062 13.070312 -16.253906 13.625 -15.171875 L 13.65625 -15.171875 L 13.625 -17.171875 L 13.625 -24.625 L 16.609375 -24.625 L 16.609375 -3.703125 C 16.609375 -1.828125 16.640625 -0.59375 16.703125 0 L 13.859375 0 C 13.828125 -0.175781 13.789062 -0.582031 13.75 -1.21875 C 13.707031 -1.863281 13.6875 -2.421875 13.6875 -2.890625 Z M 4.5625 -9 C 4.5625 -6.488281 4.890625 -4.6875 5.546875 -3.59375 C 6.210938 -2.507812 7.296875 -1.96875 8.796875 -1.96875 C 10.484375 -1.96875 11.707031 -2.554688 12.46875 -3.734375 C 13.238281 -4.910156 13.625 -6.726562 13.625 -9.1875 C 13.625 -11.570312 13.238281 -13.316406 12.46875 -14.421875 C 11.707031 -15.523438 10.492188 -16.078125 8.828125 -16.078125 C 7.328125 -16.078125 6.238281 -15.519531 5.5625 -14.40625 C 4.894531 -13.300781 4.5625 -11.5 4.5625 -9 Z M 4.5625 -9 "/></g></g></g><g fill="#1800ad" fill-opacity="1"><g transform="translate(841.230837, 368.730857)"><g/></g></g><g fill="#1800ad" fill-opacity="1"><g transform="translate(850.67145, 368.730857)"><g><path d="M 13.625 -2.890625 C 13.070312 -1.734375 12.335938 -0.90625 11.421875 -0.40625 C 10.515625 0.0820312 9.382812 0.328125 8.03125 0.328125 C 5.757812 0.328125 4.085938 -0.429688 3.015625 -1.953125 C 1.953125 -3.484375 1.421875 -5.796875 1.421875 -8.890625 C 1.421875 -15.148438 3.625 -18.28125 8.03125 -18.28125 C 9.394531 -18.28125 10.53125 -18.03125 11.4375 -17.53125 C 12.34375 -17.039062 13.070312 -16.253906 13.625 -15.171875 L 13.65625 -15.171875 L 13.625 -17.171875 L 13.625 -24.625 L 16.609375 -24.625 L 16.609375 -3.703125 C 16.609375 -1.828125 16.640625 -0.59375 16.703125 0 L 13.859375 0 C 13.828125 -0.175781 13.789062 -0.582031 13.75 -1.21875 C 13.707031 -1.863281 13.6875 -2.421875 13.6875 -2.890625 Z M 4.5625 -9 C 4.5625 -6.488281 4.890625 -4.6875 5.546875 -3.59375 C 6.210938 -2.507812 7.296875 -1.96875 8.796875 -1.96875 C 10.484375 -1.96875 11.707031 -2.554688 12.46875 -3.734375 C 13.238281 -4.910156 13.625 -6.726562 13.625 -9.1875 C 13.625 -11.570312 13.238281 -13.316406 12.46875 -14.421875 C 11.707031 -15.523438 10.492188 -16.078125 8.828125 -16.078125 C 7.328125 -16.078125 6.238281 -15.519531 5.5625 -14.40625 C 4.894531 -13.300781 4.5625 -11.5 4.5625 -9 Z M 4.5625 -9 "/></g></g></g><g fill="#1800ad" fill-opacity="1"><g transform="translate(869.56924, 368.730857)"><g><path d="M 2.265625 -21.765625 L 2.265625 -24.625 L 5.265625 -24.625 L 5.265625 -21.765625 Z M 2.265625 0 L 2.265625 -17.953125 L 5.265625 -17.953125 L 5.265625 0 Z M 2.265625 0 "/></g></g></g><g fill="#1800ad" fill-opacity="1"><g transform="translate(877.118381, 368.730857)"><g><path d="M 9.09375 7.046875 C 7.132812 7.046875 5.570312 6.660156 4.40625 5.890625 C 3.25 5.128906 2.503906 4.039062 2.171875 2.625 L 5.171875 2.1875 C 5.367188 3.019531 5.804688 3.660156 6.484375 4.109375 C 7.171875 4.554688 8.066406 4.78125 9.171875 4.78125 C 12.148438 4.78125 13.640625 3.035156 13.640625 -0.453125 L 13.640625 -3.328125 L 13.609375 -3.328125 C 13.046875 -2.179688 12.269531 -1.316406 11.28125 -0.734375 C 10.300781 -0.160156 9.148438 0.125 7.828125 0.125 C 5.628906 0.125 4.007812 -0.601562 2.96875 -2.0625 C 1.9375 -3.519531 1.421875 -5.8125 1.421875 -8.9375 C 1.421875 -12.113281 1.976562 -14.457031 3.09375 -15.96875 C 4.207031 -17.476562 5.898438 -18.234375 8.171875 -18.234375 C 9.441406 -18.234375 10.539062 -17.941406 11.46875 -17.359375 C 12.40625 -16.785156 13.128906 -15.960938 13.640625 -14.890625 L 13.671875 -14.890625 C 13.671875 -15.210938 13.691406 -15.785156 13.734375 -16.609375 C 13.785156 -17.429688 13.832031 -17.878906 13.875 -17.953125 L 16.703125 -17.953125 C 16.640625 -17.359375 16.609375 -16.117188 16.609375 -14.234375 L 16.609375 -0.515625 C 16.609375 4.523438 14.101562 7.046875 9.09375 7.046875 Z M 13.640625 -8.984375 C 13.640625 -10.441406 13.441406 -11.695312 13.046875 -12.75 C 12.648438 -13.8125 12.085938 -14.617188 11.359375 -15.171875 C 10.628906 -15.734375 9.804688 -16.015625 8.890625 -16.015625 C 7.367188 -16.015625 6.257812 -15.457031 5.5625 -14.34375 C 4.863281 -13.238281 4.515625 -11.453125 4.515625 -8.984375 C 4.515625 -6.523438 4.835938 -4.757812 5.484375 -3.6875 C 6.140625 -2.613281 7.257812 -2.078125 8.84375 -2.078125 C 9.78125 -2.078125 10.613281 -2.351562 11.34375 -2.90625 C 12.082031 -3.457031 12.648438 -4.25 13.046875 -5.28125 C 13.441406 -6.320312 13.640625 -7.554688 13.640625 -8.984375 Z M 13.640625 -8.984375 "/></g></g></g><g fill="#1800ad" fill-opacity="1"><g transform="translate(896.016171, 368.730857)"><g><path d="M 2.265625 -21.765625 L 2.265625 -24.625 L 5.265625 -24.625 L 5.265625 -21.765625 Z M 2.265625 0 L 2.265625 -17.953125 L 5.265625 -17.953125 L 5.265625 0 Z M 2.265625 0 "/></g></g></g><g fill="#1800ad" fill-opacity="1"><g transform="translate(903.565312, 368.730857)"><g><path d="M 9.1875 -0.125 C 8.207031 0.132812 7.203125 0.265625 6.171875 0.265625 C 3.785156 0.265625 2.59375 -1.085938 2.59375 -3.796875 L 2.59375 -15.78125 L 0.515625 -15.78125 L 0.515625 -17.953125 L 2.703125 -17.953125 L 3.578125 -21.96875 L 5.578125 -21.96875 L 5.578125 -17.953125 L 8.890625 -17.953125 L 8.890625 -15.78125 L 5.578125 -15.78125 L 5.578125 -4.453125 C 5.578125 -3.585938 5.71875 -2.976562 6 -2.625 C 6.28125 -2.28125 6.769531 -2.109375 7.46875 -2.109375 C 7.863281 -2.109375 8.4375 -2.1875 9.1875 -2.34375 Z M 9.1875 -0.125 "/></g></g></g><g fill="#1800ad" fill-opacity="1"><g transform="translate(913.005925, 368.730857)"><g><path d="M 6.875 0.328125 C 5.070312 0.328125 3.710938 -0.144531 2.796875 -1.09375 C 1.890625 -2.039062 1.4375 -3.347656 1.4375 -5.015625 C 1.4375 -6.867188 2.046875 -8.289062 3.265625 -9.28125 C 4.492188 -10.28125 6.46875 -10.816406 9.1875 -10.890625 L 13.21875 -10.953125 L 13.21875 -11.9375 C 13.21875 -13.394531 12.90625 -14.4375 12.28125 -15.0625 C 11.664062 -15.695312 10.695312 -16.015625 9.375 -16.015625 C 8.039062 -16.015625 7.066406 -15.785156 6.453125 -15.328125 C 5.847656 -14.878906 5.484375 -14.15625 5.359375 -13.15625 L 2.234375 -13.4375 C 2.742188 -16.664062 5.144531 -18.28125 9.4375 -18.28125 C 11.695312 -18.28125 13.394531 -17.765625 14.53125 -16.734375 C 15.675781 -15.703125 16.25 -14.207031 16.25 -12.25 L 16.25 -4.515625 C 16.25 -3.628906 16.363281 -2.960938 16.59375 -2.515625 C 16.820312 -2.066406 17.265625 -1.84375 17.921875 -1.84375 C 18.210938 -1.84375 18.539062 -1.878906 18.90625 -1.953125 L 18.90625 -0.09375 C 18.144531 0.0820312 17.375 0.171875 16.59375 0.171875 C 15.488281 0.171875 14.679688 -0.117188 14.171875 -0.703125 C 13.671875 -1.285156 13.390625 -2.195312 13.328125 -3.4375 L 13.21875 -3.4375 C 12.457031 -2.0625 11.570312 -1.085938 10.5625 -0.515625 C 9.550781 0.046875 8.320312 0.328125 6.875 0.328125 Z M 7.546875 -1.90625 C 8.640625 -1.90625 9.613281 -2.15625 10.46875 -2.65625 C 11.320312 -3.15625 11.992188 -3.835938 12.484375 -4.703125 C 12.972656 -5.566406 13.21875 -6.460938 13.21875 -7.390625 L 13.21875 -8.859375 L 9.953125 -8.796875 C 8.546875 -8.773438 7.476562 -8.628906 6.75 -8.359375 C 6.03125 -8.097656 5.476562 -7.691406 5.09375 -7.140625 C 4.707031 -6.585938 4.515625 -5.863281 4.515625 -4.96875 C 4.515625 -3.988281 4.773438 -3.234375 5.296875 -2.703125 C 5.828125 -2.171875 6.578125 -1.90625 7.546875 -1.90625 Z M 7.546875 -1.90625 "/></g></g></g><g fill="#1800ad" fill-opacity="1"><g transform="translate(931.903715, 368.730857)"><g><path d="M 2.296875 0 L 2.296875 -24.625 L 5.28125 -24.625 L 5.28125 0 Z M 2.296875 0 "/></g></g></g><g fill="#1800ad" fill-opacity="1"><g transform="translate(473.861616, 415.957807)"><g><path d="M 9.1875 -0.125 C 8.207031 0.132812 7.203125 0.265625 6.171875 0.265625 C 3.785156 0.265625 2.59375 -1.085938 2.59375 -3.796875 L 2.59375 -15.78125 L 0.515625 -15.78125 L 0.515625 -17.953125 L 2.703125 -17.953125 L 3.578125 -21.96875 L 5.578125 -21.96875 L 5.578125 -17.953125 L 8.890625 -17.953125 L 8.890625 -15.78125 L 5.578125 -15.78125 L 5.578125 -4.453125 C 5.578125 -3.585938 5.71875 -2.976562 6 -2.625 C 6.28125 -2.28125 6.769531 -2.109375 7.46875 -2.109375 C 7.863281 -2.109375 8.4375 -2.1875 9.1875 -2.34375 Z M 9.1875 -0.125 "/></g></g></g><g fill="#1800ad" fill-opacity="1"><g transform="translate(483.302217, 415.957807)"><g><path d="M 2.359375 0 L 2.359375 -13.765625 C 2.359375 -15.035156 2.320312 -16.429688 2.25 -17.953125 L 5.078125 -17.953125 C 5.160156 -15.921875 5.203125 -14.695312 5.203125 -14.28125 L 5.28125 -14.28125 C 5.75 -15.820312 6.289062 -16.875 6.90625 -17.4375 C 7.53125 -18 8.410156 -18.28125 9.546875 -18.28125 C 9.941406 -18.28125 10.34375 -18.226562 10.75 -18.125 L 10.75 -15.375 C 10.351562 -15.488281 9.820312 -15.546875 9.15625 -15.546875 C 7.914062 -15.546875 6.96875 -15.007812 6.3125 -13.9375 C 5.664062 -12.875 5.34375 -11.347656 5.34375 -9.359375 L 5.34375 0 Z M 2.359375 0 "/></g></g></g><g fill="#1800ad" fill-opacity="1"><g transform="translate(494.617659, 415.957807)"><g><path d="M 6.875 0.328125 C 5.070312 0.328125 3.710938 -0.144531 2.796875 -1.09375 C 1.890625 -2.039062 1.4375 -3.347656 1.4375 -5.015625 C 1.4375 -6.867188 2.046875 -8.289062 3.265625 -9.28125 C 4.492188 -10.28125 6.46875 -10.816406 9.1875 -10.890625 L 13.21875 -10.953125 L 13.21875 -11.9375 C 13.21875 -13.394531 12.90625 -14.4375 12.28125 -15.0625 C 11.664062 -15.695312 10.695312 -16.015625 9.375 -16.015625 C 8.039062 -16.015625 7.066406 -15.785156 6.453125 -15.328125 C 5.847656 -14.878906 5.484375 -14.15625 5.359375 -13.15625 L 2.234375 -13.4375 C 2.742188 -16.664062 5.144531 -18.28125 9.4375 -18.28125 C 11.695312 -18.28125 13.394531 -17.765625 14.53125 -16.734375 C 15.675781 -15.703125 16.25 -14.207031 16.25 -12.25 L 16.25 -4.515625 C 16.25 -3.628906 16.363281 -2.960938 16.59375 -2.515625 C 16.820312 -2.066406 17.265625 -1.84375 17.921875 -1.84375 C 18.210938 -1.84375 18.539062 -1.878906 18.90625 -1.953125 L 18.90625 -0.09375 C 18.144531 0.0820312 17.375 0.171875 16.59375 0.171875 C 15.488281 0.171875 14.679688 -0.117188 14.171875 -0.703125 C 13.671875 -1.285156 13.390625 -2.195312 13.328125 -3.4375 L 13.21875 -3.4375 C 12.457031 -2.0625 11.570312 -1.085938 10.5625 -0.515625 C 9.550781 0.046875 8.320312 0.328125 6.875 0.328125 Z M 7.546875 -1.90625 C 8.640625 -1.90625 9.613281 -2.15625 10.46875 -2.65625 C 11.320312 -3.15625 11.992188 -3.835938 12.484375 -4.703125 C 12.972656 -5.566406 13.21875 -6.460938 13.21875 -7.390625 L 13.21875 -8.859375 L 9.953125 -8.796875 C 8.546875 -8.773438 7.476562 -8.628906 6.75 -8.359375 C 6.03125 -8.097656 5.476562 -7.691406 5.09375 -7.140625 C 4.707031 -6.585938 4.515625 -5.863281 4.515625 -4.96875 C 4.515625 -3.988281 4.773438 -3.234375 5.296875 -2.703125 C 5.828125 -2.171875 6.578125 -1.90625 7.546875 -1.90625 Z M 7.546875 -1.90625 "/></g></g></g><g fill="#1800ad" fill-opacity="1"><g transform="translate(513.515449, 415.957807)"><g><path d="M 13.6875 0 L 13.6875 -11.390625 C 13.6875 -12.566406 13.570312 -13.476562 13.34375 -14.125 C 13.113281 -14.78125 12.742188 -15.253906 12.234375 -15.546875 C 11.722656 -15.835938 10.972656 -15.984375 9.984375 -15.984375 C 8.546875 -15.984375 7.410156 -15.488281 6.578125 -14.5 C 5.753906 -13.519531 5.34375 -12.15625 5.34375 -10.40625 L 5.34375 0 L 2.359375 0 L 2.359375 -14.125 C 2.359375 -16.207031 2.320312 -17.484375 2.25 -17.953125 L 5.078125 -17.953125 C 5.085938 -17.898438 5.097656 -17.75 5.109375 -17.5 C 5.117188 -17.257812 5.128906 -16.984375 5.140625 -16.671875 C 5.160156 -16.359375 5.179688 -15.765625 5.203125 -14.890625 L 5.265625 -14.890625 C 5.953125 -16.128906 6.742188 -17.003906 7.640625 -17.515625 C 8.546875 -18.023438 9.664062 -18.28125 11 -18.28125 C 12.96875 -18.28125 14.40625 -17.789062 15.3125 -16.8125 C 16.226562 -15.832031 16.6875 -14.21875 16.6875 -11.96875 L 16.6875 0 Z M 13.6875 0 "/></g></g></g><g fill="#1800ad" fill-opacity="1"><g transform="translate(532.413238, 415.957807)"><g><path d="M 15.765625 -4.96875 C 15.765625 -3.269531 15.125 -1.960938 13.84375 -1.046875 C 12.570312 -0.128906 10.785156 0.328125 8.484375 0.328125 C 6.242188 0.328125 4.519531 -0.0351562 3.3125 -0.765625 C 2.101562 -1.503906 1.316406 -2.65625 0.953125 -4.21875 L 3.578125 -4.734375 C 3.835938 -3.765625 4.363281 -3.054688 5.15625 -2.609375 C 5.957031 -2.160156 7.066406 -1.9375 8.484375 -1.9375 C 9.992188 -1.9375 11.097656 -2.164062 11.796875 -2.625 C 12.503906 -3.09375 12.859375 -3.796875 12.859375 -4.734375 C 12.859375 -5.441406 12.613281 -6.015625 12.125 -6.453125 C 11.644531 -6.898438 10.863281 -7.265625 9.78125 -7.546875 L 7.640625 -8.109375 C 5.921875 -8.554688 4.695312 -8.992188 3.96875 -9.421875 C 3.25 -9.847656 2.679688 -10.363281 2.265625 -10.96875 C 1.859375 -11.570312 1.65625 -12.316406 1.65625 -13.203125 C 1.65625 -14.847656 2.238281 -16.097656 3.40625 -16.953125 C 4.570312 -17.804688 6.273438 -18.234375 8.515625 -18.234375 C 10.492188 -18.234375 12.066406 -17.882812 13.234375 -17.1875 C 14.398438 -16.488281 15.140625 -15.375 15.453125 -13.84375 L 12.765625 -13.5 C 12.597656 -14.300781 12.148438 -14.914062 11.421875 -15.34375 C 10.703125 -15.769531 9.734375 -15.984375 8.515625 -15.984375 C 7.160156 -15.984375 6.160156 -15.773438 5.515625 -15.359375 C 4.878906 -14.953125 4.5625 -14.332031 4.5625 -13.5 C 4.5625 -13 4.691406 -12.582031 4.953125 -12.25 C 5.222656 -11.914062 5.617188 -11.628906 6.140625 -11.390625 C 6.660156 -11.160156 7.753906 -10.84375 9.421875 -10.4375 C 11.003906 -10.039062 12.144531 -9.671875 12.84375 -9.328125 C 13.539062 -8.992188 14.085938 -8.617188 14.484375 -8.203125 C 14.890625 -7.796875 15.203125 -7.320312 15.421875 -6.78125 C 15.648438 -6.25 15.765625 -5.644531 15.765625 -4.96875 Z M 15.765625 -4.96875 "/></g></g></g><g fill="#1800ad" fill-opacity="1"><g transform="translate(549.402993, 415.957807)"><g><path d="M 5.984375 -15.78125 L 5.984375 0 L 3 0 L 3 -15.78125 L 0.484375 -15.78125 L 0.484375 -17.953125 L 3 -17.953125 L 3 -19.984375 C 3 -21.617188 3.359375 -22.796875 4.078125 -23.515625 C 4.796875 -24.234375 5.898438 -24.59375 7.390625 -24.59375 C 8.210938 -24.59375 8.910156 -24.523438 9.484375 -24.390625 L 9.484375 -22.125 C 8.992188 -22.207031 8.554688 -22.25 8.171875 -22.25 C 7.398438 -22.25 6.84375 -22.054688 6.5 -21.671875 C 6.15625 -21.285156 5.984375 -20.582031 5.984375 -19.5625 L 5.984375 -17.953125 L 9.484375 -17.953125 L 9.484375 -15.78125 Z M 5.984375 -15.78125 "/></g></g></g><g fill="#1800ad" fill-opacity="1"><g transform="translate(558.843595, 415.957807)"><g><path d="M 17.46875 -9 C 17.46875 -5.851562 16.773438 -3.507812 15.390625 -1.96875 C 14.015625 -0.4375 12.007812 0.328125 9.375 0.328125 C 6.75 0.328125 4.765625 -0.46875 3.421875 -2.0625 C 2.085938 -3.664062 1.421875 -5.976562 1.421875 -9 C 1.421875 -15.1875 4.101562 -18.28125 9.46875 -18.28125 C 12.21875 -18.28125 14.238281 -17.523438 15.53125 -16.015625 C 16.820312 -14.503906 17.46875 -12.164062 17.46875 -9 Z M 14.34375 -9 C 14.34375 -11.476562 13.972656 -13.273438 13.234375 -14.390625 C 12.492188 -15.515625 11.257812 -16.078125 9.53125 -16.078125 C 7.78125 -16.078125 6.515625 -15.503906 5.734375 -14.359375 C 4.953125 -13.210938 4.5625 -11.425781 4.5625 -9 C 4.5625 -6.625 4.945312 -4.84375 5.71875 -3.65625 C 6.488281 -2.46875 7.695312 -1.875 9.34375 -1.875 C 11.132812 -1.875 12.414062 -2.445312 13.1875 -3.59375 C 13.957031 -4.75 14.34375 -6.550781 14.34375 -9 Z M 14.34375 -9 "/></g></g></g><g fill="#1800ad" fill-opacity="1"><g transform="translate(577.741384, 415.957807)"><g><path d="M 2.359375 0 L 2.359375 -13.765625 C 2.359375 -15.035156 2.320312 -16.429688 2.25 -17.953125 L 5.078125 -17.953125 C 5.160156 -15.921875 5.203125 -14.695312 5.203125 -14.28125 L 5.28125 -14.28125 C 5.75 -15.820312 6.289062 -16.875 6.90625 -17.4375 C 7.53125 -18 8.410156 -18.28125 9.546875 -18.28125 C 9.941406 -18.28125 10.34375 -18.226562 10.75 -18.125 L 10.75 -15.375 C 10.351562 -15.488281 9.820312 -15.546875 9.15625 -15.546875 C 7.914062 -15.546875 6.96875 -15.007812 6.3125 -13.9375 C 5.664062 -12.875 5.34375 -11.347656 5.34375 -9.359375 L 5.34375 0 Z M 2.359375 0 "/></g></g></g><g fill="#1800ad" fill-opacity="1"><g transform="translate(589.056826, 415.957807)"><g><path d="M 12.75 0 L 12.75 -11.390625 C 12.75 -13.117188 12.507812 -14.316406 12.03125 -14.984375 C 11.550781 -15.648438 10.691406 -15.984375 9.453125 -15.984375 C 8.179688 -15.984375 7.175781 -15.492188 6.4375 -14.515625 C 5.695312 -13.546875 5.328125 -12.175781 5.328125 -10.40625 L 5.328125 0 L 2.359375 0 L 2.359375 -14.125 C 2.359375 -16.207031 2.320312 -17.484375 2.25 -17.953125 L 5.078125 -17.953125 C 5.085938 -17.898438 5.097656 -17.75 5.109375 -17.5 C 5.117188 -17.257812 5.128906 -16.984375 5.140625 -16.671875 C 5.160156 -16.359375 5.179688 -15.765625 5.203125 -14.890625 L 5.265625 -14.890625 C 5.898438 -16.160156 6.632812 -17.039062 7.46875 -17.53125 C 8.300781 -18.03125 9.3125 -18.28125 10.5 -18.28125 C 11.863281 -18.28125 12.941406 -18.007812 13.734375 -17.46875 C 14.523438 -16.925781 15.070312 -16.066406 15.375 -14.890625 L 15.4375 -14.890625 C 16.050781 -16.085938 16.796875 -16.953125 17.671875 -17.484375 C 18.554688 -18.015625 19.625 -18.28125 20.875 -18.28125 C 22.6875 -18.28125 24.003906 -17.785156 24.828125 -16.796875 C 25.648438 -15.816406 26.0625 -14.207031 26.0625 -11.96875 L 26.0625 0 L 23.109375 0 L 23.109375 -11.390625 C 23.109375 -13.117188 22.867188 -14.316406 22.390625 -14.984375 C 21.921875 -15.648438 21.066406 -15.984375 19.828125 -15.984375 C 18.523438 -15.984375 17.507812 -15.5 16.78125 -14.53125 C 16.0625 -13.5625 15.703125 -12.1875 15.703125 -10.40625 L 15.703125 0 Z M 12.75 0 "/></g></g></g><g fill="#1800ad" fill-opacity="1"><g transform="translate(617.362022, 415.957807)"><g><path d="M 6.875 0.328125 C 5.070312 0.328125 3.710938 -0.144531 2.796875 -1.09375 C 1.890625 -2.039062 1.4375 -3.347656 1.4375 -5.015625 C 1.4375 -6.867188 2.046875 -8.289062 3.265625 -9.28125 C 4.492188 -10.28125 6.46875 -10.816406 9.1875 -10.890625 L 13.21875 -10.953125 L 13.21875 -11.9375 C 13.21875 -13.394531 12.90625 -14.4375 12.28125 -15.0625 C 11.664062 -15.695312 10.695312 -16.015625 9.375 -16.015625 C 8.039062 -16.015625 7.066406 -15.785156 6.453125 -15.328125 C 5.847656 -14.878906 5.484375 -14.15625 5.359375 -13.15625 L 2.234375 -13.4375 C 2.742188 -16.664062 5.144531 -18.28125 9.4375 -18.28125 C 11.695312 -18.28125 13.394531 -17.765625 14.53125 -16.734375 C 15.675781 -15.703125 16.25 -14.207031 16.25 -12.25 L 16.25 -4.515625 C 16.25 -3.628906 16.363281 -2.960938 16.59375 -2.515625 C 16.820312 -2.066406 17.265625 -1.84375 17.921875 -1.84375 C 18.210938 -1.84375 18.539062 -1.878906 18.90625 -1.953125 L 18.90625 -0.09375 C 18.144531 0.0820312 17.375 0.171875 16.59375 0.171875 C 15.488281 0.171875 14.679688 -0.117188 14.171875 -0.703125 C 13.671875 -1.285156 13.390625 -2.195312 13.328125 -3.4375 L 13.21875 -3.4375 C 12.457031 -2.0625 11.570312 -1.085938 10.5625 -0.515625 C 9.550781 0.046875 8.320312 0.328125 6.875 0.328125 Z M 7.546875 -1.90625 C 8.640625 -1.90625 9.613281 -2.15625 10.46875 -2.65625 C 11.320312 -3.15625 11.992188 -3.835938 12.484375 -4.703125 C 12.972656 -5.566406 13.21875 -6.460938 13.21875 -7.390625 L 13.21875 -8.859375 L 9.953125 -8.796875 C 8.546875 -8.773438 7.476562 -8.628906 6.75 -8.359375 C 6.03125 -8.097656 5.476562 -7.691406 5.09375 -7.140625 C 4.707031 -6.585938 4.515625 -5.863281 4.515625 -4.96875 C 4.515625 -3.988281 4.773438 -3.234375 5.296875 -2.703125 C 5.828125 -2.171875 6.578125 -1.90625 7.546875 -1.90625 Z M 7.546875 -1.90625 "/></g></g></g><g fill="#1800ad" fill-opacity="1"><g transform="translate(636.259812, 415.957807)"><g><path d="M 9.1875 -0.125 C 8.207031 0.132812 7.203125 0.265625 6.171875 0.265625 C 3.785156 0.265625 2.59375 -1.085938 2.59375 -3.796875 L 2.59375 -15.78125 L 0.515625 -15.78125 L 0.515625 -17.953125 L 2.703125 -17.953125 L 3.578125 -21.96875 L 5.578125 -21.96875 L 5.578125 -17.953125 L 8.890625 -17.953125 L 8.890625 -15.78125 L 5.578125 -15.78125 L 5.578125 -4.453125 C 5.578125 -3.585938 5.71875 -2.976562 6 -2.625 C 6.28125 -2.28125 6.769531 -2.109375 7.46875 -2.109375 C 7.863281 -2.109375 8.4375 -2.1875 9.1875 -2.34375 Z M 9.1875 -0.125 "/></g></g></g><g fill="#1800ad" fill-opacity="1"><g transform="translate(645.700414, 415.957807)"><g><path d="M 2.265625 -21.765625 L 2.265625 -24.625 L 5.265625 -24.625 L 5.265625 -21.765625 Z M 2.265625 0 L 2.265625 -17.953125 L 5.265625 -17.953125 L 5.265625 0 Z M 2.265625 0 "/></g></g></g><g fill="#1800ad" fill-opacity="1"><g transform="translate(653.249578, 415.957807)"><g><path d="M 17.46875 -9 C 17.46875 -5.851562 16.773438 -3.507812 15.390625 -1.96875 C 14.015625 -0.4375 12.007812 0.328125 9.375 0.328125 C 6.75 0.328125 4.765625 -0.46875 3.421875 -2.0625 C 2.085938 -3.664062 1.421875 -5.976562 1.421875 -9 C 1.421875 -15.1875 4.101562 -18.28125 9.46875 -18.28125 C 12.21875 -18.28125 14.238281 -17.523438 15.53125 -16.015625 C 16.820312 -14.503906 17.46875 -12.164062 17.46875 -9 Z M 14.34375 -9 C 14.34375 -11.476562 13.972656 -13.273438 13.234375 -14.390625 C 12.492188 -15.515625 11.257812 -16.078125 9.53125 -16.078125 C 7.78125 -16.078125 6.515625 -15.503906 5.734375 -14.359375 C 4.953125 -13.210938 4.5625 -11.425781 4.5625 -9 C 4.5625 -6.625 4.945312 -4.84375 5.71875 -3.65625 C 6.488281 -2.46875 7.695312 -1.875 9.34375 -1.875 C 11.132812 -1.875 12.414062 -2.445312 13.1875 -3.59375 C 13.957031 -4.75 14.34375 -6.550781 14.34375 -9 Z M 14.34375 -9 "/></g></g></g><g fill="#1800ad" fill-opacity="1"><g transform="translate(672.147367, 415.957807)"><g><path d="M 13.6875 0 L 13.6875 -11.390625 C 13.6875 -12.566406 13.570312 -13.476562 13.34375 -14.125 C 13.113281 -14.78125 12.742188 -15.253906 12.234375 -15.546875 C 11.722656 -15.835938 10.972656 -15.984375 9.984375 -15.984375 C 8.546875 -15.984375 7.410156 -15.488281 6.578125 -14.5 C 5.753906 -13.519531 5.34375 -12.15625 5.34375 -10.40625 L 5.34375 0 L 2.359375 0 L 2.359375 -14.125 C 2.359375 -16.207031 2.320312 -17.484375 2.25 -17.953125 L 5.078125 -17.953125 C 5.085938 -17.898438 5.097656 -17.75 5.109375 -17.5 C 5.117188 -17.257812 5.128906 -16.984375 5.140625 -16.671875 C 5.160156 -16.359375 5.179688 -15.765625 5.203125 -14.890625 L 5.265625 -14.890625 C 5.953125 -16.128906 6.742188 -17.003906 7.640625 -17.515625 C 8.546875 -18.023438 9.664062 -18.28125 11 -18.28125 C 12.96875 -18.28125 14.40625 -17.789062 15.3125 -16.8125 C 16.226562 -15.832031 16.6875 -14.21875 16.6875 -11.96875 L 16.6875 0 Z M 13.6875 0 "/></g></g></g><g fill="#1800ad" fill-opacity="1"><g transform="translate(691.045157, 415.957807)"><g><path d="M 3.109375 0 L 3.109375 -3.640625 L 6.34375 -3.640625 L 6.34375 0 Z M 3.109375 0 "/></g></g></g></svg>